<?xml version="1.0" standalone="no"?>
<!DOCTYPE svg PUBLIC "-//W3C//DTD SVG 20010904//EN"
 "http://www.w3.org/TR/2001/REC-SVG-20010904/DTD/svg10.dtd">
<svg version="1.0" xmlns="http://www.w3.org/2000/svg"
 width="95.000000pt" height="90.000000pt" viewBox="0 0 95.000000 90.000000"
 preserveAspectRatio="xMidYMid meet">
<metadata>
Created by potrace 1.10, written by Peter Selinger 2001-2011
</metadata>
<g transform="translate(0.000000,90.000000) scale(0.100000,-0.100000)"
fill="#000000" stroke="none">
<path d="M305 859 c-89 -31 -184 -106 -221 -175 -10 -19 -21 -34 -25 -34 -4 0
-16 -23 -28 -51 -27 -63 -30 -163 -7 -238 9 -30 16 -65 16 -78 0 -13 6 -23 13
-23 6 0 18 -14 26 -30 13 -30 138 -140 159 -140 6 0 15 -7 19 -15 6 -9 32 -17
71 -21 34 -4 62 -11 62 -17 0 -6 -20 -7 -52 -4 -31 4 -59 2 -68 -4 -29 -20
199 -4 256 18 94 37 264 171 264 209 0 5 10 30 22 55 17 34 23 66 26 140 3 86
1 103 -24 165 -15 38 -41 86 -57 106 -29 36 -119 104 -167 125 -87 38 -195 43
-285 12z m187 -8 c13 -5 43 -15 68 -22 61 -18 150 -87 189 -147 80 -125 91
-249 32 -375 -17 -37 -35 -67 -41 -67 -5 0 -10 -5 -10 -12 0 -28 -115 -110
-195 -140 -125 -46 -280 0 -396 117 -31 31 -45 54 -77 125 -20 44 -30 138 -20
193 10 53 64 167 79 167 5 0 9 6 9 14 0 18 70 76 128 106 77 40 187 59 234 41z"/>
<path d="M20 246 c0 -25 27 -73 66 -116 43 -47 151 -107 167 -91 7 7 2 13 -15
20 -15 5 -29 15 -33 20 -3 6 -15 11 -26 11 -10 0 -19 7 -19 15 0 8 -4 14 -9
13 -13 -4 -101 90 -101 106 0 8 -7 19 -15 26 -12 10 -15 9 -15 -4z"/>
</g>
</svg>
