<?xml version="1.0" standalone="no"?>
<!DOCTYPE svg PUBLIC "-//W3C//DTD SVG 20010904//EN"
 "http://www.w3.org/TR/2001/REC-SVG-20010904/DTD/svg10.dtd">
<svg version="1.0" xmlns="http://www.w3.org/2000/svg"
 width="110.000000pt" height="86.000000pt" viewBox="0 0 110.000000 86.000000"
 preserveAspectRatio="xMidYMid meet">
<metadata>
Created by potrace 1.10, written by Peter Selinger 2001-2011
</metadata>
<g transform="translate(0.000000,86.000000) scale(0.100000,-0.100000)"
fill="#000000" stroke="none">
<path d="M417 780 c-32 -10 -76 -30 -97 -44 -22 -14 -44 -26 -49 -26 -17 0
-80 -85 -107 -145 -48 -103 -47 -237 1 -342 34 -75 117 -160 190 -194 48 -23
74 -29 128 -29 l67 0 0 145 c0 130 2 146 18 152 9 3 29 17 44 31 l27 25 66
-25 66 -24 -26 -28 c-27 -29 -33 -55 -12 -52 23 3 38 18 33 31 -2 7 1 20 7 29
11 14 18 13 77 -8 l65 -24 3 -126 c2 -103 5 -126 17 -126 13 0 15 30 16 188 1
252 0 269 -17 329 -16 57 -89 172 -120 188 -10 6 -39 22 -64 37 -95 57 -227
72 -333 38z m159 -47 c-3 -21 -6 -47 -6 -58 0 -17 -6 -21 -34 -21 -33 0 -35 2
-41 44 -4 25 -9 51 -12 58 -4 11 7 14 47 14 l53 0 -7 -37z m-102 -10 c4 -21 9
-45 12 -53 2 -10 -6 -20 -26 -27 -28 -11 -30 -10 -55 34 -31 57 -31 59 3 71
49 19 59 15 66 -25z m208 19 c4 -4 -3 -29 -15 -55 -20 -43 -24 -47 -51 -42
-16 3 -31 7 -33 8 -1 2 0 27 4 56 l6 53 41 -6 c23 -4 44 -10 48 -14z m55 -24
c32 -13 123 -97 123 -113 0 -8 -91 -65 -104 -65 -2 0 -11 11 -20 25 -16 24
-15 26 20 65 20 22 35 43 32 46 -3 2 -22 -14 -43 -37 -34 -38 -39 -40 -61 -28
-13 7 -24 17 -24 23 0 11 40 96 45 96 2 0 17 -5 32 -12z m-343 -46 l25 -49
-28 -16 c-27 -16 -28 -16 -70 27 -39 40 -41 43 -24 58 19 16 40 26 60 27 7 1
24 -21 37 -47z m-44 -92 c0 -3 -8 -15 -18 -28 l-18 -23 -47 27 c-27 14 -50 24
-53 21 -3 -3 17 -18 44 -33 47 -26 49 -29 40 -56 -11 -32 -10 -32 -77 -16 -32
7 -51 17 -51 26 0 19 45 108 73 142 l22 28 43 -41 c23 -23 42 -44 42 -47z
m155 -17 c9 -69 -12 -72 -40 -6 -11 26 -22 51 -23 55 -2 4 7 12 20 17 28 11
34 3 43 -66z m55 55 c0 -47 -13 -98 -24 -98 -7 0 -17 26 -22 60 l-10 60 28 0
c22 0 28 -4 28 -22z m69 6 c2 -2 -7 -28 -20 -58 -24 -59 -55 -78 -45 -28 2 15
7 44 11 65 5 33 9 37 28 31 12 -3 24 -8 26 -10z m-180 -61 c46 -94 35 -102
-34 -24 -38 41 -38 44 -20 57 27 20 29 19 54 -33z m232 34 c15 -11 12 -18 -31
-67 -42 -47 -48 -51 -46 -30 5 39 37 110 50 110 6 0 18 -6 27 -13z m210 -53
c12 -25 19 -47 17 -48 -1 -1 -28 -8 -58 -15 -49 -10 -56 -10 -67 6 -21 28 -16
38 35 71 26 17 48 31 50 31 2 1 12 -20 23 -45z m-440 -66 c7 -14 5 -16 -12
-13 -37 7 -110 55 -103 68 22 38 27 38 66 0 22 -21 44 -46 49 -55z m277 80
c20 -20 14 -33 -30 -59 -89 -50 -92 -47 -31 29 37 45 43 48 61 30z m-12 -110
c-34 -10 -62 -17 -63 -18 -2 0 -3 6 -3 13 0 7 24 26 52 44 l53 31 11 -26 c10
-27 10 -27 -50 -44z m-292 1 c19 -17 -4 -20 -63 -8 -34 6 -61 13 -61 15 0 1 4
14 10 29 l10 26 47 -27 c27 -15 52 -31 57 -35z m145 30 c32 -11 61 -52 61 -88
0 -11 -12 -33 -26 -50 -20 -24 -34 -31 -63 -31 -94 0 -125 121 -41 162 19 10
35 18 36 18 1 0 15 -5 33 -11z m351 -47 l0 -49 -57 5 c-32 2 -59 5 -60 6 0 0
-3 14 -5 30 -3 28 0 31 42 42 78 21 80 20 80 -34z m-686 23 c44 -7 46 -9 46
-41 0 -29 -4 -34 -22 -34 -13 0 -40 -3 -60 -6 l-38 -7 0 53 c0 40 3 51 14 47
7 -3 34 -9 60 -12z m546 -19 c0 -8 3 -22 7 -32 6 -16 1 -17 -57 -11 -92 10
-95 20 -13 42 63 17 63 17 63 1z m-406 -11 c68 -11 59 -31 -16 -38 -35 -3 -65
-4 -67 -2 -9 10 11 56 23 52 7 -3 34 -9 60 -12z m46 -58 c0 -15 -231 -110
-242 -99 -4 4 -10 26 -14 50 l-7 42 46 0 c25 0 53 3 63 7 13 5 16 3 12 -9 -6
-15 8 -38 24 -38 13 0 9 40 -4 42 -12 1 59 12 105 16 9 1 17 -4 17 -11z m360
-18 c0 -33 4 -33 -79 -4 -58 20 -50 35 18 35 l61 0 0 -31z m96 21 l44 0 0 -50
c0 -27 -3 -50 -6 -50 -22 0 -124 45 -124 54 1 32 14 57 27 52 8 -3 35 -6 59
-6z m-436 -38 c0 -5 -41 -42 -91 -83 -110 -89 -135 -108 -126 -92 4 6 -2 28
-14 48 -12 20 -19 38 -17 41 8 8 222 93 236 94 6 0 12 -4 12 -8z m28 -24 c-2
-7 4 -12 14 -12 20 2 19 -5 -27 -151 -21 -69 -38 -109 -46 -107 -7 2 -27 9
-46 17 l-34 14 71 107 c40 58 69 108 67 111 -3 2 -38 -43 -77 -102 l-72 -108
-36 36 c-20 20 -34 38 -32 40 3 2 41 32 85 68 74 61 126 99 132 99 2 0 2 -6 1
-12z m62 -167 l0 -128 -49 1 c-26 1 -48 6 -47 11 2 9 43 144 67 223 19 59 29
22 29 -107z"/>
<path d="M593 130 c1 -27 5 -50 9 -50 4 0 18 16 32 36 l25 37 4 -39 c3 -34 4
-32 5 14 1 28 0 52 -3 52 -2 0 -16 -17 -30 -37 l-25 -38 0 38 c0 20 -4 37 -9
37 -5 0 -8 -22 -8 -50z"/>
<path d="M702 168 c-15 -15 -15 -61 0 -76 7 -7 25 -12 40 -12 27 0 28 2 28 50
0 48 -1 50 -28 50 -15 0 -33 -5 -40 -12z m48 -43 c0 -39 -22 -48 -40 -16 -13
26 -3 51 21 51 15 0 19 -7 19 -35z"/>
</g>
</svg>
