<?xml version="1.0" standalone="no"?>
<!DOCTYPE svg PUBLIC "-//W3C//DTD SVG 20010904//EN"
 "http://www.w3.org/TR/2001/REC-SVG-20010904/DTD/svg10.dtd">
<svg version="1.0" xmlns="http://www.w3.org/2000/svg"
 width="154.000000pt" height="156.000000pt" viewBox="0 0 154.000000 156.000000"
 preserveAspectRatio="xMidYMid meet">
<metadata>
Created by potrace 1.10, written by Peter Selinger 2001-2011
</metadata>
<g transform="translate(0.000000,156.000000) scale(0.100000,-0.100000)"
fill="#000000" stroke="none">
<path d="M665 1484 c-141 -31 -224 -67 -317 -136 -262 -193 -354 -554 -219
-852 70 -155 179 -266 337 -345 94 -46 175 -64 299 -65 125 0 189 13 292 59
190 87 317 232 389 445 29 86 27 300 -4 400 -37 117 -85 195 -182 292 -73 74
-101 94 -181 132 -52 25 -125 51 -164 59 -68 14 -209 20 -250 11z m281 -39
c112 -29 201 -82 300 -180 96 -96 135 -157 176 -280 19 -59 23 -90 23 -200 0
-110 -4 -141 -23 -200 -36 -107 -81 -183 -152 -259 -163 -172 -374 -249 -595
-216 -439 66 -702 517 -540 925 37 93 84 163 161 238 100 99 230 166 364 187
70 11 211 4 286 -15z"/>
<path d="M683 1362 c-46 -26 -83 -53 -83 -61 0 -18 59 -121 69 -121 15 0 191
102 191 110 0 21 -66 120 -80 119 -8 0 -52 -21 -97 -47z m129 -20 l27 -48 -62
-36 c-114 -66 -103 -65 -133 -6 -15 29 -23 54 -18 55 5 2 41 21 79 43 39 22
72 40 75 40 3 0 17 -22 32 -48z"/>
<path d="M701 1321 c-24 -33 -26 -52 -9 -69 20 -20 43 -14 66 18 26 34 28 65
6 74 -29 11 -42 6 -63 -23z m59 -4 c0 -20 -30 -57 -46 -57 -18 0 -18 20 2 48
16 24 44 30 44 9z"/>
<path d="M907 1243 c-16 -15 -5 -49 25 -80 17 -18 29 -35 26 -38 -3 -3 -38
-13 -79 -21 -128 -27 -253 -8 -386 60 -106 53 -169 26 -236 -101 -53 -101 -67
-162 -67 -281 0 -85 5 -117 26 -180 77 -229 274 -382 514 -398 239 -16 458
111 567 331 58 115 69 292 28 423 -26 84 -88 189 -126 216 -30 20 -91 21 -130
0 -31 -16 -59 -13 -59 6 0 5 13 10 29 10 34 0 63 24 55 45 -5 12 -26 15 -93
15 -48 0 -91 -3 -94 -7z m169 -22 c-7 -11 -141 -25 -156 -16 -25 15 6 25 81
25 45 0 78 -4 75 -9z m-62 -81 c61 -85 45 -96 -23 -16 -32 37 -39 51 -29 57 7
5 14 9 15 9 0 0 17 -23 37 -50z m-508 -5 c132 -65 297 -81 427 -41 l47 15 22
-29 c24 -33 49 -38 68 -15 9 11 8 20 -9 44 l-22 30 30 16 c17 8 47 15 67 15
30 0 44 -7 74 -40 130 -140 158 -406 64 -593 -76 -149 -208 -256 -370 -297
-98 -25 -170 -25 -268 0 -187 47 -331 176 -395 351 -67 184 -29 414 90 541 46
49 80 50 175 3z"/>
<path d="M727 382 c-20 -22 -22 -75 -4 -90 27 -23 62 -23 85 -2 28 26 28 63 0
90 -27 25 -60 26 -81 2z m67 -18 c9 -8 16 -22 16 -29 0 -13 -26 -45 -36 -45
-39 0 -59 60 -26 79 23 14 28 14 46 -5z"/>
</g>
</svg>
