<?xml version="1.0" standalone="no"?>
<!DOCTYPE svg PUBLIC "-//W3C//DTD SVG 20010904//EN"
 "http://www.w3.org/TR/2001/REC-SVG-20010904/DTD/svg10.dtd">
<svg version="1.0" xmlns="http://www.w3.org/2000/svg"
 width="87.000000pt" height="149.000000pt" viewBox="0 0 87.000000 149.000000"
 preserveAspectRatio="xMidYMid meet">
<metadata>
Created by potrace 1.10, written by Peter Selinger 2001-2011
</metadata>
<g transform="translate(0.000000,149.000000) scale(0.100000,-0.100000)"
fill="#000000" stroke="none">
<path d="M100 705 l0 -625 340 0 340 0 0 625 0 625 -340 0 -340 0 0 -625z
m670 0 l0 -615 -325 0 -325 0 0 615 0 615 325 0 325 0 0 -615z"/>
<path d="M352 1271 c-89 -31 -166 -108 -191 -192 -7 -24 -11 -182 -11 -450 0
-387 1 -416 19 -445 34 -56 67 -64 278 -64 210 0 233 6 273 72 19 31 20 52 20
434 0 440 -3 463 -59 540 -40 54 -96 92 -162 110 -70 18 -103 17 -167 -5z
m216 -32 c67 -33 109 -79 135 -147 15 -37 17 -94 17 -462 l0 -420 -27 -30
c-40 -44 -77 -50 -268 -47 -188 3 -221 12 -250 67 -22 43 -22 792 0 867 52
173 232 253 393 172z"/>
<path d="M378 1151 c-44 -15 -92 -47 -116 -81 -50 -67 -52 -87 -52 -482 l0
-369 25 -24 c15 -16 36 -25 57 -25 18 -1 101 -1 183 0 146 1 151 1 175 26 l25
24 0 373 c0 289 -3 381 -14 411 -16 46 -71 109 -114 132 -38 19 -131 27 -169
15z m164 -27 c35 -18 74 -57 95 -97 16 -29 18 -72 21 -419 l3 -386 -22 -21
c-21 -20 -34 -21 -195 -21 -154 0 -174 2 -195 19 l-24 19 0 379 0 378 25 50
c27 54 85 102 141 115 42 10 115 2 151 -16z"/>
<path d="M422 951 c-18 -11 -12 -41 10 -55 14 -8 22 -7 35 7 29 29 -10 71 -45
48z m36 -24 c2 -12 -3 -17 -17 -17 -12 0 -21 6 -21 13 0 31 32 34 38 4z"/>
</g>
</svg>
