<?xml version="1.0" standalone="no"?>
<!DOCTYPE svg PUBLIC "-//W3C//DTD SVG 20010904//EN"
 "http://www.w3.org/TR/2001/REC-SVG-20010904/DTD/svg10.dtd">
<svg version="1.0" xmlns="http://www.w3.org/2000/svg"
 width="186.000000pt" height="90.000000pt" viewBox="0 0 186.000000 90.000000"
 preserveAspectRatio="xMidYMid meet">
<metadata>
Created by potrace 1.10, written by Peter Selinger 2001-2011
</metadata>
<g transform="translate(0.000000,90.000000) scale(0.100000,-0.100000)"
fill="#000000" stroke="none">
<path d="M80 445 l0 -310 850 0 850 0 0 310 0 310 -850 0 -850 0 0 -310z
m1540 248 c0 -31 -2 -32 -29 -27 -19 4 -38 1 -52 -9 -20 -15 -24 -14 -47 3
-24 19 -44 20 -556 20 -315 0 -537 -4 -546 -10 -43 -27 16 -30 553 -28 l547 3
0 -42 0 -43 -555 0 -555 0 0 46 c0 37 -3 45 -15 40 -8 -3 -20 1 -27 7 -20 20
-41 25 -66 16 -34 -13 -16 -32 24 -26 l34 6 0 -45 0 -44 -41 0 c-44 0 -50 -17
-12 -31 15 -6 29 -2 46 12 31 24 38 24 60 -1 16 -20 29 -20 551 -20 533 0 533
0 561 22 24 19 29 20 39 6 15 -21 38 -27 59 -16 28 14 19 28 -19 28 -35 0 -35
0 -32 41 3 40 4 42 41 44 l37 2 0 -93 0 -92 -31 11 c-26 10 -32 9 -43 -6 -16
-21 -39 -22 -56 -2 -11 13 -85 15 -555 15 -470 0 -544 -2 -555 -15 -16 -19
-46 -19 -54 0 -6 17 -51 20 -61 5 -19 -30 -25 2 -25 123 l0 132 690 0 690 0 0
-32z m-1428 18 l23 -9 -2 -208 c-1 -115 -2 -216 -2 -224 -1 -8 2 -31 5 -51 6
-35 5 -36 -31 -42 -73 -12 -72 -19 -67 315 3 215 3 217 25 221 12 2 23 5 24 6
1 0 12 -3 25 -8z m1550 -39 c1 -21 2 -140 0 -265 -3 -252 -1 -245 -68 -232
-34 6 -36 8 -29 38 3 18 6 44 5 60 -2 48 -3 121 -2 147 1 14 1 48 1 75 0 28 1
73 1 100 1 28 0 63 -2 79 -2 25 1 31 22 36 48 12 68 1 72 -38z m-1412 -247 c0
-22 -4 -25 -40 -25 -44 0 -54 -16 -15 -26 26 -6 37 -3 67 18 14 10 20 9 36 -5
17 -16 63 -17 557 -17 487 0 540 2 557 17 17 15 20 15 51 -2 27 -14 38 -15 55
-6 l22 12 0 -122 c0 -102 -2 -120 -14 -110 -10 8 -194 11 -690 9 l-676 -3 0
34 c0 28 3 32 18 25 24 -10 66 -8 70 5 5 16 49 13 56 -4 5 -13 74 -15 542 -15
490 0 538 1 565 17 24 14 33 15 49 5 23 -14 70 -16 70 -3 0 13 -25 20 -49 14
-17 -4 -21 -1 -21 21 0 23 4 26 36 26 24 0 34 4 32 13 -7 19 -48 20 -69 1 -18
-16 -20 -16 -40 2 -20 18 -46 19 -528 22 -514 3 -595 0 -588 -21 3 -9 140 -12
555 -12 l552 0 0 -25 0 -25 -555 0 -555 0 0 28 c0 23 -3 27 -19 22 -13 -4 -23
0 -29 10 -6 12 -19 16 -43 13 -44 -4 -39 -23 6 -23 31 0 35 -3 35 -25 0 -23
-4 -25 -45 -26 l-45 -1 0 104 0 103 45 0 c41 0 45 -2 45 -25z m1160 0 l0 -25
-555 0 -555 0 0 25 0 25 555 0 555 0 0 -25z m130 0 c0 -22 -4 -25 -40 -25 -36
0 -40 3 -40 25 0 23 4 25 40 25 36 0 40 -2 40 -25z"/>
<path d="M0 285 c0 -10 10 -15 30 -15 32 0 40 14 14 24 -27 10 -44 7 -44 -9z"/>
</g>
</svg>
