<?xml version="1.0" standalone="no"?>
<!DOCTYPE svg PUBLIC "-//W3C//DTD SVG 20010904//EN"
 "http://www.w3.org/TR/2001/REC-SVG-20010904/DTD/svg10.dtd">
<svg version="1.0" xmlns="http://www.w3.org/2000/svg"
 width="111.000000pt" height="100.000000pt" viewBox="0 0 111.000000 100.000000"
 preserveAspectRatio="xMidYMid meet">
<metadata>
Created by potrace 1.10, written by Peter Selinger 2001-2011
</metadata>
<g transform="translate(0.000000,100.000000) scale(0.100000,-0.100000)"
fill="#000000" stroke="none">
<path d="M882 889 c-34 -15 -65 -36 -69 -44 -4 -11 -8 -13 -13 -6 -9 15 -114
-39 -116 -60 -1 -7 -3 -25 -4 -39 l-2 -25 -10 28 c-12 34 -19 34 -60 -2 -27
-23 -40 -27 -68 -23 -19 2 -43 11 -53 20 -16 14 -19 14 -32 -4 -8 -10 -15 -14
-15 -7 0 6 4 15 10 18 18 11 11 21 -28 43 -30 17 -41 19 -51 9 -10 -9 -11 -8
-6 5 6 14 -5 23 -52 44 -51 23 -160 64 -170 64 -8 0 -1 -24 24 -77 14 -32 26
-63 27 -68 1 -6 10 -29 20 -53 18 -39 22 -42 60 -43 40 -1 40 -1 14 -12 -33
-13 -34 -20 -7 -58 18 -26 19 -33 9 -65 -7 -20 -9 -54 -6 -75 5 -28 2 -46 -11
-65 -14 -22 -14 -27 -2 -35 11 -7 9 -9 -7 -9 -17 0 -29 -18 -61 -87 -70 -152
-78 -188 -36 -164 10 6 39 20 66 31 26 10 47 24 47 30 0 6 4 9 10 5 13 -8 74
19 99 44 12 12 21 33 22 49 l1 27 10 -27 c8 -23 13 -26 28 -18 10 6 39 10 64
10 52 0 94 14 113 38 12 15 13 14 7 -9 -4 -22 0 -31 25 -48 17 -12 35 -19 41
-16 5 3 10 1 10 -4 0 -19 213 -111 226 -99 6 7 -27 101 -42 118 -7 8 -12 17
-11 20 1 3 -7 26 -17 53 -17 44 -20 47 -54 48 -34 0 -35 1 -14 11 31 15 28 30
-14 75 -31 33 -35 43 -31 75 3 20 0 41 -7 48 -8 9 -6 11 11 6 17 -5 27 1 47
27 29 38 32 53 14 60 -7 3 -4 6 8 6 16 1 30 21 62 89 56 120 72 161 64 165 -4
3 -35 -8 -70 -24z m-536 -79 c1 0 5 -21 6 -47 l4 -48 14 33 c16 36 19 37 45
18 17 -12 17 -17 5 -47 -7 -19 -16 -37 -19 -41 -4 -4 -54 40 -111 98 l-105
105 79 -35 c43 -20 80 -36 82 -36z m453 -39 c-56 -55 -103 -100 -104 -98 -1 1
1 26 3 55 4 49 6 54 43 72 48 25 47 25 41 -5 -7 -38 13 -30 32 14 11 23 30 44
49 53 18 9 34 14 36 12 2 -1 -43 -48 -100 -103z m-530 -2 l85 -89 -46 0 c-40
0 -50 4 -67 29 -26 37 -27 51 -1 44 31 -8 24 15 -10 32 -27 14 -72 77 -53 74
5 -1 46 -42 92 -90z m604 -5 c-37 -78 -39 -79 -78 -82 -55 -4 -66 -19 -27 -33
36 -12 40 -24 16 -50 -14 -16 -19 -16 -60 -2 -24 8 -44 18 -44 21 0 9 223 232
227 228 2 -2 -13 -39 -34 -82z m-207 -73 c12 -42 12 -42 -24 -76 -33 -31 -38
-33 -49 -18 -7 9 -16 32 -19 51 -6 31 -3 38 27 63 19 16 38 27 43 26 5 -2 15
-22 22 -46z m-171 -1 c16 -30 20 -77 9 -105 -6 -14 -14 -9 -50 26 l-43 42 27
33 c15 18 30 33 34 33 4 1 14 -12 23 -29z m59 -5 c-4 -8 -12 -15 -19 -15 -7 0
-15 7 -19 15 -4 11 1 15 19 15 18 0 23 -4 19 -15z m-87 -137 c-6 -4 -28 -8
-47 -8 l-35 1 28 20 c39 30 24 41 -29 21 l-46 -17 -30 34 -31 34 44 17 44 17
57 -56 c40 -38 54 -57 45 -63z m105 -5 c-13 -13 -25 -23 -27 -23 -8 0 -17 70
-11 86 5 14 11 12 34 -12 l27 -29 -23 -22z m127 28 c19 -15 31 -33 28 -38 -11
-18 -73 -43 -105 -43 -63 0 -65 9 -14 61 26 27 49 49 52 49 3 0 20 -13 39 -29z
m-363 -75 c-1 -45 -4 -54 -18 -53 -13 1 -18 10 -18 32 0 44 11 75 25 75 9 0
12 -17 11 -54z m172 16 c22 -7 20 -9 -27 -56 l-50 -49 -35 27 c-42 32 -43 37
-14 55 43 27 84 34 126 23z m46 -96 l-7 -31 -15 23 c-8 12 -21 22 -28 22 -11
0 -10 -11 6 -50 l19 -49 -42 -36 -42 -36 -16 48 -17 48 66 68 c62 63 67 66 75
45 4 -12 5 -36 1 -52z m111 39 c-39 -32 -28 -39 30 -18 l47 18 29 -34 29 -35
-45 -17 -44 -17 -56 53 c-30 29 -55 55 -55 58 0 5 33 11 80 15 8 1 2 -9 -15
-23z m-23 -121 c-15 -18 -31 -31 -37 -30 -26 7 -45 89 -29 131 6 14 14 9 50
-26 l43 -42 -27 -33z m-265 73 l43 -13 -120 -119 c-66 -66 -120 -116 -120
-112 0 4 18 43 40 87 l40 80 45 0 c52 0 59 13 15 29 -33 11 -35 14 -20 42 12
22 21 23 77 6z m499 -254 c-2 -2 -36 10 -75 28 -70 31 -71 32 -71 70 0 44 -16
52 -26 13 -7 -27 -30 -29 -46 -4 -6 10 -4 28 7 54 l17 39 98 -98 c55 -55 98
-101 96 -102z m-483 128 c-5 -45 -11 -56 -37 -72 -39 -24 -46 -24 -46 1 0 30
-13 24 -36 -18 -14 -23 -34 -42 -55 -50 -28 -10 -17 5 71 93 57 57 105 103
107 102 1 -2 0 -27 -4 -56z m415 53 c12 -4 29 -19 37 -35 20 -37 19 -42 -5
-34 -31 10 -24 -13 10 -30 30 -15 54 -48 48 -65 -2 -5 -42 31 -90 80 -87 90
-87 90 -55 90 18 0 42 -3 55 -6z m-225 -38 c7 -17 -13 -26 -56 -26 l-32 1 24
19 c27 23 57 26 64 6z"/>
</g>
</svg>
