<?xml version="1.0" standalone="no"?>
<!DOCTYPE svg PUBLIC "-//W3C//DTD SVG 20010904//EN"
 "http://www.w3.org/TR/2001/REC-SVG-20010904/DTD/svg10.dtd">
<svg version="1.0" xmlns="http://www.w3.org/2000/svg"
 width="110.000000pt" height="103.000000pt" viewBox="0 0 110.000000 103.000000"
 preserveAspectRatio="xMidYMid meet">
<metadata>
Created by potrace 1.10, written by Peter Selinger 2001-2011
</metadata>
<g transform="translate(0.000000,103.000000) scale(0.100000,-0.100000)"
fill="#000000" stroke="none">
<path d="M543 944 c-24 -25 -43 -51 -43 -58 0 -7 -9 -23 -20 -36 -16 -18 -23
-20 -34 -11 -15 12 -36 18 -97 28 -36 5 -36 5 -42 -35 -4 -22 -4 -54 -1 -71 6
-30 5 -31 -26 -31 -30 0 -32 -2 -25 -27 4 -16 7 -37 7 -48 -1 -11 5 -26 12
-35 26 -29 23 -54 -9 -78 -16 -12 -38 -25 -47 -28 -10 -4 -18 -11 -18 -16 0
-6 -22 -35 -50 -65 -28 -30 -50 -60 -50 -68 0 -7 13 -18 30 -25 16 -7 35 -18
41 -26 6 -8 26 -14 45 -14 18 0 36 -4 39 -10 3 -5 18 -10 32 -10 23 0 25 -3
19 -31 -3 -18 -1 -61 5 -96 11 -63 12 -64 38 -58 14 4 31 8 38 9 7 1 20 10 31
19 10 9 24 17 30 17 6 0 16 9 22 21 11 19 13 18 41 -25 16 -25 32 -46 36 -46
5 0 30 22 56 50 37 38 52 48 65 41 9 -5 49 -19 87 -31 39 -13 76 -25 83 -28 8
-3 12 7 12 31 0 20 5 47 11 60 8 18 8 30 0 45 -6 11 -8 34 -5 52 5 24 13 32
35 37 16 3 29 8 29 12 0 4 20 17 45 31 25 14 45 29 45 35 0 14 -63 75 -77 75
-6 0 -16 6 -22 14 -9 10 -2 30 29 89 23 43 36 79 30 82 -9 5 -107 29 -171 42
-15 3 -36 0 -48 -6 -19 -11 -21 -9 -21 22 0 18 -7 42 -15 53 -8 10 -15 24 -15
31 0 9 -109 164 -114 163 0 -1 -20 -21 -43 -46z m31 -213 c-8 -228 -11 -239
-56 -181 -13 17 -34 44 -47 61 -13 16 -21 32 -18 35 3 4 1 17 -4 31 -7 20 -5
33 11 60 11 19 20 47 20 63 0 16 7 33 15 38 9 4 17 18 20 30 4 20 56 83 63 77
2 -2 0 -98 -4 -214z m61 163 c17 -25 33 -51 36 -57 30 -57 37 -80 43 -134 l7
-61 -47 -54 c-49 -55 -63 -68 -77 -68 -5 0 -7 94 -5 210 1 115 5 210 8 210 3
-1 19 -21 35 -46z m-202 -72 c29 -18 34 -39 15 -64 -11 -14 -19 -9 -63 39
l-49 55 34 -7 c19 -4 47 -15 63 -23z m-54 -43 l44 -49 -45 0 c-45 0 -45 1 -52
38 -12 78 -8 79 53 11z m44 -79 c5 -4 9 -23 9 -41 0 -22 10 -44 27 -63 42 -46
-6 -15 -54 34 -21 23 -56 50 -77 61 -21 11 -38 21 -38 22 0 7 125 -6 133 -13z
m452 -11 c33 -6 61 -12 63 -14 2 -1 -14 -9 -35 -15 -21 -7 -79 -35 -129 -61
-50 -27 -94 -49 -99 -49 -4 0 9 18 30 41 30 34 36 47 33 74 -2 19 -1 32 2 30
3 -2 12 0 20 5 7 4 23 6 34 4 12 -3 48 -9 81 -15z m-535 -29 c25 -16 56 -40
68 -53 l23 -24 -28 0 c-15 0 -43 -3 -60 -8 -30 -7 -33 -6 -33 17 0 13 -5 29
-10 34 -13 13 -23 64 -14 64 4 0 28 -13 54 -30z m600 -16 c0 -3 -11 -22 -25
-42 -14 -20 -25 -40 -25 -44 0 -11 -53 -65 -78 -77 -20 -11 -26 -9 -43 13 -11
15 -25 24 -30 21 -5 -3 -18 -1 -30 5 -18 10 -9 18 97 71 113 57 134 65 134 53z
m-488 -99 c20 -14 41 -25 46 -25 5 0 19 -11 32 -24 l23 -25 -24 -6 c-13 -3
-98 -21 -189 -40 -91 -19 -176 -37 -190 -41 -21 -6 -18 1 25 47 68 73 110 109
128 109 8 0 30 7 48 15 47 20 59 19 101 -10z m233 -35 c3 -5 16 -10 29 -10 34
0 88 -61 93 -107 2 -20 11 -45 19 -54 10 -11 13 -26 8 -43 -3 -14 -2 -32 4
-39 5 -7 7 -32 3 -57 l-6 -45 -113 168 c-61 92 -112 171 -112 176 0 18 65 27
75 11z m221 -15 c4 -8 12 -15 19 -15 6 0 20 -9 30 -20 18 -20 17 -20 -26 -20
-24 0 -61 3 -82 6 l-38 7 31 18 c16 10 30 23 30 29 0 16 30 12 36 -5z m-259
-97 c36 -57 91 -136 120 -176 57 -77 54 -83 -19 -46 -15 8 -36 14 -46 14 -11
0 -25 7 -32 15 -7 8 -17 15 -23 15 -12 0 -93 84 -109 113 -7 14 -5 24 9 39 13
14 18 36 18 74 0 30 4 54 8 54 4 0 37 -46 74 -102z m-97 26 c-14 -36 -82 -113
-100 -114 -9 0 -21 -5 -26 -10 -7 -7 -35 -7 -85 0 -125 16 -143 21 -171 44
l-28 22 198 41 c243 50 224 49 212 17z m364 -4 c31 0 46 -4 40 -9 -18 -18
-109 -60 -115 -53 -4 4 -9 22 -13 41 -6 31 -4 33 17 27 12 -3 44 -6 71 -6z
m-381 -118 c10 -12 16 -172 7 -172 -9 1 -70 102 -70 116 0 7 -4 16 -10 19 -15
9 -12 25 5 25 8 0 22 12 32 26 12 19 18 22 21 13 3 -8 9 -20 15 -27z m-141
-32 c14 0 12 -10 -15 -70 -17 -38 -34 -70 -38 -70 -9 0 -18 90 -12 123 5 23
10 28 27 23 11 -3 29 -6 38 -6z m58 -34 c0 -12 5 -27 11 -33 8 -8 6 -15 -7
-27 -11 -9 -29 -25 -41 -36 -22 -19 -59 -28 -51 -12 65 137 88 166 88 108z
m145 -73 l-35 -36 0 73 0 74 35 -38 34 -38 -34 -35z"/>
</g>
</svg>
