<?xml version="1.0" standalone="no"?>
<!DOCTYPE svg PUBLIC "-//W3C//DTD SVG 20010904//EN"
 "http://www.w3.org/TR/2001/REC-SVG-20010904/DTD/svg10.dtd">
<svg version="1.0" xmlns="http://www.w3.org/2000/svg"
 width="112.000000pt" height="101.000000pt" viewBox="0 0 112.000000 101.000000"
 preserveAspectRatio="xMidYMid meet">
<metadata>
Created by potrace 1.10, written by Peter Selinger 2001-2011
</metadata>
<g transform="translate(0.000000,101.000000) scale(0.100000,-0.100000)"
fill="#000000" stroke="none">
<path d="M508 925 c-9 -21 -8 -36 6 -80 9 -30 21 -55 26 -55 11 0 33 98 29
130 -6 36 -45 40 -61 5z m42 -40 c0 -25 -4 -45 -10 -45 -11 0 -24 65 -15 79
14 24 25 9 25 -34z"/>
<path d="M587 842 c-19 -21 -43 -160 -30 -173 11 -11 66 62 89 116 25 60 -18
102 -59 57z m46 -14 c4 -12 -28 -83 -53 -118 -12 -17 -5 42 12 98 10 32 32 43
41 20z"/>
<path d="M447 800 c-5 -19 12 -59 47 -112 19 -30 9 -37 -23 -16 -23 14 -51 4
-58 -21 -5 -19 -34 -38 -68 -43 -12 -2 -22 -13 -25 -28 -3 -14 -13 -41 -24
-60 -10 -19 -21 -62 -24 -97 -4 -52 -8 -62 -25 -65 -11 -2 -25 -10 -30 -20
-17 -25 9 -48 54 -48 29 0 39 -5 44 -20 8 -26 -11 -60 -34 -60 -25 0 -108 -65
-116 -91 -5 -13 -1 -27 9 -37 23 -23 63 -1 82 46 30 74 33 79 27 42 -8 -59 49
-81 63 -25 4 17 11 21 26 17 13 -3 24 1 29 11 8 13 15 14 40 5 17 -6 60 -8 95
-5 47 3 66 1 75 -9 14 -17 55 -18 66 -1 4 6 10 30 14 52 4 32 7 36 13 20 25
-71 55 -93 75 -56 13 24 0 65 -31 98 -27 29 -19 38 18 18 55 -28 139 -10 139
30 0 33 -40 45 -94 29 -25 -7 -49 -14 -53 -14 -16 0 -7 30 12 40 25 13 26 54
2 72 -29 21 -34 46 -11 59 14 7 19 18 17 37 -3 24 -8 27 -40 28 -20 0 -43 6
-51 13 -13 10 -13 15 0 42 13 27 13 32 -2 55 -21 33 -53 28 -80 -11 -15 -23
-26 -29 -46 -27 -30 3 -39 23 -39 84 0 52 -18 88 -45 88 -14 0 -25 -8 -28 -20z
m52 -44 c6 -22 9 -42 6 -44 -7 -8 -46 79 -39 89 9 15 21 0 33 -45z m170 -80
c10 -11 9 -21 -3 -43 -13 -26 -86 -103 -86 -92 0 11 33 115 41 132 12 21 32
22 48 3z m-185 -49 c24 -31 50 -116 40 -127 -13 -13 -98 124 -90 145 8 23 23
18 50 -18z m80 7 c9 -3 16 -9 16 -13 0 -10 -69 -1 -76 10 -6 10 36 12 60 3z
m2 -85 c-4 -27 -3 -49 1 -49 4 0 21 14 38 30 26 26 34 28 43 17 9 -11 6 -19
-13 -37 -35 -33 -32 -38 20 -32 27 3 45 1 45 -6 0 -14 -22 -21 -86 -28 -87
-11 -80 -32 21 -58 32 -9 60 -18 63 -20 9 -10 -8 -37 -20 -30 -8 5 -9 0 -6
-14 8 -30 -6 -28 -22 3 -16 31 -57 59 -65 45 -3 -5 -1 -18 5 -29 5 -11 10 -38
10 -60 0 -44 -18 -61 -64 -61 l-26 0 0 91 c0 71 -4 94 -17 107 -21 21 -134 72
-145 66 -12 -8 -9 21 3 33 9 9 24 5 59 -15 27 -15 52 -24 56 -19 4 4 -7 27
-24 52 -17 25 -26 45 -19 45 11 -1 61 -68 86 -117 7 -13 16 -23 21 -23 13 0
13 120 1 140 -13 20 -5 29 20 23 19 -5 21 -11 15 -54z m-160 6 c15 -20 25 -37
23 -39 -6 -7 -82 48 -87 62 -9 27 38 10 64 -23z m354 -10 c0 -17 -31 -35 -77
-46 -43 -9 -42 2 4 34 42 30 73 35 73 12z m-435 -42 c-10 -21 -20 -33 -22 -26
-5 14 26 77 34 69 3 -3 -2 -22 -12 -43z m75 -55 c53 -22 53 -22 24 -30 -59
-17 -128 11 -108 43 8 14 26 11 84 -13z m365 -34 c0 -17 -7 -19 -67 -18 -36 1
-74 6 -84 12 -14 8 -5 13 47 24 71 16 104 11 104 -18z m-275 -6 c0 -2 -11 -25
-25 -52 -14 -27 -25 -64 -25 -83 0 -18 -4 -33 -10 -33 -5 0 -10 10 -10 23 0
57 -22 87 -35 46 -4 -11 -12 -18 -18 -16 -21 7 -16 22 13 39 43 24 37 38 -15
38 -35 0 -45 4 -45 16 0 13 7 15 33 10 17 -3 48 -1 67 3 35 9 70 13 70 9z m1
-115 c2 -68 -4 -85 -27 -76 -12 4 -14 14 -9 42 7 40 27 102 32 98 1 -2 3 -31
4 -64z m-136 43 c-37 -25 -92 -36 -112 -21 -17 13 -17 14 7 24 14 5 47 10 75
10 45 1 48 0 30 -13z m290 -33 c37 -56 31 -145 -9 -130 -12 5 -16 21 -16 71 0
35 -3 71 -6 80 -11 28 4 17 31 -21z m238 30 c4 -3 2 -12 -4 -20 -14 -16 -73
-17 -102 -1 -22 12 -21 12 8 19 41 9 90 10 98 2z m-492 -146 c-24 -24 -31 8
-13 63 l17 55 3 -54 c2 -30 -2 -59 -7 -64z m355 63 c24 -36 27 -70 6 -70 -5 0
-18 25 -29 55 -24 65 -14 71 23 15z m-424 -112 c-5 -5 -13 -4 -19 4 -8 9 -6
24 6 53 l16 40 3 -44 c2 -24 -1 -48 -6 -53z m123 72 c8 -13 96 -13 129 0 14 5
26 6 26 1 0 -14 -28 -21 -83 -21 -60 0 -97 8 -97 21 0 12 17 11 25 -1z m-205
-69 c-23 -47 -37 -58 -53 -41 -9 8 -3 19 25 46 21 19 40 34 43 34 3 0 -4 -18
-15 -39z"/>
<path d="M528 323 c-3 -27 -1 -56 4 -66 12 -24 52 -18 57 8 3 19 -37 105 -50
105 -4 0 -9 -21 -11 -47z m52 -55 c0 -5 -8 -8 -17 -6 -12 2 -19 14 -21 33 l-2
30 20 -24 c11 -13 20 -28 20 -33z"/>
<path d="M863 277 c-51 -12 -54 -21 -12 -36 43 -15 81 -14 104 3 16 12 17 16
6 30 -15 18 -36 19 -98 3z m87 -12 c0 -12 -43 -25 -67 -19 -25 7 -25 8 -8 15
22 8 75 12 75 4z"/>
<path d="M178 269 c-26 -15 -23 -57 6 -70 18 -8 30 -7 52 4 40 21 76 56 69 68
-8 12 -105 11 -127 -2z m102 -9 c0 -14 -62 -51 -80 -47 -8 1 -15 11 -15 22 0
14 9 22 30 26 47 10 65 10 65 -1z"/>
<path d="M780 253 c0 -5 15 -35 34 -68 28 -52 37 -60 62 -60 58 0 37 64 -36
110 -40 25 -60 31 -60 18z m78 -52 c32 -30 43 -61 21 -61 -13 0 -32 22 -54 63
-20 35 -8 34 33 -2z"/>
<path d="M890 214 c1 -18 74 -64 102 -64 34 0 47 25 25 47 -17 17 -127 32
-127 17z m111 -30 c18 -22 -34 -18 -61 4 l-23 18 36 -4 c20 -2 42 -10 48 -18z"/>
</g>
</svg>
