<?xml version="1.0" standalone="no"?>
<!DOCTYPE svg PUBLIC "-//W3C//DTD SVG 20010904//EN"
 "http://www.w3.org/TR/2001/REC-SVG-20010904/DTD/svg10.dtd">
<svg version="1.0" xmlns="http://www.w3.org/2000/svg"
 width="147.000000pt" height="300.000000pt" viewBox="0 0 147.000000 300.000000"
 preserveAspectRatio="xMidYMid meet">
<metadata>
Created by potrace 1.10, written by Peter Selinger 2001-2011
</metadata>
<g transform="translate(0.000000,300.000000) scale(0.100000,-0.100000)"
fill="#000000" stroke="none">
<path d="M635 2914 c-16 -2 -84 -11 -150 -20 -152 -19 -219 -38 -242 -68 -24
-29 -60 -203 -46 -217 7 -7 5 -29 -4 -67 -17 -69 -20 -260 -5 -322 7 -25 12
-109 12 -187 l0 -141 -34 -12 c-35 -11 -69 -60 -41 -60 7 0 26 5 41 10 15 6
28 9 29 8 2 -2 -1 -203 -5 -448 -7 -349 -12 -464 -25 -535 -19 -100 -16 -221
9 -313 8 -29 12 -68 9 -85 -9 -60 15 -357 31 -382 31 -47 64 -50 466 -50 439
1 518 9 563 54 30 30 31 30 42 203 7 95 10 179 7 186 -2 6 3 51 13 98 12 61
15 113 12 182 -21 375 -26 512 -26 780 -1 181 3 302 8 302 5 0 22 -5 37 -10
32 -13 38 -8 29 19 -3 12 -22 28 -41 36 l-35 15 4 157 c2 87 10 197 17 245 12
77 11 99 -4 193 -12 77 -14 110 -6 119 7 10 6 34 -6 87 -30 138 -44 154 -154
177 -152 32 -428 57 -505 46z m300 -29 c212 -32 278 -47 300 -69 21 -21 65
-189 52 -202 -3 -3 -11 21 -17 53 -18 86 -39 132 -69 147 -41 21 -204 53 -337
67 -134 13 -278 3 -441 -30 -144 -30 -156 -37 -181 -115 -12 -37 -22 -75 -22
-86 0 -10 -4 -21 -9 -24 -5 -4 -3 22 5 56 26 119 34 137 62 152 22 11 149 36
302 59 64 10 265 5 355 -8z m-104 -23 c4 -4 19 -128 34 -277 14 -148 29 -301
33 -339 4 -41 12 -71 20 -74 18 -5 15 23 -27 373 -21 171 -36 313 -35 316 6
12 285 -33 314 -51 15 -9 28 -188 37 -494 l6 -248 -41 27 c-77 51 -128 57
-467 59 -336 1 -338 1 -404 -58 l-24 -21 7 175 c3 96 11 262 18 367 l11 193
36 10 c31 9 154 29 259 43 l33 4 -6 -66 c-6 -59 -35 -295 -66 -534 -11 -84 -8
-111 10 -91 7 7 81 633 81 681 0 6 12 14 28 16 35 6 135 -1 143 -11z m-556
-228 c-20 -210 -35 -477 -35 -614 0 -81 -3 -110 -12 -110 -10 0 -12 27 -11
107 2 60 4 225 7 368 2 195 7 273 19 310 21 71 37 109 43 103 2 -3 -2 -77 -11
-164z m974 57 c19 -81 21 -120 21 -440 0 -193 -4 -351 -8 -351 -5 0 -12 120
-15 268 -6 247 -29 570 -44 617 -5 17 -4 18 10 7 9 -7 25 -53 36 -101z m-1047
-321 l-9 -105 -1 95 c-1 52 1 106 5 120 12 43 14 1 5 -110z m1095 -57 c-2 -32
-3 -6 -3 57 0 63 1 89 3 58 2 -32 2 -84 0 -115z m-64 -91 c3 -116 2 -190 -4
-187 -5 4 -9 92 -9 197 0 105 2 189 4 187 2 -2 6 -91 9 -197z m-973 -163 c-8
-19 -9 -13 -5 31 3 30 6 100 7 155 2 94 3 92 5 -31 2 -77 -1 -141 -7 -155z
m770 71 c79 -14 157 -55 182 -95 27 -46 22 -90 -26 -213 l-45 -112 -1 -491 0
-491 37 -111 c34 -102 37 -121 35 -207 -2 -52 -6 -126 -11 -165 -6 -49 -7 -21
-3 93 3 111 2 162 -5 162 -6 0 -14 22 -18 50 -8 60 -72 196 -108 229 -33 30
-116 40 -347 41 -206 0 -283 -10 -318 -42 -56 -52 -128 -251 -102 -283 9 -11
7 -12 -9 -8 -19 5 -20 -1 -24 -73 -2 -47 -3 -38 -2 21 2 84 9 117 39 209 l36
110 0 480 0 479 -46 134 -46 134 16 44 c19 49 83 98 151 114 53 12 533 6 615
-9z m-756 -257 c5 -16 3 -23 -6 -23 -9 0 -14 13 -15 37 -1 37 7 32 21 -14z
m-36 5 c-4 -11 -89 -41 -96 -33 -5 5 70 44 86 45 8 0 12 -5 10 -12z m1084 -19
c31 -17 14 -22 -31 -8 -23 7 -41 18 -41 25 0 14 25 8 72 -17z m-1086 -61 c-3
-29 -6 -169 -6 -310 0 -203 -3 -258 -13 -258 -10 0 -12 61 -9 298 2 163 5 303
7 310 3 6 10 12 16 12 8 0 10 -15 5 -52z m1037 -70 c4 -66 7 -206 7 -310 0
-160 -2 -188 -15 -188 -13 0 -15 41 -15 310 0 315 12 409 23 188z m-1013 -183
c-1 -168 -5 -297 -11 -300 -5 -4 -9 48 -9 128 0 154 11 467 17 467 2 0 3 -133
3 -295z m977 -157 c-1 -84 -3 -16 -3 152 0 168 2 236 3 153 2 -84 2 -222 0
-305z m-928 370 c19 -64 21 -97 21 -280 l0 -207 -30 17 -30 17 0 263 c0 144 4
262 9 262 4 0 18 -33 30 -72z m908 -125 c-4 -108 -7 -227 -7 -264 0 -65 -2
-69 -27 -83 l-28 -14 3 212 c2 182 5 220 23 279 36 112 43 87 36 -130z m-887
-394 c0 -15 -4 -16 -30 -6 -22 8 -30 18 -30 35 0 23 0 23 30 5 17 -9 30 -25
30 -34z m886 35 c-3 -9 -6 -19 -6 -23 0 -7 -43 -31 -55 -31 -15 0 -1 27 23 47
32 26 46 29 38 7z m-966 -210 c0 -87 -3 -160 -5 -163 -3 -2 -5 71 -5 164 0 93
3 166 6 162 3 -3 5 -77 4 -163z m55 154 c27 -12 36 -44 9 -34 -9 3 -22 6 -30
6 -8 0 -14 9 -14 20 0 23 1 24 35 8z m915 -12 c0 -13 -29 -26 -57 -26 -22 0
-14 19 14 34 30 15 43 13 43 -8z m-990 -203 c0 -387 27 -860 50 -888 20 -24 2
-31 -21 -9 -41 41 -72 472 -62 870 5 194 9 244 20 244 10 0 13 -42 13 -217z
m1007 -40 c-1 -49 -3 -9 -3 87 0 96 2 136 3 88 2 -49 2 -127 0 -175z m40 -142
c-4 -298 -10 -421 -25 -538 -19 -149 -30 -183 -58 -183 -12 0 -12 3 0 23 24
38 55 539 56 894 0 182 2 202 16 196 15 -5 16 -43 11 -392z m-973 349 l26 -10
0 -190 c0 -113 -4 -196 -10 -203 -6 -7 -19 -23 -30 -37 l-19 -25 -1 238 c0
130 2 237 4 237 3 0 16 -4 30 -10z m913 -112 c-4 -62 -7 -169 -7 -237 0 -108
-2 -122 -15 -111 -39 32 -45 68 -45 261 0 199 0 197 49 198 l24 1 -6 -112z
m-960 -320 c-2 -24 -4 -5 -4 42 0 47 2 66 4 43 2 -24 2 -62 0 -85z m-80 -75
c-2 -37 -3 -9 -3 62 0 72 1 102 3 68 2 -34 2 -93 0 -130z m1050 70 c-2 -21 -4
-6 -4 32 0 39 2 55 4 38 2 -18 2 -50 0 -70z m-206 45 c25 -11 44 -31 63 -64
33 -59 69 -162 62 -179 -2 -7 -37 -21 -78 -31 -62 -16 -114 -18 -358 -18 -274
0 -400 11 -400 34 0 22 43 143 65 182 53 95 65 98 380 94 181 -2 238 -6 266
-18z m284 -126 c-4 -41 -9 -71 -12 -68 -3 3 -2 54 3 113 5 65 10 92 12 68 2
-22 1 -73 -3 -113z m-1014 -8 c-16 -49 -31 -98 -34 -109 -3 -11 -5 15 -6 58
-1 63 2 77 14 77 9 0 23 16 32 35 28 58 25 33 -6 -61z m925 16 c9 0 14 -10 13
-27 0 -37 -16 -113 -18 -88 -1 11 -15 58 -31 105 -36 103 -36 106 -4 53 14
-24 32 -43 40 -43z m-34 -291 c-1 -68 -6 -153 -10 -189 l-7 -65 -90 -8 c-122
-11 -558 -13 -676 -3 l-97 8 -6 51 c-3 29 -9 112 -12 185 l-7 133 29 -13 c41
-17 651 -24 754 -8 112 17 124 21 108 32 -10 8 -10 9 2 5 12 -3 15 -25 12
-128z m-439 94 c-18 -2 -48 -2 -65 0 -18 2 -4 4 32 4 36 0 50 -2 33 -4z m-496
-365 c16 -15 41 -22 104 -29 189 -20 785 -5 854 21 28 11 37 24 46 70 l7 35 1
-38 c1 -30 -5 -45 -27 -66 -32 -33 -53 -36 -354 -51 -209 -11 -583 1 -619 20
-32 18 -49 53 -48 100 l2 45 6 -43 c4 -24 17 -52 28 -64z m333 -18 c108 -8 99
-8 -70 -4 -107 3 -199 9 -204 14 -6 6 20 8 70 4 43 -3 135 -10 204 -14z m530
10 c-30 -5 -120 -11 -200 -13 -80 -3 -129 -3 -110 -1 49 6 277 21 325 21 34 0
31 -1 -15 -7z"/>
<path d="M714 2845 c-9 -22 4 -35 37 -35 24 0 29 4 29 25 0 21 -5 25 -30 25
-18 0 -33 -6 -36 -15z m56 -10 c0 -8 -9 -15 -20 -15 -11 0 -20 7 -20 15 0 8 9
15 20 15 11 0 20 -7 20 -15z"/>
<path d="M480 2110 c-82 -12 -188 -62 -196 -94 -8 -32 51 -245 74 -268 16 -16
43 -19 228 -25 235 -7 510 9 532 31 18 18 73 224 70 261 -3 35 -35 54 -133 81
-70 19 -467 29 -575 14z m494 -30 c78 -13 156 -36 180 -53 19 -14 18 -17 -8
-125 -16 -61 -33 -118 -40 -126 -16 -21 -193 -36 -425 -35 -188 1 -304 8 -316
21 -10 10 -62 232 -58 245 7 18 101 62 153 72 62 12 442 13 514 1z"/>
</g>
</svg>
