<?xml version="1.0" standalone="no"?>
<!DOCTYPE svg PUBLIC "-//W3C//DTD SVG 20010904//EN"
 "http://www.w3.org/TR/2001/REC-SVG-20010904/DTD/svg10.dtd">
<svg version="1.0" xmlns="http://www.w3.org/2000/svg"
 width="190.000000pt" height="137.000000pt" viewBox="0 0 190.000000 137.000000"
 preserveAspectRatio="xMidYMid meet">
<metadata>
Created by potrace 1.10, written by Peter Selinger 2001-2011
</metadata>
<g transform="translate(0.000000,137.000000) scale(0.100000,-0.100000)"
fill="#000000" stroke="none">
<path d="M745 1180 c-4 -6 -5 -54 -4 -108 l3 -97 -112 -3 -112 -3 0 -119 0
-120 -155 0 -155 0 0 -305 0 -305 470 0 470 0 0 110 0 110 115 0 115 0 0 120
0 120 155 0 155 0 0 305 0 305 -469 0 c-313 0 -472 -3 -476 -10z m925 -295 l0
-285 -262 2 -263 3 258 2 257 3 0 275 0 275 -440 0 c-242 0 -440 -3 -440 -7 0
-5 196 -7 435 -5 l435 2 0 -265 0 -265 -250 0 -250 0 0 55 0 55 -195 0 -195 0
0 220 0 220 455 0 455 0 0 -285z m-930 -40 l0 -115 -105 0 -105 0 0 108 c0 60
3 112 7 115 3 4 51 7 105 7 l98 0 0 -115z m390 -185 c0 -27 1 -113 1 -190 0
-77 -1 -183 -1 -235 l0 -95 -450 0 -450 0 0 285 0 285 450 0 450 0 0 -50z
m228 -191 l-3 -111 -100 -1 -100 -1 -3 112 -3 112 106 0 106 0 -3 -111z"/>
<path d="M784 950 c0 -102 2 -143 3 -92 2 50 2 134 0 185 -1 50 -3 9 -3 -93z"/>
<path d="M552 843 l2 -98 3 93 4 92 79 0 79 0 4 -97 3 -98 2 103 2 102 -90 0
-90 0 2 -97z"/>
<path d="M591 750 c27 -8 108 -5 117 5 3 3 -28 5 -69 4 -53 0 -66 -3 -48 -9z"/>
<path d="M240 425 l0 -275 440 0 440 0 0 275 0 275 -440 0 -440 0 0 -275z
m870 0 l0 -265 -430 0 -430 0 0 265 0 265 430 0 430 0 0 -265z"/>
<path d="M1238 563 c18 -2 45 -2 60 0 15 2 0 4 -33 4 -33 0 -45 -2 -27 -4z"/>
<path d="M1172 468 l-2 -98 90 0 90 0 -2 98 -2 97 -3 -92 -4 -93 -79 0 -79 0
-4 93 -3 92 -2 -97z"/>
</g>
</svg>
