<?xml version="1.0" standalone="no"?>
<!DOCTYPE svg PUBLIC "-//W3C//DTD SVG 20010904//EN"
 "http://www.w3.org/TR/2001/REC-SVG-20010904/DTD/svg10.dtd">
<svg version="1.0" xmlns="http://www.w3.org/2000/svg"
 width="300.000000pt" height="310.000000pt" viewBox="0 0 300.000000 310.000000"
 preserveAspectRatio="xMidYMid meet">
<metadata>
Created by potrace 1.10, written by Peter Selinger 2001-2011
</metadata>
<g transform="translate(0.000000,310.000000) scale(0.100000,-0.100000)"
fill="#000000" stroke="none">
<path d="M1340 2874 c-461 -26 -457 -26 -759 -65 -179 -24 -189 -27 -224 -68
-53 -63 -40 -151 27 -192 41 -25 66 -24 240 11 82 17 152 30 156 28 8 -3 120
-155 120 -163 0 -2 -24 -1 -53 2 -109 11 -220 -45 -258 -132 -21 -47 -19 -33
-114 -1320 -8 -116 -20 -264 -25 -330 -5 -66 -12 -175 -16 -242 -6 -112 -5
-124 16 -167 29 -61 81 -103 144 -116 35 -8 327 -10 941 -8 l890 3 49 24 c53
26 99 87 110 145 4 19 -5 180 -19 358 -14 177 -30 382 -35 453 -5 72 -12 155
-15 185 -3 30 -10 116 -15 190 -6 74 -17 223 -25 330 -9 107 -20 252 -25 322
-11 145 -30 200 -89 249 -42 35 -123 61 -159 52 -30 -7 -29 -7 28 85 25 39 52
71 61 72 8 0 58 -10 110 -21 190 -43 245 -34 283 45 31 67 -3 151 -71 177 -54
20 -398 63 -633 79 -168 11 -545 19 -640 14z m595 -39 c343 -24 652 -64 690
-89 47 -31 57 -123 17 -159 -41 -37 -66 -38 -215 -7 -364 75 -544 93 -917 93
-373 0 -553 -18 -918 -93 -129 -27 -146 -28 -176 -16 -62 26 -82 85 -51 146
24 47 72 58 450 100 342 39 788 49 1120 25z m-525 -297 l0 -113 -155 0 -155 0
0 107 0 107 88 4 c48 1 117 4 155 5 l67 2 0 -112z m190 0 l0 -113 -82 1 -81 1
-1 112 -1 111 83 0 82 0 0 -112z m308 96 l32 -5 0 -102 0 -102 -155 0 -155 0
0 113 0 114 123 -7 c67 -3 137 -8 155 -11z m-838 -106 l0 -103 -67 2 -68 1
-62 85 -62 85 107 15 c170 23 152 34 152 -85z m1069 77 c57 -8 106 -17 108
-18 2 -2 -17 -34 -42 -72 -24 -37 -46 -72 -47 -77 -2 -5 -45 -10 -96 -11 l-92
-2 0 103 0 103 33 -6 c17 -3 79 -12 136 -20z m156 -224 c53 -24 99 -77 113
-132 6 -24 21 -172 32 -329 12 -157 28 -364 35 -460 8 -96 19 -231 24 -300 5
-69 22 -285 37 -480 15 -196 24 -372 20 -392 -10 -52 -45 -98 -95 -125 l-44
-23 -909 0 c-882 0 -910 1 -947 20 -48 24 -87 70 -100 115 -6 23 -5 96 4 217
13 172 34 447 55 743 5 72 16 218 24 325 8 107 22 299 31 425 9 127 21 247 26
268 13 48 63 105 114 128 38 17 86 19 790 19 704 0 752 -2 790 -19z"/>
</g>
</svg>
