<?xml version="1.0" standalone="no"?>
<!DOCTYPE svg PUBLIC "-//W3C//DTD SVG 20010904//EN"
 "http://www.w3.org/TR/2001/REC-SVG-20010904/DTD/svg10.dtd">
<svg version="1.0" xmlns="http://www.w3.org/2000/svg"
 width="300.000000pt" height="205.000000pt" viewBox="0 0 300.000000 205.000000"
 preserveAspectRatio="xMidYMid meet">
<metadata>
Created by potrace 1.10, written by Peter Selinger 2001-2011
</metadata>
<g transform="translate(0.000000,205.000000) scale(0.100000,-0.100000)"
fill="#000000" stroke="none">
<path d="M772 1933 c-5 -14 -19 -18 -62 -18 l-55 0 0 -45 0 -45 58 0 c38 0 57
-3 57 -12 0 -8 -20 -13 -57 -15 l-58 -3 0 -78 0 -77 -107 0 -108 0 0 -140 0
-140 -135 0 -135 0 0 -60 c0 -77 -18 -79 -22 -2 l-3 57 -42 3 c-39 3 -42 1
-48 -27 -4 -17 -4 -44 0 -60 5 -23 2 -29 -13 -33 -18 -5 -19 -17 -21 -162 -2
-153 -2 -156 19 -156 19 0 21 -4 15 -30 -4 -17 -4 -44 0 -60 6 -28 10 -30 51
-30 l44 0 0 60 c0 33 4 60 10 60 6 0 10 -27 10 -60 l0 -60 135 0 135 0 0 -140
0 -140 108 0 107 0 0 -112 0 -113 58 0 c78 0 78 -23 0 -27 l-58 -3 -3 -42 -3
-43 60 0 c48 0 61 -3 61 -15 0 -13 24 -15 160 -15 136 0 160 2 160 15 0 12 13
15 60 15 l60 0 0 45 0 45 -60 0 c-77 0 -79 18 -2 22 l57 3 3 113 3 112 224 0
224 0 3 -112 3 -113 58 -3 c76 -4 74 -22 -3 -22 l-60 0 0 -45 0 -45 60 0 c47
0 60 -3 60 -15 0 -13 24 -15 160 -15 136 0 160 2 160 15 0 12 13 15 60 15 l60
0 0 45 0 45 -60 0 c-77 0 -79 18 -2 22 l57 3 3 113 3 112 104 0 105 0 0 140 0
140 125 0 125 0 0 60 c0 47 3 60 15 60 12 0 15 -13 15 -60 l0 -60 45 0 45 0 0
60 c0 47 3 60 15 60 13 0 15 24 15 160 0 136 -2 160 -15 160 -12 0 -15 13 -15
60 l0 60 -45 0 -45 0 0 -60 c0 -47 -3 -60 -15 -60 -12 0 -15 13 -15 60 l0 60
-125 0 -125 0 0 140 0 140 -105 0 -105 0 0 80 0 80 -60 0 c-42 0 -60 4 -60 13
0 9 17 12 58 12 l57 0 0 45 0 45 -55 3 c-35 2 -58 9 -63 18 -6 11 -38 14 -158
14 -133 0 -150 -2 -157 -17 -5 -14 -19 -18 -62 -18 l-55 0 0 -45 0 -45 58 0
c40 0 57 -3 57 -12 0 -9 -18 -13 -60 -13 l-60 0 0 -80 0 -80 -225 0 -225 0 0
80 0 80 -61 0 c-44 0 -60 3 -57 12 3 8 19 12 41 10 64 -6 77 4 77 54 l0 44
-60 0 c-47 0 -60 3 -60 15 0 13 -24 15 -155 15 -139 0 -156 -2 -163 -17z m298
-13 c0 -6 -53 -10 -140 -10 -87 0 -140 4 -140 10 0 6 53 10 140 10 87 0 140
-4 140 -10z m1010 0 c0 -6 -53 -10 -140 -10 -87 0 -140 4 -140 10 0 6 53 10
140 10 87 0 140 -4 140 -10z m-890 -50 l0 -30 -260 0 -260 0 0 30 0 30 260 0
260 0 0 -30z m1010 0 l0 -30 -260 0 -260 0 0 30 0 30 260 0 260 0 0 -30z
m-1130 -55 c0 -13 -22 -15 -140 -15 -118 0 -140 2 -140 15 0 13 22 15 140 15
118 0 140 -2 140 -15z m1010 0 c0 -13 -22 -15 -140 -15 -118 0 -140 2 -140 15
0 13 22 15 140 15 118 0 140 -2 140 -15z m-890 -105 l0 -70 -260 0 -260 0 0
70 0 70 260 0 260 0 0 -70z m1010 -2 l0 -73 -260 3 -260 3 0 69 0 70 260 0
260 0 0 -72z m210 -628 l0 -540 -975 0 -975 0 0 540 0 540 975 0 975 0 0 -540z
m-2280 0 l0 -260 -30 0 -30 0 0 260 0 260 30 0 30 0 0 -260z m310 0 l0 -260
-125 0 -125 0 0 260 0 260 125 0 125 0 0 -260z m2222 0 l3 -260 -117 0 -118 0
0 260 0 260 115 0 114 0 3 -260z m118 0 l0 -260 -30 0 -30 0 0 260 0 260 30 0
30 0 0 -260z m-2720 0 c0 -87 -4 -140 -10 -140 -6 0 -10 53 -10 140 0 87 4
140 10 140 6 0 10 -53 10 -140z m110 0 c0 -87 -4 -140 -10 -140 -6 0 -10 53
-10 140 0 87 4 140 10 140 6 0 10 -53 10 -140z m2540 0 c0 -118 -2 -140 -15
-140 -13 0 -15 22 -15 140 0 118 2 140 15 140 13 0 15 -22 15 -140z m97 -72
c-1 -40 -3 -8 -3 72 0 80 2 112 3 73 2 -40 2 -106 0 -145z m-1617 -593 l0
-105 -260 0 -260 0 0 105 0 105 260 0 260 0 0 -105z m1010 0 l0 -105 -260 0
-260 0 0 105 0 105 260 0 260 0 0 -105z m-1130 -130 c0 -13 -22 -15 -140 -15
-118 0 -140 2 -140 15 0 13 22 15 140 15 118 0 140 -2 140 -15z m1010 0 c0
-13 -22 -15 -140 -15 -118 0 -140 2 -140 15 0 13 22 15 140 15 118 0 140 -2
140 -15z m-890 -60 l0 -25 -260 0 -260 0 0 25 0 25 260 0 260 0 0 -25z m1010
0 l0 -25 -260 0 -260 0 0 25 0 25 260 0 260 0 0 -25z m-1130 -52 c0 -10 -268
-8 -277 1 -3 3 57 6 135 6 78 0 142 -3 142 -7z m1010 0 c0 -5 -63 -8 -140 -8
-77 0 -140 3 -140 8 0 4 63 7 140 7 77 0 140 -3 140 -7z"/>
<path d="M2705 275 c-23 -22 -25 -32 -25 -115 0 -143 15 -159 151 -160 90 0
97 2 120 26 20 22 24 38 28 105 6 152 -9 169 -149 169 -94 0 -103 -2 -125 -25z
m237 -12 c15 -13 18 -32 18 -110 0 -126 -7 -133 -132 -133 -125 0 -128 3 -128
135 0 65 4 105 12 113 8 8 47 12 112 12 78 0 103 -3 118 -17z"/>
<path d="M2792 204 c-31 -21 -30 -69 3 -90 14 -9 32 -13 41 -10 9 4 23 1 31
-5 7 -7 17 -8 21 -4 4 4 1 10 -5 12 -9 3 -11 17 -7 43 5 32 3 40 -17 54 -29
20 -39 20 -67 0z m58 -19 c26 -31 -13 -82 -44 -56 -19 16 -21 57 -3 64 22 9
34 7 47 -8z"/>
</g>
</svg>
