<?xml version="1.0" standalone="no"?>
<!DOCTYPE svg PUBLIC "-//W3C//DTD SVG 20010904//EN"
 "http://www.w3.org/TR/2001/REC-SVG-20010904/DTD/svg10.dtd">
<svg version="1.0" xmlns="http://www.w3.org/2000/svg"
 width="167.000000pt" height="140.000000pt" viewBox="0 0 167.000000 140.000000"
 preserveAspectRatio="xMidYMid meet">
<metadata>
Created by potrace 1.10, written by Peter Selinger 2001-2011
</metadata>
<g transform="translate(0.000000,140.000000) scale(0.100000,-0.100000)"
fill="#000000" stroke="none">
<path d="M512 1172 c-10 -7 -12 -127 -10 -568 l3 -559 304 -3 c237 -2 306 1
313 10 14 22 10 1102 -4 1116 -14 14 -584 17 -606 4z m598 -567 l0 -555 -297
2 -298 3 -3 553 -2 552 300 0 300 0 0 -555z"/>
<path d="M35 1018 c-26 -83 -30 -203 -11 -289 23 -102 28 -109 63 -83 15 11
32 35 38 52 9 32 25 43 25 18 0 -25 25 -35 144 -56 105 -18 121 -19 141 -6 57
37 61 330 5 381 -15 14 -31 16 -72 12 -152 -15 -218 -38 -218 -74 0 -8 -5 -11
-10 -8 -6 4 -8 10 -5 15 6 10 -62 90 -76 90 -4 0 -15 -24 -24 -52z m64 -2 c11
-15 15 -56 15 -170 1 -141 0 -152 -21 -176 -30 -35 -40 -21 -60 81 -13 71 -14
97 -4 167 19 133 32 152 70 98z m334 9 c16 -16 37 -118 37 -182 0 -52 -20
-154 -34 -172 -8 -10 -26 -12 -71 -7 -82 9 -177 28 -192 39 -15 11 -18 263 -4
286 6 9 49 22 103 32 120 21 143 22 161 4z m-283 -175 c0 -94 -10 -128 -24
-77 -7 29 -7 125 0 155 14 50 24 16 24 -78z"/>
<path d="M1523 1033 c-18 -20 -33 -46 -33 -57 -1 -19 -2 -18 -15 6 -17 30 -45
41 -155 58 -150 24 -163 10 -168 -171 -4 -132 8 -192 42 -214 21 -14 32 -14
109 -1 149 26 162 31 177 71 8 18 9 18 9 -6 1 -23 56 -89 74 -89 14 0 35 63
47 143 10 61 10 93 0 155 -13 80 -33 142 -47 142 -4 0 -23 -17 -40 -37z m57
-25 c19 -65 24 -197 11 -270 -18 -93 -24 -99 -61 -62 -30 29 -30 32 -21 75 14
58 14 126 0 189 -11 50 -10 53 17 81 15 16 31 29 34 29 4 0 13 -19 20 -42z
m-246 16 c140 -25 136 -20 136 -173 0 -109 -3 -130 -17 -144 -24 -21 -229 -54
-252 -40 -25 16 -39 79 -40 173 -1 88 12 165 31 187 14 17 31 16 142 -3z m168
-124 c4 -70 -2 -150 -13 -150 -5 0 -9 45 -9 100 0 103 15 139 22 50z"/>
<path d="M52 577 c-19 -22 -42 -137 -42 -208 0 -83 27 -209 47 -216 19 -8 73
47 76 75 1 24 17 31 17 7 0 -26 43 -43 157 -61 105 -16 114 -16 131 -1 53 48
56 321 3 381 -17 20 -35 19 -176 -4 -75 -13 -115 -32 -115 -55 0 -24 -16 -17
-17 7 -1 12 -17 37 -36 55 -28 28 -36 32 -45 20z m62 -212 c0 -154 -1 -156
-26 -182 l-26 -26 -16 53 c-27 90 -30 169 -11 261 9 46 19 87 22 92 3 5 17 -3
32 -17 26 -25 26 -25 25 -181z m318 178 c17 -20 38 -117 38 -176 0 -22 -5 -69
-12 -104 -17 -94 -26 -98 -164 -72 -60 11 -115 25 -121 31 -20 16 -18 271 1
288 8 6 55 18 103 27 48 8 90 17 92 19 11 10 49 2 63 -13z m-282 -178 c0 -102
-11 -137 -24 -74 -8 40 -8 127 0 157 14 51 24 16 24 -83z"/>
<path d="M1522 547 c-18 -18 -32 -42 -32 -52 0 -17 -2 -16 -17 5 -24 36 -24
35 -145 55 -132 21 -150 15 -167 -51 -14 -55 -14 -223 0 -278 16 -63 39 -73
131 -57 151 27 163 30 181 59 15 24 16 25 17 6 0 -20 57 -84 76 -84 14 0 30
52 45 141 13 79 4 181 -23 257 -15 40 -26 40 -66 -1z m71 -182 c0 -91 -4 -142
-14 -169 l-15 -39 -32 34 c-28 30 -31 38 -24 69 9 45 9 165 -1 211 -6 32 -4
39 25 69 l32 33 15 -39 c10 -27 14 -78 14 -169z m-316 186 c162 -31 174 -35
183 -52 15 -27 13 -252 -2 -272 -16 -21 -233 -61 -258 -47 -52 28 -53 327 -1
367 20 15 19 15 78 4z m224 -133 c2 -93 -2 -143 -12 -152 -5 -6 -9 31 -9 97 0
65 4 107 10 107 6 0 10 -24 11 -52z"/>
</g>
</svg>
