<?xml version="1.0" standalone="no"?>
<!DOCTYPE svg PUBLIC "-//W3C//DTD SVG 20010904//EN"
 "http://www.w3.org/TR/2001/REC-SVG-20010904/DTD/svg10.dtd">
<svg version="1.0" xmlns="http://www.w3.org/2000/svg"
 width="140.000000pt" height="161.000000pt" viewBox="0 0 140.000000 161.000000"
 preserveAspectRatio="xMidYMid meet">
<metadata>
Created by potrace 1.10, written by Peter Selinger 2001-2011
</metadata>
<g transform="translate(0.000000,161.000000) scale(0.100000,-0.100000)"
fill="#000000" stroke="none">
<path d="M10 795 l0 -795 50 0 c38 0 50 4 50 15 0 21 20 19 21 -2 0 -15 2 -15
9 2 7 17 9 17 9 3 1 -23 21 -23 22 0 0 14 2 14 9 -3 7 -17 9 -17 9 -2 1 9 5
17 10 17 5 0 12 -8 14 -17 4 -17 5 -17 6 0 0 9 5 17 10 17 5 0 12 -8 14 -17 4
-17 5 -17 6 0 1 21 21 23 21 2 0 -12 17 -15 90 -15 73 0 90 3 90 15 0 21 18
19 23 -2 4 -17 5 -17 6 0 1 22 18 22 24 -1 4 -16 5 -16 6 1 0 9 6 17 11 17 6
0 10 -8 11 -17 0 -15 2 -15 9 2 7 17 9 17 9 3 1 -10 6 -18 11 -18 6 0 10 8 11
18 0 14 2 14 9 -3 7 -17 9 -17 9 -2 1 21 21 23 21 2 0 -12 17 -15 96 -15 81 0
95 2 90 15 -3 8 -1 15 4 15 5 0 11 -8 13 -18 4 -16 5 -16 6 1 0 9 5 17 10 17
5 0 12 -8 14 -17 4 -17 5 -17 6 0 0 9 5 17 10 17 5 0 12 -8 14 -17 4 -17 5
-17 6 0 1 22 18 22 24 -1 4 -16 5 -16 6 1 0 9 6 17 11 17 6 0 10 -8 11 -17 0
-15 2 -15 9 2 7 17 9 17 9 3 1 -16 13 -18 97 -18 81 0 95 2 90 15 -3 8 -1 15
4 15 5 0 11 -8 13 -18 4 -16 5 -16 6 1 0 9 5 17 10 17 5 0 12 -8 14 -17 4 -17
5 -17 6 0 0 9 5 17 10 17 5 0 12 -8 14 -17 4 -17 5 -17 6 0 0 9 5 17 10 17 5
0 12 -8 14 -17 4 -17 5 -17 6 0 0 9 6 17 11 17 6 0 10 -8 11 -17 0 -15 2 -15
9 2 7 17 9 17 9 3 1 -15 10 -18 51 -18 l50 0 0 795 0 795 -690 0 -690 0 0
-795z m1370 755 c0 -20 -7 -20 -673 -20 -371 0 -676 3 -680 6 -3 3 -3 12 0 20
4 12 110 14 679 14 667 0 674 0 674 -20z m0 -190 l0 -150 -675 0 -675 0 0 150
0 150 675 0 675 0 0 -150z m0 -245 l0 -75 -677 0 -678 0 3 75 4 75 674 0 674
0 0 -75z m-1254 -154 c-2 -73 -16 -75 -16 -2 0 34 4 60 9 57 5 -3 8 -28 7 -55z
m21 -33 c-2 -18 -4 -4 -4 32 0 36 2 50 4 33 2 -18 2 -48 0 -65z m30 0 c-2 -18
-4 -4 -4 32 0 36 2 50 4 33 2 -18 2 -48 0 -65z m33 31 c0 -33 -4 -58 -9 -55
-6 4 -9 101 -2 114 7 13 11 -8 11 -59z m30 1 c0 -33 -4 -60 -10 -60 -6 0 -10
27 -10 60 0 33 4 60 10 60 6 0 10 -27 10 -60z m30 0 c0 -33 -4 -60 -10 -60 -6
0 -10 27 -10 60 0 33 4 60 10 60 6 0 10 -27 10 -60z m128 53 c-21 -2 -55 -2
-75 0 -21 2 -4 4 37 4 41 0 58 -2 38 -4z m72 -53 c0 -33 -4 -60 -10 -60 -6 0
-10 27 -10 60 0 33 4 60 10 60 6 0 10 -27 10 -60z m30 0 c0 -33 -4 -60 -10
-60 -6 0 -10 27 -10 60 0 33 4 60 10 60 6 0 10 -27 10 -60z m21 3 c2 -29 0
-56 -4 -59 -4 -4 -7 21 -7 56 0 75 7 77 11 3z m26 -35 c-2 -18 -4 -4 -4 32 0
36 2 50 4 33 2 -18 2 -48 0 -65z m30 0 c-2 -18 -4 -4 -4 32 0 36 2 50 4 33 2
-18 2 -48 0 -65z m33 31 c0 -35 -4 -58 -9 -54 -8 4 -9 99 -2 113 7 13 11 -8
11 -59z m138 54 c-21 -2 -57 -2 -80 0 -24 2 -7 4 37 4 44 0 63 -2 43 -4z m59
-85 c-2 -18 -4 -4 -4 32 0 36 2 50 4 33 2 -18 2 -48 0 -65z m33 32 c0 -33 -4
-60 -10 -60 -6 0 -10 27 -10 60 0 33 4 60 10 60 6 0 10 -27 10 -60z m30 0 c0
-33 -4 -60 -10 -60 -6 0 -10 27 -10 60 0 33 4 60 10 60 6 0 10 -27 10 -60z
m510 15 c0 -31 -5 -47 -17 -54 -17 -10 -17 -12 0 -25 11 -9 17 -27 17 -55 0
-22 -3 -41 -6 -41 -4 0 -23 9 -43 19 -20 11 -103 51 -184 90 -81 39 -155 77
-163 85 -8 8 -21 13 -28 10 -8 -3 -17 -1 -21 5 -4 8 62 11 219 11 l226 0 0
-45z m-977 18 c-24 -2 -62 -2 -86 0 -23 2 -4 4 43 4 47 0 66 -2 43 -4z m340 0
c-24 -2 -62 -2 -85 0 -24 2 -5 4 42 4 47 0 66 -2 43 -4z m227 -21 c0 -8 -14
-16 -62 -40 -5 -2 -8 0 -8 5 0 5 15 17 33 26 39 19 37 19 37 9z m-567 -9 c-24
-2 -62 -2 -86 0 -23 2 -4 4 43 4 47 0 66 -2 43 -4z m340 0 c-24 -2 -62 -2 -85
0 -24 2 -5 4 42 4 47 0 66 -2 43 -4z m252 -11 c-23 -20 -85 -53 -85 -45 0 5
17 19 38 31 37 22 65 30 47 14z m34 -15 c-26 -21 -113 -67 -117 -63 -7 8 -7 8
58 44 30 17 56 29 59 27 2 -3 2 -6 0 -8z m-626 -4 c-24 -2 -62 -2 -86 0 -23 2
-4 4 43 4 47 0 66 -2 43 -4z m340 0 c-24 -2 -62 -2 -85 0 -24 2 -5 4 42 4 47
0 66 -2 43 -4z m307 -17 c-26 -23 -130 -78 -130 -68 0 6 28 26 63 46 64 37 92
46 67 22z m-950 -6 c0 -5 -18 -10 -41 -10 -24 0 -38 4 -34 10 3 6 22 10 41 10
19 0 34 -4 34 -10z m335 0 c4 -6 -23 -10 -74 -10 -47 0 -81 4 -81 10 0 6 31
10 74 10 41 0 78 -4 81 -10z m345 0 c0 -6 -34 -10 -81 -10 -51 0 -78 4 -74 10
3 6 40 10 81 10 43 0 74 -4 74 -10z m290 -8 c0 -10 -130 -85 -136 -79 -3 3 26
23 63 45 80 47 73 44 73 34z m-1033 -134 c-2 -24 -4 -5 -4 42 0 47 2 66 4 43
2 -24 2 -62 0 -85z m33 42 c0 -47 -4 -80 -10 -80 -11 0 -14 142 -3 153 12 13
13 7 13 -73z m30 0 c0 -47 -4 -80 -10 -80 -11 0 -14 142 -3 153 12 13 13 7 13
-73z m165 70 c4 -6 -23 -10 -74 -10 -47 0 -81 4 -81 10 0 6 31 10 74 10 41 0
78 -4 81 -10z m35 -76 c0 -43 -4 -74 -10 -74 -6 0 -10 34 -10 81 0 51 4 78 10
74 6 -3 10 -40 10 -81z m17 -36 c-2 -24 -4 -5 -4 42 0 47 2 66 4 43 2 -24 2
-62 0 -85z m30 0 c-2 -24 -4 -5 -4 42 0 47 2 66 4 43 2 -24 2 -62 0 -85z m30
0 c-2 -24 -4 -5 -4 42 0 47 2 66 4 43 2 -24 2 -62 0 -85z m33 42 c0 -44 -4
-80 -9 -80 -9 0 -13 138 -4 153 10 17 13 2 13 -73z m30 0 c0 -47 -4 -80 -10
-80 -11 0 -14 142 -3 153 12 13 13 7 13 -73z m170 70 c0 -6 -33 -10 -80 -10
-47 0 -80 4 -80 10 0 6 33 10 80 10 47 0 80 -4 80 -10z m30 -70 c0 -48 -4 -80
-10 -80 -10 0 -13 136 -3 153 10 17 13 2 13 -73z m30 -6 c0 -43 -4 -74 -10
-74 -6 0 -10 34 -10 81 0 51 4 78 10 74 6 -3 10 -40 10 -81z m30 0 c0 -43 -4
-74 -10 -74 -6 0 -10 34 -10 81 0 51 4 78 10 74 6 -3 10 -40 10 -81z m24 1 c0
-41 -2 -75 -6 -75 -5 0 -8 37 -8 82 0 45 3 79 6 75 4 -3 7 -40 8 -82z m23 -37
c-2 -24 -4 -5 -4 42 0 47 2 66 4 43 2 -24 2 -62 0 -85z m30 0 c-2 -24 -4 -5
-4 42 0 47 2 66 4 43 2 -24 2 -62 0 -85z m119 111 c3 -5 -17 -9 -45 -9 -28 0
-51 4 -51 9 0 5 20 9 45 9 25 0 47 -4 51 -9z m224 -62 c44 -77 43 -77 33 -77
-8 0 -83 122 -83 135 0 19 20 -4 50 -58z m7 -83 c-6 -7 -77 112 -77 129 0 7
19 -19 41 -56 23 -38 39 -71 36 -73z m63 131 c0 -6 -56 -35 -67 -35 -13 1 41
40 55 40 6 0 12 -2 12 -5z m-920 -15 c0 -6 -33 -10 -80 -10 -47 0 -80 4 -80
10 0 6 33 10 80 10 47 0 80 -4 80 -10z m340 0 c0 -6 -33 -10 -80 -10 -47 0
-80 4 -80 10 0 6 33 10 80 10 47 0 80 -4 80 -10z m290 0 c0 -5 -22 -10 -50
-10 -27 0 -50 5 -50 10 0 6 23 10 50 10 28 0 50 -4 50 -10z m320 2 c0 -10 -69
-47 -76 -40 -3 3 10 15 28 26 36 22 48 26 48 14z m-172 -24 c6 -13 23 -43 38
-67 15 -24 21 -42 14 -39 -15 5 -85 128 -73 128 6 0 15 -10 21 -22z m-4 -52
c37 -67 47 -96 20 -61 -16 21 -64 110 -64 120 0 15 12 -1 44 -59z m206 60 c0
-8 -92 -58 -97 -53 -6 7 67 56 85 56 6 1 12 -1 12 -3z m-985 -16 c-3 -5 -37
-10 -75 -10 -38 0 -72 5 -75 10 -4 6 23 10 75 10 52 0 79 -4 75 -10z m345 0
c0 -6 -31 -10 -74 -10 -41 0 -78 5 -81 10 -4 6 23 10 74 10 47 0 81 -4 81 -10z
m300 0 c0 -5 -25 -10 -55 -10 -30 0 -55 5 -55 10 0 6 25 10 55 10 30 0 55 -4
55 -10z m370 3 c0 -8 -92 -63 -105 -63 -16 0 10 22 53 45 55 28 52 27 52 18z
m-255 -71 c19 -34 31 -62 27 -62 -4 0 -16 15 -26 33 -10 17 -28 47 -39 66 -11
19 -15 32 -8 30 6 -2 27 -32 46 -67z m-31 -3 c20 -34 35 -66 33 -72 -3 -10
-77 113 -77 127 0 15 10 2 44 -55z m-727 44 c-4 -3 -38 -6 -77 -6 -39 0 -73 3
-77 6 -3 4 31 7 77 7 46 0 80 -3 77 -7z m340 0 c-4 -3 -38 -6 -77 -6 -39 0
-73 3 -77 6 -3 4 31 7 77 7 46 0 80 -3 77 -7z m303 -1 c0 -4 -25 -8 -55 -8
-30 1 -55 4 -55 9 0 4 25 7 55 7 30 0 55 -4 55 -8z m380 -43 c0 -17 -35 -19
-47 -3 -18 24 -6 32 12 8 14 -18 15 -17 9 11 -5 29 -5 29 10 11 9 -11 16 -23
16 -27z m-1058 14 c-23 -2 -61 -2 -85 0 -23 2 -4 4 43 4 47 0 66 -2 42 -4z
m341 0 c-24 -2 -62 -2 -85 0 -24 2 -5 4 42 4 47 0 66 -2 43 -4z m315 0 c-15
-2 -42 -2 -60 0 -18 2 -6 4 27 4 33 0 48 -2 33 -4z m-656 -30 c-23 -2 -61 -2
-85 0 -23 2 -4 4 43 4 47 0 66 -2 42 -4z m341 0 c-24 -2 -62 -2 -85 0 -24 2
-5 4 42 4 47 0 66 -2 43 -4z m314 0 c-20 -2 -52 -2 -70 0 -17 2 0 4 38 4 39 0
53 -2 32 -4z m279 -12 c-9 -14 -117 -72 -127 -69 -5 2 19 20 53 40 63 38 84
46 74 29z m-1070 -14 c4 -4 -12 -7 -35 -7 -23 0 -40 4 -37 8 6 10 62 9 72 -1z
m51 -109 c-2 -24 -4 -5 -4 42 0 47 2 66 4 43 2 -24 2 -62 0 -85z m30 0 c-2
-24 -4 -5 -4 42 0 47 2 66 4 43 2 -24 2 -62 0 -85z m259 109 c4 -4 -30 -7 -75
-7 -45 0 -80 3 -78 8 6 9 144 9 153 -1z m111 -109 c-2 -24 -4 -5 -4 42 0 47 2
66 4 43 2 -24 2 -62 0 -85z m30 0 c-2 -24 -4 -5 -4 42 0 47 2 66 4 43 2 -24 2
-62 0 -85z m33 42 c0 -44 -4 -80 -9 -80 -9 0 -12 138 -4 153 10 17 13 2 13
-73z m170 68 c0 -5 -36 -8 -81 -8 -44 0 -78 4 -75 8 6 10 156 10 156 0z m30
-68 c0 -44 -3 -80 -7 -80 -5 0 -7 35 -6 77 2 91 2 83 8 83 3 0 5 -36 5 -80z
m119 -37 c1 -24 -3 -43 -9 -43 -6 0 -10 33 -9 83 1 70 2 76 10 42 4 -22 8 -59
8 -82z m358 -5 c-2 -24 -4 -5 -4 42 0 47 2 66 4 43 2 -24 2 -62 0 -85z m-1161
37 c1 -41 -3 -75 -8 -75 -4 0 -8 34 -8 75 0 41 4 75 8 75 5 0 8 -34 8 -75z
m84 0 c0 -41 -4 -75 -8 -75 -5 0 -9 34 -9 75 0 41 4 75 9 75 4 0 8 -34 8 -75z
m30 0 c0 -43 -4 -75 -10 -75 -6 0 -10 32 -10 75 0 43 4 75 10 75 6 0 10 -32
10 -75z m30 0 c0 -43 -4 -75 -10 -75 -6 0 -10 32 -10 75 0 43 4 75 10 75 6 0
10 -32 10 -75z m200 0 c0 -43 -4 -75 -10 -75 -6 0 -10 32 -10 75 0 43 4 75 10
75 6 0 10 -32 10 -75z m30 0 c0 -43 -4 -75 -10 -75 -6 0 -10 32 -10 75 0 43 4
75 10 75 6 0 10 -32 10 -75z m25 0 c0 -41 -3 -75 -7 -75 -5 0 -8 34 -8 75 0
41 3 75 8 75 4 0 7 -34 7 -75z m315 0 c0 -43 -4 -75 -10 -75 -6 0 -10 32 -10
75 0 43 4 75 10 75 6 0 10 -32 10 -75z m30 0 c0 -43 -4 -75 -10 -75 -6 0 -10
32 -10 75 0 43 4 75 10 75 6 0 10 -32 10 -75z m30 0 c0 -43 -4 -75 -10 -75 -6
0 -10 32 -10 75 0 43 4 75 10 75 6 0 10 -32 10 -75z m274 56 c-19 -17 -124
-71 -124 -64 0 10 123 83 129 77 3 -2 0 -8 -5 -13z m92 -56 c0 -41 -4 -75 -8
-75 -4 0 -8 34 -8 75 0 41 4 75 8 75 5 0 8 -34 8 -75z m-26 -5 c0 -40 -4 -70
-10 -70 -11 0 -14 123 -3 133 12 13 13 7 13 -63z m-1140 50 c0 -5 -18 -10 -41
-10 -24 0 -38 4 -34 10 3 6 22 10 41 10 19 0 34 -4 34 -10z m340 0 c0 -6 -33
-10 -80 -10 -47 0 -80 4 -80 10 0 6 33 10 80 10 47 0 80 -4 80 -10z m340 0 c0
-6 -34 -10 -81 -10 -51 0 -78 4 -74 10 3 6 40 10 81 10 43 0 74 -4 74 -10z
m600 0 c0 -5 -16 -10 -35 -10 -19 0 -35 5 -35 10 0 6 16 10 35 10 19 0 35 -4
35 -10z m-170 -60 c0 -33 -4 -60 -10 -60 -6 0 -10 27 -10 60 0 33 4 60 10 60
6 0 10 -27 10 -60z m-30 -5 c0 -30 -4 -55 -10 -55 -11 0 -14 93 -3 103 12 12
13 8 13 -48z m-1080 35 c0 -5 -16 -10 -35 -10 -19 0 -35 5 -35 10 0 6 16 10
35 10 19 0 35 -4 35 -10z m340 0 c0 -6 -33 -10 -80 -10 -47 0 -80 4 -80 10 0
6 33 10 80 10 47 0 80 -4 80 -10z m340 0 c0 -6 -33 -10 -80 -10 -47 0 -80 4
-80 10 0 6 33 10 80 10 47 0 80 -4 80 -10z m600 0 c0 -5 -16 -10 -35 -10 -19
0 -35 5 -35 10 0 6 16 10 35 10 19 0 35 -4 35 -10z m-230 -45 c0 -25 -3 -45
-7 -45 -5 0 -7 17 -6 37 2 52 2 53 8 53 3 0 5 -20 5 -45z m-1050 15 c0 -5 -15
-10 -34 -10 -19 0 -38 5 -41 10 -4 6 10 10 34 10 23 0 41 -4 41 -10z m340 0
c0 -6 -33 -10 -80 -10 -47 0 -80 4 -80 10 0 6 33 10 80 10 47 0 80 -4 80 -10z
m340 0 c0 -6 -31 -10 -74 -10 -41 0 -78 5 -81 10 -4 6 23 10 74 10 47 0 81 -4
81 -10z m226 -1 c4 -7 -2 -16 -12 -22 -31 -18 -42 -16 -37 4 5 16 8 17 21 7
13 -11 15 -10 9 5 -7 19 8 24 19 6z m374 1 c0 -5 -16 -10 -35 -10 -19 0 -35 5
-35 10 0 6 16 10 35 10 19 0 35 -4 35 -10z m-1285 -30 c-3 -5 -19 -10 -35 -10
-16 0 -32 5 -35 10 -4 6 10 10 35 10 25 0 39 -4 35 -10z m341 2 c-6 -10 -142
-9 -152 1 -4 4 30 7 75 7 45 0 80 -4 77 -8z m344 0 c0 -8 -148 -7 -157 2 -4 3
30 6 75 6 45 0 82 -3 82 -8z m340 -2 c0 -5 -23 -10 -51 -10 -31 0 -48 4 -44
10 3 6 26 10 51 10 24 0 44 -4 44 -10z m260 0 c0 -5 -16 -10 -35 -10 -19 0
-35 5 -35 10 0 6 16 10 35 10 19 0 35 -4 35 -10z m-977 -27 c-24 -2 -62 -2
-86 0 -23 2 -4 4 43 4 47 0 66 -2 43 -4z m340 0 c-24 -2 -62 -2 -85 0 -24 2
-5 4 42 4 47 0 66 -2 43 -4z m357 1 c-60 -8 -130 -8 -130 -1 0 4 35 6 78 6 42
-1 66 -3 52 -5z m-1063 -146 c-2 -24 -4 -5 -4 42 0 47 2 66 4 43 2 -24 2 -62
0 -85z m33 41 c0 -51 -4 -78 -10 -74 -5 3 -10 40 -10 81 0 43 4 74 10 74 6 0
10 -34 10 -81z m30 6 c0 -43 -4 -75 -10 -75 -6 0 -10 32 -10 75 0 43 4 75 10
75 6 0 10 -32 10 -75z m132 68 c-23 -2 -61 -2 -85 0 -23 2 -4 4 43 4 47 0 66
-2 42 -4z m68 -68 c0 -43 -4 -75 -10 -75 -6 0 -10 32 -10 75 0 43 4 75 10 75
6 0 10 -32 10 -75z m17 -47 c-2 -24 -4 -5 -4 42 0 47 2 66 4 43 2 -24 2 -62 0
-85z m30 0 c-2 -24 -4 -5 -4 42 0 47 2 66 4 43 2 -24 2 -62 0 -85z m30 0 c-2
-24 -4 -5 -4 42 0 47 2 66 4 43 2 -24 2 -62 0 -85z m33 41 c0 -44 -4 -78 -9
-75 -11 7 -10 156 1 156 4 0 8 -36 8 -81z m30 6 c0 -43 -4 -75 -10 -75 -6 0
-10 32 -10 75 0 43 4 75 10 75 6 0 10 -32 10 -75z m133 68 c-24 -2 -62 -2 -85
0 -24 2 -5 4 42 4 47 0 66 -2 43 -4z m67 -74 c0 -44 -4 -78 -9 -75 -11 7 -12
156 -1 156 6 0 10 -36 10 -81z m30 6 c0 -43 -4 -75 -10 -75 -6 0 -10 32 -10
75 0 43 4 75 10 75 6 0 10 -32 10 -75z m30 0 c0 -43 -4 -75 -10 -75 -6 0 -10
32 -10 75 0 43 4 75 10 75 6 0 10 -32 10 -75z m25 1 c0 -41 -4 -78 -8 -82 -4
-4 -7 29 -7 74 0 45 4 82 8 82 4 0 8 -33 7 -74z m22 -48 c-2 -24 -4 -5 -4 42
0 47 2 66 4 43 2 -24 2 -62 0 -85z m30 0 c-2 -24 -4 -5 -4 42 0 47 2 66 4 43
2 -24 2 -62 0 -85z m136 115 c-24 -2 -62 -2 -85 0 -24 2 -5 4 42 4 47 0 66 -2
43 -4z m64 -115 c-2 -24 -4 -5 -4 42 0 47 2 66 4 43 2 -24 2 -62 0 -85z m33
40 c0 -45 -3 -78 -7 -74 -9 9 -10 156 0 156 4 0 7 -37 7 -82z m30 7 c0 -43 -4
-75 -10 -75 -6 0 -10 32 -10 75 0 43 4 75 10 75 6 0 10 -32 10 -75z m30 1 c0
-41 -4 -78 -10 -81 -6 -4 -10 23 -10 74 0 47 4 81 10 81 6 0 10 -31 10 -74z
m17 -48 c-2 -24 -4 -5 -4 42 0 47 2 66 4 43 2 -24 2 -62 0 -85z m30 0 c-2 -24
-4 -5 -4 42 0 47 2 66 4 43 2 -24 2 -62 0 -85z m136 115 c-24 -2 -62 -2 -85 0
-24 2 -5 4 42 4 47 0 66 -2 43 -4z m64 -115 c-2 -24 -4 -5 -4 42 0 47 2 66 4
43 2 -24 2 -62 0 -85z m30 0 c-2 -24 -4 -5 -4 42 0 47 2 66 4 43 2 -24 2 -62
0 -85z m33 47 c0 -43 -4 -75 -10 -75 -6 0 -10 32 -10 75 0 43 4 75 10 75 6 0
10 -32 10 -75z m-1113 41 c3 -3 -31 -6 -76 -6 -45 0 -80 3 -78 8 6 9 145 8
154 -2z m340 0 c3 -3 -31 -6 -76 -6 -45 0 -80 3 -78 8 6 9 145 8 154 -2z m343
2 c0 -5 -34 -8 -75 -8 -41 0 -75 3 -75 8 0 4 34 7 75 7 41 0 75 -3 75 -7z
m340 0 c0 -5 -34 -8 -75 -8 -41 0 -75 3 -75 8 0 4 34 7 75 7 41 0 75 -3 75 -7z
m-1025 -28 c4 -6 -23 -10 -75 -10 -52 0 -79 4 -75 10 8 13 142 13 150 0z m345
0 c0 -6 -34 -10 -81 -10 -51 0 -78 4 -74 10 3 6 40 10 81 10 43 0 74 -4 74
-10z m340 0 c0 -6 -32 -10 -75 -10 -43 0 -75 4 -75 10 0 6 32 10 75 10 43 0
75 -4 75 -10z m340 0 c0 -6 -32 -10 -75 -10 -43 0 -75 4 -75 10 0 6 32 10 75
10 43 0 75 -4 75 -10z m-1020 -30 c0 -6 -33 -10 -80 -10 -47 0 -80 4 -80 10 0
6 33 10 80 10 47 0 80 -4 80 -10z m340 0 c0 -6 -33 -10 -80 -10 -47 0 -80 4
-80 10 0 6 33 10 80 10 47 0 80 -4 80 -10z m340 0 c0 -6 -32 -10 -75 -10 -43
0 -75 4 -75 10 0 6 32 10 75 10 43 0 75 -4 75 -10z m340 0 c0 -6 -32 -10 -75
-10 -43 0 -75 4 -75 10 0 6 32 10 75 10 43 0 75 -4 75 -10z m-1020 -30 c0 -6
-33 -10 -80 -10 -47 0 -80 4 -80 10 0 6 33 10 80 10 47 0 80 -4 80 -10z m340
0 c0 -6 -31 -10 -74 -10 -41 0 -78 5 -81 10 -4 6 23 10 74 10 47 0 81 -4 81
-10z m340 0 c0 -6 -32 -10 -75 -10 -43 0 -75 4 -75 10 0 6 32 10 75 10 43 0
75 -4 75 -10z m340 0 c0 -6 -32 -10 -75 -10 -43 0 -75 4 -75 10 0 6 32 10 75
10 43 0 75 -4 75 -10z m-1024 -28 c-6 -10 -142 -9 -152 1 -4 4 30 7 75 7 45 0
80 -4 77 -8z m344 0 c0 -10 -147 -9 -156 1 -4 4 29 7 74 7 45 0 82 -4 82 -8z
m340 1 c0 -5 -34 -8 -75 -9 -41 0 -75 3 -75 8 0 4 34 8 75 8 41 0 75 -3 75 -7z
m340 0 c0 -5 -34 -8 -75 -8 -41 0 -75 3 -75 7 0 5 34 8 75 8 41 0 75 -3 75 -7z
m-1163 -98 c0 -41 -3 -75 -8 -75 -5 0 -9 34 -9 75 0 41 4 75 8 75 4 0 8 -34 9
-75z m20 -37 c-2 -24 -4 -7 -4 37 0 44 2 63 4 43 2 -21 2 -57 0 -80z m30 0
c-2 -24 -4 -7 -4 37 0 44 2 63 4 43 2 -21 2 -57 0 -80z m33 37 c0 -41 -4 -75
-8 -75 -5 0 -9 34 -9 75 0 41 3 75 8 75 5 0 9 -34 9 -75z m30 0 c0 -43 -4 -75
-10 -75 -6 0 -10 32 -10 75 0 43 4 75 10 75 6 0 10 -32 10 -75z m30 0 c0 -43
-4 -75 -10 -75 -6 0 -10 32 -10 75 0 43 4 75 10 75 6 0 10 -32 10 -75z m133
68 c-24 -2 -62 -2 -86 0 -23 2 -4 4 43 4 47 0 66 -2 43 -4z m67 -68 c0 -43 -4
-75 -10 -75 -6 0 -10 32 -10 75 0 43 4 75 10 75 6 0 10 -32 10 -75z m30 0 c0
-43 -4 -75 -10 -75 -6 0 -10 32 -10 75 0 43 4 75 10 75 6 0 10 -32 10 -75z
m24 5 c-1 -39 -4 -73 -8 -77 -3 -3 -6 28 -6 70 0 43 3 77 8 77 4 0 7 -32 6
-70z m23 -42 c-2 -24 -4 -7 -4 37 0 44 2 63 4 43 2 -21 2 -57 0 -80z m30 0
c-2 -24 -4 -7 -4 37 0 44 2 63 4 43 2 -21 2 -57 0 -80z m33 37 c0 -41 -4 -75
-8 -75 -5 0 -9 34 -9 75 0 41 3 75 8 75 5 0 9 -34 9 -75z m133 68 c-24 -2 -62
-2 -85 0 -24 2 -5 4 42 4 47 0 66 -2 43 -4z m67 -68 c0 -41 -3 -75 -7 -75 -5
0 -8 34 -8 75 0 41 3 75 8 75 4 0 7 -34 7 -75z m30 0 c0 -43 -4 -75 -10 -75
-6 0 -10 32 -10 75 0 43 4 75 10 75 6 0 10 -32 10 -75z m30 0 c0 -43 -4 -75
-10 -75 -6 0 -10 32 -10 75 0 43 4 75 10 75 6 0 10 -32 10 -75z m30 0 c0 -43
-4 -75 -10 -75 -6 0 -10 32 -10 75 0 43 4 75 10 75 6 0 10 -32 10 -75z m27 0
c0 -41 -4 -75 -9 -75 -4 0 -8 34 -8 75 0 41 4 75 9 75 5 0 8 -34 8 -75z m20
-37 c-2 -24 -4 -7 -4 37 0 44 2 63 4 43 2 -21 2 -57 0 -80z m141 105 c-21 -2
-57 -2 -80 0 -24 2 -7 4 37 4 44 0 63 -2 43 -4z m62 -68 c0 -41 -3 -75 -7 -75
-5 0 -8 34 -8 75 0 41 3 75 8 75 4 0 7 -34 7 -75z m30 0 c0 -43 -4 -75 -10
-75 -6 0 -10 32 -10 75 0 43 4 75 10 75 6 0 10 -32 10 -75z m30 0 c0 -43 -4
-75 -10 -75 -6 0 -10 32 -10 75 0 43 4 75 10 75 6 0 10 -32 10 -75z m30 0 c0
-43 -4 -75 -10 -75 -6 0 -10 32 -10 75 0 43 4 75 10 75 6 0 10 -32 10 -75z
m25 0 c0 -41 -3 -75 -7 -75 -5 0 -8 34 -8 75 0 41 4 75 8 75 4 0 8 -34 7 -75z
m22 -37 c-2 -24 -4 -7 -4 37 0 44 2 63 4 43 2 -21 2 -57 0 -80z m-884 75 c-24
-2 -62 -2 -86 0 -23 2 -4 4 43 4 47 0 66 -2 43 -4z m340 0 c-24 -2 -62 -2 -85
0 -24 2 -5 4 42 4 47 0 66 -2 43 -4z m345 0 c-21 -2 -57 -2 -80 0 -24 2 -7 4
37 4 44 0 63 -2 43 -4z m-685 -30 c-24 -2 -62 -2 -86 0 -23 2 -4 4 43 4 47 0
66 -2 43 -4z m340 0 c-24 -2 -62 -2 -85 0 -24 2 -5 4 42 4 47 0 66 -2 43 -4z
m345 0 c-21 -2 -57 -2 -80 0 -24 2 -7 4 37 4 44 0 63 -2 43 -4z m-988 -23 c0
-5 -18 -10 -41 -10 -24 0 -38 4 -34 10 3 6 22 10 41 10 19 0 34 -4 34 -10z
m335 0 c4 -6 -23 -10 -74 -10 -47 0 -81 4 -81 10 0 6 31 10 74 10 41 0 78 -4
81 -10z m345 0 c0 -6 -34 -10 -81 -10 -51 0 -78 4 -74 10 3 6 40 10 81 10 43
0 74 -4 74 -10z m340 0 c0 -6 -32 -10 -75 -10 -43 0 -75 4 -75 10 0 6 32 10
75 10 43 0 75 -4 75 -10z m260 0 c0 -5 -16 -10 -35 -10 -19 0 -35 5 -35 10 0
6 16 10 35 10 19 0 35 -4 35 -10z m-1280 -30 c0 -5 -18 -10 -41 -10 -24 0 -38
4 -34 10 3 6 22 10 41 10 19 0 34 -4 34 -10z m340 0 c0 -6 -33 -10 -80 -10
-47 0 -80 4 -80 10 0 6 33 10 80 10 47 0 80 -4 80 -10z m340 0 c0 -6 -34 -10
-81 -10 -51 0 -78 4 -74 10 3 6 40 10 81 10 43 0 74 -4 74 -10z m340 0 c0 -6
-32 -10 -75 -10 -43 0 -75 4 -75 10 0 6 32 10 75 10 43 0 75 -4 75 -10z m260
0 c0 -5 -16 -10 -35 -10 -19 0 -35 5 -35 10 0 6 16 10 35 10 19 0 35 -4 35
-10z m-977 -27 c-24 -2 -62 -2 -86 0 -23 2 -4 4 43 4 47 0 66 -2 43 -4z m377
0 c0 -5 -26 -7 -57 -5 -101 5 -111 9 -25 11 45 0 82 -2 82 -6z m340 0 c0 -5
-34 -8 -75 -8 -41 0 -75 3 -75 8 0 4 34 7 75 7 41 0 75 -3 75 -7z m-1083 -145
c-2 -24 -4 -5 -4 42 0 47 2 66 4 43 2 -24 2 -62 0 -85z m33 41 c0 -51 -4 -78
-10 -74 -5 3 -10 40 -10 81 0 43 4 74 10 74 6 0 10 -34 10 -81z m30 0 c0 -51
-4 -78 -10 -74 -5 3 -10 40 -10 81 0 43 4 74 10 74 6 0 10 -34 10 -81z m132
74 c-23 -2 -61 -2 -85 0 -23 2 -4 4 43 4 47 0 66 -2 42 -4z m68 -67 c0 -41 -4
-78 -10 -81 -6 -4 -10 23 -10 74 0 47 4 81 10 81 6 0 10 -31 10 -74z m17 -48
c-2 -24 -4 -5 -4 42 0 47 2 66 4 43 2 -24 2 -62 0 -85z m30 0 c-2 -24 -4 -5
-4 42 0 47 2 66 4 43 2 -24 2 -62 0 -85z m30 0 c-2 -24 -4 -5 -4 42 0 47 2 66
4 43 2 -24 2 -62 0 -85z m33 41 c0 -44 -4 -78 -9 -75 -11 7 -11 156 0 156 5 0
9 -36 9 -81z m30 0 c0 -51 -4 -78 -10 -74 -5 3 -10 40 -10 81 0 43 4 74 10 74
6 0 10 -34 10 -81z m133 74 c-24 -2 -62 -2 -85 0 -24 2 -5 4 42 4 47 0 66 -2
43 -4z m67 -74 c0 -44 -4 -78 -9 -75 -11 7 -12 156 -1 156 6 0 10 -36 10 -81z
m30 6 c0 -43 -4 -75 -10 -75 -6 0 -10 32 -10 75 0 43 4 75 10 75 6 0 10 -32
10 -75z m30 1 c0 -41 -4 -78 -10 -81 -6 -4 -10 23 -10 74 0 47 4 81 10 81 6 0
10 -31 10 -74z m24 -1 c0 -41 -3 -78 -7 -81 -4 -4 -7 29 -7 74 0 45 3 82 8 82
4 0 7 -34 6 -75z m23 -47 c-2 -24 -4 -5 -4 42 0 47 2 66 4 43 2 -24 2 -62 0
-85z m30 0 c-2 -24 -4 -5 -4 42 0 47 2 66 4 43 2 -24 2 -62 0 -85z m136 115
c-24 -2 -62 -2 -85 0 -24 2 -5 4 42 4 47 0 66 -2 43 -4z m64 -115 c-2 -24 -4
-5 -4 42 0 47 2 66 4 43 2 -24 2 -62 0 -85z m33 40 c0 -45 -3 -78 -7 -74 -9 9
-10 156 0 156 4 0 7 -37 7 -82z m30 7 c0 -43 -4 -75 -10 -75 -6 0 -10 32 -10
75 0 43 4 75 10 75 6 0 10 -32 10 -75z m30 1 c0 -41 -4 -78 -10 -81 -6 -4 -10
23 -10 74 0 47 4 81 10 81 6 0 10 -31 10 -74z m17 -48 c-2 -24 -4 -5 -4 42 0
47 2 66 4 43 2 -24 2 -62 0 -85z m30 0 c-2 -24 -4 -5 -4 42 0 47 2 66 4 43 2
-24 2 -62 0 -85z m136 115 c-24 -2 -62 -2 -85 0 -24 2 -5 4 42 4 47 0 66 -2
43 -4z m64 -115 c-2 -24 -4 -5 -4 42 0 47 2 66 4 43 2 -24 2 -62 0 -85z m33
40 c0 -45 -3 -79 -6 -75 -9 8 -10 157 -1 157 4 0 7 -37 7 -82z m30 1 c0 -51
-4 -78 -10 -74 -5 3 -10 40 -10 81 0 43 4 74 10 74 6 0 10 -34 10 -81z m-1148
44 c-23 -2 -61 -2 -85 0 -23 2 -4 4 43 4 47 0 66 -2 42 -4z m341 0 c-24 -2
-62 -2 -85 0 -24 2 -5 4 42 4 47 0 66 -2 43 -4z m345 0 c-21 -2 -57 -2 -80 0
-24 2 -7 4 37 4 44 0 63 -2 43 -4z m340 0 c-21 -2 -57 -2 -80 0 -24 2 -7 4 37
4 44 0 63 -2 43 -4z m-993 -23 c4 -6 -23 -10 -75 -10 -52 0 -79 4 -75 10 8 13
142 13 150 0z m345 0 c0 -6 -34 -10 -81 -10 -51 0 -78 4 -74 10 3 6 40 10 81
10 43 0 74 -4 74 -10z m340 0 c0 -6 -32 -10 -75 -10 -43 0 -75 4 -75 10 0 6
32 10 75 10 43 0 75 -4 75 -10z m340 0 c0 -6 -32 -10 -75 -10 -43 0 -75 4 -75
10 0 6 32 10 75 10 43 0 75 -4 75 -10z m-1020 -30 c0 -6 -33 -10 -80 -10 -47
0 -80 4 -80 10 0 6 33 10 80 10 47 0 80 -4 80 -10z m340 0 c0 -6 -33 -10 -80
-10 -47 0 -80 4 -80 10 0 6 33 10 80 10 47 0 80 -4 80 -10z m340 0 c0 -6 -32
-10 -75 -10 -43 0 -75 4 -75 10 0 6 32 10 75 10 43 0 75 -4 75 -10z m340 0 c0
-6 -32 -10 -75 -10 -43 0 -75 4 -75 10 0 6 32 10 75 10 43 0 75 -4 75 -10z
m-1020 -30 c0 -6 -33 -10 -80 -10 -47 0 -80 4 -80 10 0 6 33 10 80 10 47 0 80
-4 80 -10z m340 0 c0 -6 -33 -10 -80 -10 -47 0 -80 4 -80 10 0 6 33 10 80 10
47 0 80 -4 80 -10z m340 0 c0 -6 -32 -10 -75 -10 -43 0 -75 4 -75 10 0 6 32
10 75 10 43 0 75 -4 75 -10z m340 0 c0 -6 -32 -10 -75 -10 -43 0 -75 4 -75 10
0 6 32 10 75 10 43 0 75 -4 75 -10z m-1024 -27 c-11 -11 -146 -12 -152 -2 -3
5 32 9 77 9 45 0 79 -3 75 -7z m344 -1 c0 -10 -146 -10 -156 1 -4 4 29 7 74 7
45 0 82 -4 82 -8z m340 0 c0 -5 -34 -8 -75 -8 -41 0 -75 3 -75 8 0 4 34 8 75
8 41 0 75 -4 75 -8z m340 0 c0 -5 -34 -8 -75 -8 -41 0 -75 3 -75 8 0 4 34 8
75 8 41 0 75 -4 75 -8z m-1190 -32 c0 -5 -15 -10 -34 -10 -19 0 -38 5 -41 10
-4 6 10 10 34 10 23 0 41 -4 41 -10z m335 0 c-3 -5 -40 -10 -81 -10 -43 0 -74
4 -74 10 0 6 34 10 81 10 51 0 78 -4 74 -10z m345 0 c0 -6 -31 -10 -74 -10
-41 0 -78 5 -81 10 -4 6 23 10 74 10 47 0 81 -4 81 -10z m340 0 c0 -6 -32 -10
-75 -10 -43 0 -75 4 -75 10 0 6 32 10 75 10 43 0 75 -4 75 -10z m260 0 c0 -5
-16 -10 -35 -10 -19 0 -35 5 -35 10 0 6 16 10 35 10 19 0 35 -4 35 -10z"/>
<path d="M146 1493 c-3 -3 2 -20 11 -37 21 -40 21 -103 0 -146 -9 -18 -17 -34
-17 -34 0 -1 94 -1 210 -1 115 0 210 1 210 1 0 1 -7 18 -15 37 -19 46 -19 104
0 141 22 41 19 46 -22 33 -49 -14 -287 -14 -335 0 -20 6 -39 9 -42 6z m214
-38 c69 -1 133 3 142 9 24 14 32 2 18 -25 -12 -22 -9 -98 5 -131 6 -14 2 -18
-15 -18 -18 0 -20 3 -11 14 7 9 8 17 2 20 -13 8 -42 -4 -35 -15 3 -5 -24 -9
-60 -9 -53 0 -66 3 -66 16 0 10 -7 14 -17 12 -10 -2 -17 -10 -15 -16 1 -8 -12
-12 -37 -12 -21 0 -54 -3 -72 -7 -30 -6 -32 -4 -21 9 15 18 19 89 8 137 -8 33
-8 34 20 26 16 -5 85 -9 154 -10z"/>
<path d="M220 1403 c0 -5 4 -14 9 -22 8 -12 12 -12 25 -2 9 7 13 17 10 22 -6
11 -44 12 -44 2z"/>
<path d="M380 1403 c0 -5 4 -14 9 -22 8 -12 12 -12 25 -2 23 19 20 31 -9 31
-14 0 -25 -3 -25 -7z"/>
<path d="M856 1455 c18 -44 18 -112 -1 -145 -8 -14 -14 -27 -15 -30 0 -3 94
-5 210 -5 116 0 210 2 210 5 -1 3 -7 16 -15 30 -19 33 -19 101 -1 145 20 47 0
45 -22 -2 -9 -21 -21 -41 -27 -45 -6 -4 -5 -15 2 -30 22 -47 34 -81 30 -85 -8
-7 -87 9 -82 18 10 16 -18 22 -30 6 -9 -13 -28 -17 -74 -17 -36 0 -60 4 -56 9
3 5 1 12 -4 15 -12 8 -42 -4 -36 -14 5 -8 -64 -25 -71 -17 -4 4 14 63 28 91 6
12 6 21 0 25 -5 3 -13 17 -17 31 -9 29 -24 50 -36 50 -4 0 -1 -16 7 -35z"/>
<path d="M1030 1396 c0 -21 21 -31 31 -15 14 22 11 29 -11 29 -11 0 -20 -6
-20 -14z"/>
<path d="M1114 999 c-10 -17 13 -36 27 -22 12 12 4 33 -11 33 -5 0 -12 -5 -16
-11z"/>
<path d="M1274 999 c-10 -17 13 -36 27 -22 12 12 4 33 -11 33 -5 0 -12 -5 -16
-11z"/>
<path d="M1194 919 c-11 -19 13 -34 31 -19 13 11 13 15 3 21 -18 12 -26 11
-34 -2z"/>
</g>
</svg>
