<?xml version="1.0" standalone="no"?>
<!DOCTYPE svg PUBLIC "-//W3C//DTD SVG 20010904//EN"
 "http://www.w3.org/TR/2001/REC-SVG-20010904/DTD/svg10.dtd">
<svg version="1.0" xmlns="http://www.w3.org/2000/svg"
 width="164.000000pt" height="105.000000pt" viewBox="0 0 164.000000 105.000000"
 preserveAspectRatio="xMidYMid meet">
<metadata>
Created by potrace 1.10, written by Peter Selinger 2001-2011
</metadata>
<g transform="translate(0.000000,105.000000) scale(0.100000,-0.100000)"
fill="#000000" stroke="none">
<path d="M90 533 c0 -241 3 -322 13 -332 6 -8 7 -11 1 -8 -7 4 -11 -5 -12 -23
0 -20 4 -30 14 -30 12 0 14 53 14 350 l0 350 43 -6 c191 -27 355 -116 462
-252 109 -137 178 -358 146 -470 l-10 -32 47 0 47 0 1 93 c0 190 90 377 242
503 101 83 225 137 365 157 l37 6 0 -351 c0 -307 2 -349 15 -344 8 3 15 4 15
3 0 -1 -4 -17 -9 -35 -7 -23 -6 -32 2 -32 7 0 13 17 14 40 2 25 -2 40 -9 40
-6 0 -8 3 -5 6 3 4 2 15 -3 25 -7 12 -6 20 2 25 7 5 8 3 3 -6 -5 -9 -4 -11 3
-6 9 5 12 96 12 328 l0 321 -70 -7 c-329 -30 -596 -296 -629 -626 -5 -56 -9
-65 -26 -65 -17 0 -21 9 -27 67 -32 328 -300 594 -628 624 l-70 7 0 -320z
m720 -418 c0 -16 -6 -25 -15 -25 -16 0 -19 9 -9 34 9 25 24 19 24 -9z m25 16
c-3 -5 -1 -12 5 -16 15 -9 12 -25 -5 -25 -9 0 -15 9 -15 25 0 14 5 25 11 25 5
0 8 -4 4 -9z"/>
<path d="M0 211 c0 -5 14 -11 31 -15 25 -5 30 -9 23 -23 -5 -10 -8 -46 -7 -80
2 -62 1 -63 -25 -64 -23 -1 -22 -3 8 -8 47 -9 49 -7 39 36 -5 21 -6 66 -3 101
l6 62 -36 0 c-20 0 -36 -4 -36 -9z"/>
<path d="M1550 192 c0 -15 5 -33 12 -40 9 -9 9 -12 0 -12 -16 0 -15 -47 1 -53
10 -4 10 -6 0 -6 -14 -1 -18 -57 -5 -63 4 -2 25 -1 47 3 27 4 31 7 15 8 -39 2
-50 18 -38 54 8 22 8 39 -1 63 -15 42 -8 54 30 54 16 0 29 5 29 10 0 6 -20 10
-45 10 -43 0 -45 -1 -45 -28z"/>
</g>
</svg>
