<?xml version="1.0" standalone="no"?>
<!DOCTYPE svg PUBLIC "-//W3C//DTD SVG 20010904//EN"
 "http://www.w3.org/TR/2001/REC-SVG-20010904/DTD/svg10.dtd">
<svg version="1.0" xmlns="http://www.w3.org/2000/svg"
 width="300.000000pt" height="397.000000pt" viewBox="0 0 300.000000 397.000000"
 preserveAspectRatio="xMidYMid meet">
<metadata>
Created by potrace 1.10, written by Peter Selinger 2001-2011
</metadata>
<g transform="translate(0.000000,397.000000) scale(0.100000,-0.100000)"
fill="#000000" stroke="none">
<path d="M30 1970 l0 -1650 308 0 307 0 0 -117 0 -118 35 0 35 0 3 117 3 118
337 2 337 3 3 588 2 587 234 0 234 0 52 -91 c29 -49 54 -89 56 -87 2 2 25 42
52 89 l49 84 316 3 317 2 -2 1058 -3 1057 -1337 3 -1338 2 0 -1650z m2660
1615 c0 -13 -151 -15 -1322 -13 -1046 2 -1322 6 -1326 16 -3 9 266 12 1322 12
1173 0 1326 -2 1326 -15z m-2620 -1635 c0 -1424 -2 -1610 -15 -1610 -13 0 -15
186 -15 1610 0 1424 2 1610 15 1610 13 0 15 -186 15 -1610z m2573 1322 l2
-282 -317 0 -318 0 0 145 0 145 -682 -2 -683 -3 0 -143 0 -142 -277 0 -278 0
0 285 0 285 1276 -2 1275 -3 2 -283z m47 -738 c0 -816 -3 -1025 -12 -1022 -10
4 -14 220 -16 1026 -2 904 0 1022 13 1022 13 0 15 -119 15 -1026z m-698 591
l3 -135 -23 0 c-24 0 -24 0 -20 115 l3 115 -627 0 -628 0 0 -115 c0 -108 -1
-115 -20 -115 -19 0 -20 7 -20 135 l0 135 664 0 665 0 3 -135z m-52 -25 l0
-110 -610 0 -610 0 0 110 0 110 610 0 610 0 0 -110z m-1298 -270 l-1 -135
-276 -3 -275 -2 0 140 0 140 276 -2 276 -3 0 -135z m58 0 c0 -133 -1 -140 -20
-140 -19 0 -20 7 -20 140 0 133 1 140 20 140 19 0 20 -7 20 -140z m640 0 l0
-140 -310 0 -310 0 0 140 0 140 310 0 310 0 0 -140z m40 -1175 c0 -1162 -2
-1315 -15 -1315 -13 0 -15 153 -15 1315 0 1162 2 1315 15 1315 13 0 15 -153
15 -1315z m560 1175 l0 -140 -270 0 -270 0 0 140 0 140 270 0 270 0 0 -140z
m51 0 c0 -129 -1 -135 -20 -138 -20 -3 -21 1 -21 138 0 137 1 141 21 138 19
-3 20 -9 20 -138z m652 0 l0 -135 -317 -3 -316 -2 0 140 0 140 316 -2 317 -3
0 -135z m-1943 -296 c0 -133 -1 -145 -17 -142 -16 3 -18 19 -21 133 -3 139 -1
155 23 155 13 0 15 -22 15 -146z m1295 3 c0 -108 -3 -133 -15 -138 -8 -4 -18
-5 -22 -2 -9 5 -11 267 -2 275 3 3 13 4 22 1 15 -3 17 -20 17 -136z m-1350 -2
l0 -135 -277 0 -278 0 0 135 0 135 278 0 277 0 0 -135z m695 0 l0 -135 -310 0
-310 0 0 135 0 135 310 0 310 0 0 -135z m600 0 l0 -135 -270 0 -270 0 0 135 0
135 270 0 270 0 0 -135z m705 0 l0 -135 -317 0 -318 0 0 135 0 135 318 0 317
0 0 -135z m-2002 -291 l-1 -135 -276 -2 -276 -2 0 138 0 137 278 0 277 0 -2
-136z m57 -5 c0 -128 -2 -140 -17 -137 -16 3 -18 19 -21 141 -2 132 -2 137 18
137 19 0 20 -6 20 -141z m638 6 l-3 -136 -308 -2 -307 -2 0 138 0 137 310 0
311 0 -3 -135z m602 -2 l0 -138 -270 0 -270 0 0 138 0 137 270 0 270 0 0 -137z
m51 -3 c0 -124 -1 -135 -18 -135 -16 0 -18 12 -21 138 -3 136 -2 138 18 135
21 -3 21 -9 21 -138z m653 5 l-2 -136 -316 -2 -316 -2 0 138 0 137 318 0 317
0 -1 -135z m-2001 -300 l2 -135 -277 0 -277 0 -3 136 c-2 75 -2 136 -1 137 1
1 126 1 278 0 l277 -2 1 -136z m57 5 c0 -133 -1 -140 -20 -140 -19 0 -20 7
-20 133 0 74 3 137 7 140 3 4 12 7 20 7 10 0 13 -30 13 -140z m638 -5 l3 -135
-311 0 -310 0 0 138 0 137 307 -2 308 -3 3 -135z m602 3 l0 -138 -270 0 -270
0 0 138 0 137 270 0 270 0 0 -137z m51 130 c-1 -5 -1 -66 -1 -138 0 -123 -1
-130 -20 -130 -19 0 -20 7 -20 133 0 74 3 137 7 141 9 8 34 4 34 -6z m653
-133 l1 -135 -317 0 -318 0 0 138 0 137 316 -2 316 -3 2 -135z m-2001 -292
l-1 -138 -276 -3 -275 -2 -3 140 -3 140 280 0 280 0 -2 -137z m57 -3 c0 -133
-1 -140 -20 -140 -19 0 -20 7 -20 140 0 133 1 140 20 140 19 0 20 -7 20 -140z
m640 0 l0 -140 -310 0 -310 0 0 140 0 140 310 0 310 0 0 -140z m600 8 c0 -72
-2 -129 -4 -127 -2 2 -14 22 -26 44 -77 140 -105 185 -116 185 -6 0 -22 -8
-34 -18 l-22 -18 52 -89 c29 -50 56 -98 61 -107 9 -17 -4 -18 -221 -18 l-230
0 0 140 0 140 270 0 270 0 0 -132z m54 -6 c-1 -132 -1 -137 -22 -140 -22 -3
-22 -1 -22 137 0 140 0 141 23 141 22 0 22 -1 21 -138z m650 1 l-2 -138 -276
-3 c-152 -1 -276 0 -276 3 0 3 27 52 60 108 l60 102 -22 17 c-13 10 -29 17
-37 15 -7 -1 -42 -54 -77 -117 l-64 -114 0 132 0 132 318 0 317 0 -1 -137z
m-786 -22 c34 -60 62 -112 62 -115 0 -3 -8 -6 -19 -6 -25 0 -143 204 -128 219
6 6 14 11 17 11 3 0 33 -49 68 -109z m320 85 c-2 -6 -28 -55 -58 -108 -45 -81
-59 -98 -79 -98 -22 0 -22 1 -9 23 8 12 38 63 67 114 38 67 56 91 67 86 8 -3
14 -11 12 -17z m-1535 -359 l2 -137 -277 0 -278 0 0 140 0 140 276 -2 276 -3
1 -138z m57 3 c0 -133 -1 -140 -20 -140 -19 0 -20 7 -20 140 0 133 1 140 20
140 19 0 20 -7 20 -140z m640 0 l0 -140 -310 0 -310 0 0 140 0 140 310 0 310
0 0 -140z m600 129 c0 -8 5 -7 16 2 12 10 20 10 35 1 11 -7 19 -8 19 -2 0 5 9
10 20 10 11 0 20 -2 20 -5 0 -2 -16 -34 -36 -70 -42 -76 -41 -76 -93 18 l-32
57 25 0 c14 0 26 -5 26 -11z m-1240 -419 c0 -133 -1 -140 -20 -140 -19 0 -20
7 -20 133 0 74 3 137 7 140 3 4 12 7 20 7 10 0 13 -30 13 -140z m-55 -5 l0
-135 -280 0 -280 0 0 135 0 135 280 0 280 0 0 -135z m695 0 l0 -135 -310 0
-310 0 0 135 0 135 310 0 310 0 0 -135z m-695 -295 l0 -140 -276 0 c-152 0
-278 2 -280 4 -2 2 -3 65 -1 140 l3 136 277 0 277 0 0 -140z m55 0 c0 -133 -1
-140 -20 -140 -19 0 -20 7 -20 140 0 133 1 140 20 140 19 0 20 -7 20 -140z
m640 0 l0 -140 -310 0 -310 0 0 140 0 140 310 0 310 0 0 -140z m-697 -294 l2
-136 -277 0 -277 0 -3 136 c-2 75 -2 136 -1 137 1 1 126 1 278 0 l277 -1 1
-136z m57 4 c0 -133 -1 -140 -20 -140 -19 0 -20 7 -20 133 0 74 3 137 7 140 3
4 12 7 20 7 10 0 13 -30 13 -140z m638 -5 l3 -135 -311 0 -310 0 0 138 0 137
307 -2 308 -2 3 -136z m-638 -266 c0 -100 -2 -110 -17 -107 -16 3 -18 18 -21
111 -3 102 -2 107 18 107 19 0 20 -6 20 -111z"/>
</g>
</svg>
