<?xml version="1.0" standalone="no"?>
<!DOCTYPE svg PUBLIC "-//W3C//DTD SVG 20010904//EN"
 "http://www.w3.org/TR/2001/REC-SVG-20010904/DTD/svg10.dtd">
<svg version="1.0" xmlns="http://www.w3.org/2000/svg"
 width="63.000000pt" height="44.000000pt" viewBox="0 0 63.000000 44.000000"
 preserveAspectRatio="xMidYMid meet">
<metadata>
Created by potrace 1.10, written by Peter Selinger 2001-2011
</metadata>
<g transform="translate(0.000000,44.000000) scale(0.100000,-0.100000)"
fill="#000000" stroke="none">
<path d="M30 432 c0 -5 9 -17 21 -28 11 -10 25 -28 31 -39 6 -11 -10 -1 -34
23 l-44 43 -1 -46 -1 -45 44 0 44 0 -2 -47 c-1 -44 -2 -45 -5 -10 -2 20 -9 37
-15 37 -7 0 -9 -17 -6 -45 3 -26 1 -45 -4 -45 -6 0 -8 -13 -6 -30 4 -26 1 -30
-19 -30 -23 0 -24 -3 -21 -62 l3 -63 60 0 60 0 3 58 c3 52 1 59 -17 64 -17 4
-18 8 -8 24 9 14 9 21 -1 31 -6 6 -12 36 -12 65 0 52 0 53 30 53 20 0 30 -5
30 -15 0 -8 4 -15 8 -15 5 0 6 -38 4 -84 -4 -72 -1 -91 17 -128 39 -78 56 -91
122 -96 58 -4 60 -3 94 32 50 53 70 124 57 206 -6 37 -6 66 -1 68 5 2 9 10 9
18 0 11 17 14 79 14 l79 0 -2 40 c0 21 -7 45 -13 52 -17 16 -17 -4 0 -22 6 -8
0 -4 -15 9 -35 31 -37 13 -3 -19 23 -22 24 -25 9 -33 -14 -8 -25 -2 -52 27
-18 21 -36 36 -38 34 -2 -3 7 -15 21 -28 31 -29 34 -51 3 -24 -21 19 -21 19
-14 -1 4 -12 -10 -3 -38 25 -53 51 -62 44 -14 -10 22 -23 16 -20 -15 10 -55
51 -64 43 -11 -11 l35 -36 -55 1 c-51 1 -58 4 -101 46 -56 55 -59 43 -4 -17
33 -36 38 -47 29 -59 -13 -15 -65 -20 -56 -5 7 11 -28 43 -38 34 -3 -4 -29 15
-56 42 -58 57 -68 50 -13 -10 27 -29 23 -26 -15 10 -60 57 -70 50 -15 -10 27
-29 23 -26 -15 10 -60 56 -71 50 -14 -8 21 -23 29 -35 17 -30 -11 6 -25 9 -31
6 -6 -2 -27 14 -48 37 -20 22 -36 36 -36 32z m235 -132 c-3 -5 -11 -10 -17
-10 -7 0 -22 -10 -35 -22 -19 -17 -23 -18 -23 -6 0 36 12 48 47 48 20 0 32 -4
28 -10z m173 -18 l3 -22 -35 21 c-44 26 -45 31 -3 27 24 -2 33 -8 35 -26z
m-32 -20 c48 -38 51 -87 13 -164 -29 -58 -57 -78 -105 -78 -37 0 -47 5 -68 33
-62 81 -72 153 -27 198 27 26 35 29 98 29 49 0 74 -5 89 -18z m-306 -55 c0 -8
-3 -17 -7 -20 -9 -9 -34 13 -27 24 8 14 34 11 34 -4z m18 -70 c4 -18 3 -18
-22 -1 -25 15 -28 15 -45 0 -24 -22 -34 -20 -21 5 15 27 83 24 88 -4z"/>
<path d="M235 235 c-34 -33 -32 -77 5 -142 49 -86 115 -81 164 12 47 91 10
155 -90 155 -45 0 -59 -4 -79 -25z m143 -11 c63 -41 -14 -197 -83 -166 -24 11
-65 86 -65 119 0 50 96 80 148 47z"/>
<path d="M60 433 c0 -5 14 -22 31 -39 23 -21 29 -23 21 -9 -13 25 -52 62 -52
48z"/>
<path d="M222 434 c11 -42 119 -124 114 -88 -3 17 -78 96 -85 89 -2 -3 13 -23
34 -45 22 -22 34 -40 28 -40 -6 0 -30 21 -53 48 -23 26 -40 42 -38 36z"/>
<path d="M310 434 c0 -13 68 -79 75 -73 2 3 -13 23 -35 44 -22 22 -40 35 -40
29z"/>
<path d="M380 433 c0 -5 16 -25 37 -44 l36 -34 -21 31 c-24 36 -52 61 -52 47z"/>
<path d="M540 433 c0 -5 14 -22 31 -39 23 -21 29 -23 21 -9 -13 25 -52 62 -52
48z"/>
</g>
</svg>
