<?xml version="1.0" standalone="no"?>
<!DOCTYPE svg PUBLIC "-//W3C//DTD SVG 20010904//EN"
 "http://www.w3.org/TR/2001/REC-SVG-20010904/DTD/svg10.dtd">
<svg version="1.0" xmlns="http://www.w3.org/2000/svg"
 width="300.000000pt" height="418.000000pt" viewBox="0 0 300.000000 418.000000"
 preserveAspectRatio="xMidYMid meet">
<metadata>
Created by potrace 1.10, written by Peter Selinger 2001-2011
</metadata>
<g transform="translate(0.000000,418.000000) scale(0.100000,-0.100000)"
fill="#000000" stroke="none">
<path d="M90 3850 c-19 -19 -20 -33 -20 -495 0 -462 1 -476 20 -495 19 -19 33
-20 384 -20 l364 0 4 -55 3 -55 -156 0 -156 0 -22 -97 c-44 -196 -52 -267 -58
-508 -4 -189 -2 -266 11 -365 80 -610 342 -1071 707 -1245 105 -49 202 -68
319 -62 456 26 836 526 946 1247 14 86 18 177 18 365 0 251 -2 276 -46 510
-32 172 -11 155 -193 155 l-155 0 0 55 0 55 370 0 c367 0 369 0 390 22 20 21
20 33 20 495 0 460 -1 474 -20 493 -20 20 -33 20 -1365 20 -1332 0 -1345 0
-1365 -20z m2701 -10 c18 -10 19 -26 19 -485 0 -289 -4 -476 -10 -480 -15 -9
-2683 -6 -2693 4 -13 13 -10 940 4 957 10 12 216 14 1336 14 894 0 1331 -3
1344 -10z m-751 -1055 l0 -55 -585 0 -585 0 0 55 0 55 585 0 585 0 0 -55z
m327 -135 c90 -392 86 -839 -11 -1212 -111 -427 -349 -766 -631 -899 -181 -85
-350 -86 -532 -4 -128 59 -218 130 -325 257 -182 216 -317 551 -374 928 -24
161 -25 521 0 680 18 117 53 286 62 302 3 4 409 7 902 6 l897 -3 12 -55z"/>
</g>
</svg>
