<?xml version="1.0" standalone="no"?>
<!DOCTYPE svg PUBLIC "-//W3C//DTD SVG 20010904//EN"
 "http://www.w3.org/TR/2001/REC-SVG-20010904/DTD/svg10.dtd">
<svg version="1.0" xmlns="http://www.w3.org/2000/svg"
 width="259.000000pt" height="187.000000pt" viewBox="0 0 259.000000 187.000000"
 preserveAspectRatio="xMidYMid meet">
<metadata>
Created by potrace 1.10, written by Peter Selinger 2001-2011
</metadata>
<g transform="translate(0.000000,187.000000) scale(0.100000,-0.100000)"
fill="#000000" stroke="none">
<path d="M140 965 l0 -795 308 2 307 3 3 483 2 482 875 0 875 0 0 310 0 310
-1185 0 -1185 0 0 -795z m1193 768 l-1163 -3 -3 -773 -2 -772 -3 778 -2 777
1168 -2 1167 -3 -1162 -2z m1157 -298 l0 -275 -875 0 -875 0 0 -485 0 -485
-275 2 -275 3 -3 758 -2 757 1153 0 1152 0 0 -275z"/>
<path d="M1203 1645 c-29 -30 -37 -33 -102 -37 -105 -6 -105 -7 -109 -188 -3
-148 -3 -150 22 -175 l25 -25 213 0 c174 1 217 3 233 16 18 13 20 29 23 167 4
199 3 200 -127 205 -80 4 -91 6 -91 22 0 59 -39 65 -87 15z m51 -14 c3 -5 -12
-20 -34 -35 -26 -17 -41 -22 -46 -15 -4 7 -1 15 7 20 8 4 23 15 34 23 23 18
32 19 39 7z m11 -148 c-10 -40 -22 -25 -28 35 -3 44 -1 61 12 76 15 17 16 15
19 -35 2 -29 1 -63 -3 -76z m-108 90 c3 -8 -14 -13 -54 -15 l-58 -3 -3 -134
c-1 -74 1 -138 5 -142 4 -4 98 -9 208 -10 l200 -2 0 144 0 144 -82 3 c-65 2
-83 6 -83 17 0 22 147 21 178 -1 21 -14 22 -22 22 -156 0 -118 -3 -145 -17
-160 -15 -16 -35 -18 -221 -18 -177 0 -208 2 -224 17 -16 14 -18 33 -18 155 0
126 2 140 21 159 16 16 30 19 71 17 29 -2 53 -8 55 -15z m63 -72 c0 -76 54
-82 65 -7 l7 46 74 0 74 0 0 -130 0 -131 -190 1 -190 2 0 129 0 129 80 0 80 0
0 -39z"/>
<path d="M1228 1409 c-21 -12 -24 -49 -6 -67 18 -18 56 -14 68 7 12 24 4 48
-21 61 -21 12 -20 12 -41 -1z m42 -24 c13 -16 6 -35 -15 -35 -18 0 -28 17 -21
35 7 19 20 19 36 0z"/>
<path d="M763 1600 c-12 -5 -26 -18 -32 -29 -12 -22 -15 -300 -3 -317 15 -23
53 -34 121 -34 109 0 111 4 111 194 l0 155 -26 20 c-21 16 -40 21 -88 20 -33
0 -71 -4 -83 -9z m158 -29 c23 -19 24 -24 24 -161 0 -168 -1 -170 -104 -170
-99 0 -101 3 -101 176 0 136 1 144 22 158 33 23 129 21 159 -3z"/>
<path d="M765 1538 c-3 -13 -4 -77 -3 -143 l3 -120 75 0 75 0 3 120 c4 170 6
165 -78 165 -64 0 -70 -2 -75 -22z m133 -125 l-3 -128 -55 0 -55 0 -3 128 -3
127 61 0 61 0 -3 -127z"/>
<path d="M817 1402 c-33 -37 -9 -80 38 -68 20 5 25 13 25 36 0 19 -7 33 -19
40 -25 13 -25 13 -44 -8z m46 -38 c-3 -8 -12 -14 -19 -14 -20 0 -30 30 -13 40
17 11 40 -7 32 -26z"/>
<path d="M1814 1487 c-35 -32 -39 -40 -39 -85 0 -63 26 -101 82 -121 35 -13
46 -13 79 0 127 48 101 224 -34 237 -46 4 -53 2 -88 -31z m99 -6 c-7 -28 -56
-83 -92 -104 l-31 -18 0 35 c0 34 1 35 41 38 41 3 51 11 63 51 7 23 25 22 19
-2z m41 0 c3 -5 -2 -15 -11 -22 -23 -20 -73 -100 -73 -118 0 -9 -5 -23 -10
-31 -7 -12 -13 -11 -34 9 l-25 24 36 24 c42 29 68 58 84 96 12 28 23 34 33 18z
m2 -52 c-14 -17 -33 -55 -42 -85 -15 -52 -34 -73 -34 -36 1 25 38 104 62 130
32 33 44 27 14 -9z m15 -35 c-11 -22 -22 -50 -24 -63 -4 -24 -27 -43 -27 -23
0 33 55 140 67 129 2 -3 -5 -22 -16 -43z m14 -50 c-24 -37 -29 -23 -9 22 13
29 18 34 21 21 3 -10 -3 -29 -12 -43z"/>
<path d="M2142 1477 c-30 -32 -29 -87 1 -115 35 -33 99 -30 127 5 27 34 22 89
-11 116 -31 25 -91 22 -117 -6z m98 -37 c8 -14 8 -26 0 -40 -19 -35 -80 -20
-80 20 0 40 61 55 80 20z"/>
<path d="M1702 1388 c11 -35 24 -67 28 -73 4 -5 10 -22 14 -37 11 -47 24 -31
21 25 -4 65 -26 122 -53 136 -32 17 -32 15 -10 -51z"/>
<path d="M511 1404 c-20 -25 -22 -26 -39 -10 -10 9 -21 16 -25 16 -8 0 -137
-168 -137 -179 0 -13 131 -112 140 -106 16 10 130 165 130 176 0 7 -7 17 -16
23 -14 11 -14 15 3 44 18 32 18 33 -1 47 -27 20 -31 19 -55 -11z m45 -22 c-3
-5 -19 -12 -35 -15 -36 -8 -71 -58 -99 -143 -10 -32 -22 -53 -26 -46 -11 19
70 187 92 190 11 2 28 12 38 23 17 19 43 12 30 -9z m-142 -98 c-39 -85 -42
-90 -49 -83 -2 3 9 32 25 66 16 33 34 73 41 89 6 16 13 24 16 18 2 -6 -13 -47
-33 -90z m96 -20 c-11 -38 -18 -53 -16 -34 3 19 8 45 12 58 5 16 2 22 -9 22
-16 0 -57 -94 -57 -130 0 -11 -5 -20 -10 -20 -24 0 27 130 68 173 36 37 39 20
12 -69z m-136 6 c-14 -27 -30 -47 -35 -44 -8 4 47 94 58 94 2 0 -9 -22 -23
-50z m102 -55 c-16 -61 -26 -80 -26 -48 0 24 31 116 37 110 2 -3 -3 -31 -11
-62z"/>
<path d="M220 1020 c-7 -14 -10 -93 -8 -236 2 -178 6 -216 18 -224 8 -5 112
-10 231 -10 172 0 219 3 228 14 8 9 11 82 9 242 l-3 229 -232 3 c-225 2 -232
2 -243 -18z m458 -222 l-3 -223 -215 -2 c-159 -2 -216 1 -222 10 -9 15 -11
421 -1 430 3 4 105 7 225 7 l218 0 -2 -222z"/>
<path d="M295 955 c-69 -68 13 -179 98 -133 80 42 52 158 -38 158 -25 0 -44
-8 -60 -25z m105 -15 c11 -11 20 -30 20 -42 0 -29 -38 -68 -67 -68 -52 0 -82
72 -46 112 21 24 68 23 93 -2z"/>
<path d="M527 942 c-23 -25 -21 -58 3 -82 24 -24 48 -25 78 -4 26 18 30 65 6
88 -21 22 -67 20 -87 -2z m71 -14 c18 -18 14 -46 -7 -58 -25 -13 -48 -4 -56
21 -12 38 35 65 63 37z"/>
<path d="M325 793 c-54 -13 -85 -77 -66 -136 27 -79 148 -90 187 -16 29 58 11
114 -46 144 -30 15 -40 16 -75 8z m86 -42 c37 -38 39 -82 4 -116 -70 -71 -186
22 -129 103 33 48 84 53 125 13z"/>
<path d="M515 755 c-34 -33 -34 -93 -2 -123 35 -33 99 -30 126 4 47 60 10 144
-64 144 -25 0 -44 -8 -60 -25z m105 -15 c41 -41 13 -112 -45 -112 -50 0 -82
49 -59 94 22 42 71 51 104 18z"/>
</g>
</svg>
