<?xml version="1.0" standalone="no"?>
<!DOCTYPE svg PUBLIC "-//W3C//DTD SVG 20010904//EN"
 "http://www.w3.org/TR/2001/REC-SVG-20010904/DTD/svg10.dtd">
<svg version="1.0" xmlns="http://www.w3.org/2000/svg"
 width="121.000000pt" height="300.000000pt" viewBox="0 0 121.000000 300.000000"
 preserveAspectRatio="xMidYMid meet">
<metadata>
Created by potrace 1.10, written by Peter Selinger 2001-2011
</metadata>
<g transform="translate(0.000000,300.000000) scale(0.100000,-0.100000)"
fill="#000000" stroke="none">
<path d="M377 2936 c-37 -7 -74 -19 -81 -27 -8 -7 -47 -140 -86 -294 -40 -154
-81 -315 -92 -357 -11 -43 -18 -84 -15 -91 7 -19 103 -35 247 -42 63 -3 144
-8 180 -11 l65 -6 -3 -929 -2 -929 -23 -4 c-12 -3 -50 -7 -84 -10 -64 -6 -159
-41 -181 -69 -21 -25 14 -51 89 -68 99 -22 385 -19 471 5 80 22 98 38 74 65
-26 28 -103 58 -171 65 -33 4 -72 9 -87 12 l-28 6 0 927 0 928 181 12 c184 12
275 26 296 45 17 16 -170 724 -197 747 -10 9 -53 22 -95 28 -97 14 -370 13
-458 -3z m196 -41 l4 -26 -86 7 c-47 4 -97 10 -111 14 -22 6 -19 8 20 13 25 4
56 8 70 11 14 2 41 4 61 5 32 1 37 -2 42 -24z m262 8 c56 -8 23 -18 -87 -27
l-88 -7 0 26 0 27 68 -7 c37 -3 85 -9 107 -12z m-488 -61 c10 -6 0 -82 -42
-333 -30 -178 -55 -325 -55 -327 0 -4 -93 9 -98 13 -2 2 33 143 77 315 45 171
81 318 81 326 0 15 18 18 37 6z m652 -317 c46 -179 82 -327 80 -329 -2 -2 -25
-7 -51 -10 -33 -5 -48 -4 -48 4 0 6 -25 153 -55 327 -55 319 -56 333 -20 333
6 0 48 -146 94 -325z m-562 301 c0 -1 -14 -140 -33 -311 -18 -170 -34 -318
-34 -327 0 -14 -8 -18 -37 -18 -69 0 -69 -13 -12 331 28 173 53 320 55 327 2
8 13 10 31 6 16 -4 29 -7 30 -8z m471 -309 c30 -177 55 -326 55 -332 1 -5 -22
-11 -50 -13 -46 -3 -53 -1 -53 15 0 29 -59 585 -66 615 -5 26 0 30 51 37 6 0
34 -143 63 -322z m-391 206 c-4 -60 -12 -211 -18 -336 -12 -224 -13 -228 -33
-223 -12 3 -36 6 -55 6 -24 0 -32 4 -28 13 3 8 20 156 38 330 l34 317 34 0 34
0 -6 -107z m282 -115 c13 -123 29 -270 36 -328 8 -57 13 -105 12 -106 -1 -1
-25 -5 -52 -9 l-51 -6 -12 253 c-7 139 -15 290 -19 336 l-6 82 35 0 34 0 23
-222z m-189 -118 l0 -330 -55 0 -55 0 5 43 c3 23 9 137 15 252 6 116 13 245
16 288 l6 77 34 0 34 0 0 -330z m87 272 c5 -139 24 -483 29 -539 l6 -63 -54 0
-53 0 0 330 0 330 35 0 35 0 2 -58z m133 -2561 c-24 -7 -24 -8 13 -20 42 -14
47 -26 15 -34 -65 -16 -222 -29 -293 -23 -106 9 -205 26 -205 36 0 5 17 14 37
21 33 10 35 13 18 20 -11 4 84 7 210 7 127 0 219 -3 205 -7z"/>
</g>
</svg>
