<?xml version="1.0" standalone="no"?>
<!DOCTYPE svg PUBLIC "-//W3C//DTD SVG 20010904//EN"
 "http://www.w3.org/TR/2001/REC-SVG-20010904/DTD/svg10.dtd">
<svg version="1.0" xmlns="http://www.w3.org/2000/svg"
 width="300.000000pt" height="250.000000pt" viewBox="0 0 300.000000 250.000000"
 preserveAspectRatio="xMidYMid meet">
<metadata>
Created by potrace 1.10, written by Peter Selinger 2001-2011
</metadata>
<g transform="translate(0.000000,250.000000) scale(0.100000,-0.100000)"
fill="#000000" stroke="none">
<path d="M230 1105 l0 -735 930 0 930 0 0 250 0 250 -680 0 -680 0 -2 483 -3
482 -247 3 -248 2 0 -735z m100 488 l0 -238 -45 0 -45 0 0 238 0 237 45 0 45
0 0 -237z m388 0 l2 -232 -185 -3 -185 -3 0 238 0 237 183 -2 182 -3 3 -232z
m-386 -488 l-3 -235 -44 0 -45 0 0 235 0 235 48 0 47 0 -3 -235z m388 0 l0
-235 -185 0 -185 0 0 235 0 235 185 0 185 0 0 -235z m-10 -485 l0 -240 -235 0
-235 0 0 240 0 240 235 0 235 0 0 -240z m490 55 l0 -185 -237 0 -238 0 0 185
0 185 238 0 237 0 0 -185z m480 0 l0 -185 -235 0 -235 0 0 185 0 185 235 0
235 0 0 -185z m400 -55 l0 -240 -195 0 -195 0 0 240 0 240 195 0 195 0 0 -240z
m-882 -187 l-3 -48 -234 0 -234 0 1 43 c0 23 1 44 1 47 1 3 107 5 237 5 l235
0 -3 -47z m482 -3 l0 -50 -235 0 -235 0 0 50 0 50 235 0 235 0 0 -50z"/>
</g>
</svg>
