<?xml version="1.0" standalone="no"?>
<!DOCTYPE svg PUBLIC "-//W3C//DTD SVG 20010904//EN"
 "http://www.w3.org/TR/2001/REC-SVG-20010904/DTD/svg10.dtd">
<svg version="1.0" xmlns="http://www.w3.org/2000/svg"
 width="153.000000pt" height="145.000000pt" viewBox="0 0 153.000000 145.000000"
 preserveAspectRatio="xMidYMid meet">
<metadata>
Created by potrace 1.10, written by Peter Selinger 2001-2011
</metadata>
<g transform="translate(0.000000,145.000000) scale(0.100000,-0.100000)"
fill="#000000" stroke="none">
<path d="M620 1430 c-42 -24 -166 -64 -259 -85 l-67 -16 -11 -76 -11 -77 -71
-69 c-55 -54 -71 -76 -71 -98 0 -27 14 -47 23 -32 2 5 2 1 -1 -7 -15 -49 -18
-87 -6 -97 6 -7 15 -9 19 -5 4 4 5 -6 1 -23 -4 -20 -4 -25 3 -16 11 17 56 27
46 10 -4 -6 -14 -8 -22 -5 -11 5 -13 2 -9 -10 3 -8 6 -23 6 -31 0 -14 2 -14
19 1 19 17 20 17 31 -4 15 -27 5 -38 -20 -22 -14 9 -20 9 -23 -1 -3 -7 -8 0
-12 15 l-7 28 -20 -25 c-13 -16 -29 -25 -49 -25 -27 0 -39 -13 -21 -24 5 -3
35 -6 68 -7 54 -2 60 -4 60 -23 -1 -12 4 -20 11 -19 7 2 10 -3 7 -11 -6 -15
28 -56 46 -56 15 0 12 16 -9 51 -18 30 -19 65 0 54 17 -11 59 7 59 25 0 18 29
50 31 34 3 -23 5 -33 18 -82 10 -42 11 -59 1 -82 -13 -31 -4 -63 11 -39 5 8 6
21 4 30 -3 9 1 16 10 16 20 0 18 -13 -10 -72 -21 -43 -24 -46 -22 -20 3 45
-27 45 -68 -2 -19 -21 -34 -42 -35 -47 0 -5 3 -6 7 -3 3 4 12 2 19 -4 16 -13
48 -4 39 10 -3 5 -1 12 5 16 16 10 12 -13 -7 -41 -16 -25 -17 -25 -30 -8 -7
10 -13 14 -13 10 0 -4 -13 2 -29 13 -24 17 -30 18 -35 6 -3 -8 -1 -17 5 -21 6
-4 4 -14 -5 -29 -11 -16 -12 -26 -5 -30 6 -4 14 -18 19 -31 6 -14 18 -27 27
-31 25 -9 134 -86 156 -111 15 -16 16 -24 6 -45 l-11 -25 -89 65 c-88 64 -99
76 -79 88 5 3 10 11 10 16 0 6 -5 7 -12 3 -7 -5 -8 -3 -3 7 8 12 6 12 -9 0 -9
-8 -15 -20 -12 -28 3 -8 1 -11 -4 -8 -9 6 -14 -8 -11 -28 1 -5 -3 -6 -8 -3
-12 8 -43 -42 -35 -56 5 -7 18 0 38 23 17 19 30 33 29 30 -5 -8 60 -50 69 -45
5 3 7 0 6 -8 -2 -7 5 -13 14 -13 9 0 20 -4 25 -9 5 -5 2 -6 -7 -1 -13 8 -13 7
-1 -9 8 -9 20 -15 27 -12 7 3 16 0 20 -6 5 -7 2 -8 -7 -4 -8 4 -5 1 5 -8 10
-8 24 -12 30 -9 6 4 -4 -7 -21 -24 -34 -32 -42 -53 -20 -53 6 0 27 23 45 50
35 54 39 65 20 54 -8 -4 -10 -3 -5 2 5 5 12 9 15 9 17 1 62 39 59 49 -3 6 5
26 16 45 12 20 15 31 7 26 -8 -5 -11 -4 -7 3 4 5 17 8 28 5 16 -4 20 -2 17 8
-3 8 1 26 9 41 11 23 20 28 53 28 l39 0 -15 -35 c-20 -49 -18 -80 5 -82 16 -1
26 15 50 79 17 44 31 84 31 89 0 5 3 9 8 10 89 6 162 34 232 88 75 57 164 90
314 116 l38 6 -5 45 c-5 52 -2 56 12 12 5 -18 41 -125 81 -238 39 -113 80
-230 90 -260 10 -30 19 -46 19 -35 1 18 -87 282 -168 505 -17 47 -31 101 -31
120 0 40 23 121 46 165 l16 30 -91 89 c-113 112 -131 138 -171 259 -18 53 -37
97 -41 97 -7 0 38 -137 57 -174 3 -6 -6 3 -20 20 -19 24 -40 35 -78 44 -129
28 -182 43 -284 75 -60 19 -109 35 -109 35 0 -1 -16 -10 -35 -20z m71 -40
c119 -165 142 -203 118 -196 -13 4 -121 32 -239 62 -118 31 -221 59 -228 63
-9 5 1 10 30 14 55 8 209 60 251 85 18 11 34 17 38 13 3 -3 16 -22 30 -41z
m47 20 c68 -26 266 -80 293 -80 36 0 77 -29 111 -78 18 -26 73 -89 123 -140
50 -51 83 -90 75 -86 -24 10 -205 69 -335 109 -66 21 -124 41 -128 45 -5 4 11
17 35 30 97 50 169 93 164 97 -4 4 -87 -39 -184 -94 -16 -9 -35 -14 -43 -11
-8 3 -34 34 -58 69 -24 35 -59 85 -78 112 -19 26 -33 47 -31 47 1 0 27 -9 56
-20z m-232 -151 c110 -28 219 -55 244 -60 65 -13 68 -25 8 -37 -48 -10 -107
-26 -417 -108 -52 -14 -102 -30 -110 -35 -13 -8 -11 -9 9 -5 30 7 373 96 485
126 96 26 125 19 125 -31 0 -18 7 -82 15 -143 23 -172 55 -439 52 -442 -1 -1
-29 13 -61 33 -69 40 -207 86 -318 105 l-78 13 180 229 c99 126 180 234 180
240 0 12 -9 3 -85 -95 -27 -35 -52 -66 -55 -69 -9 -8 -210 -270 -222 -290 -10
-15 -18 -6 -55 71 -42 85 -129 190 -190 230 l-23 14 35 54 c41 64 75 161 75
213 0 21 2 38 4 38 2 0 93 -23 202 -51z m529 -148 c83 -27 191 -61 240 -76 50
-15 91 -29 93 -30 2 -2 -3 -17 -12 -33 -26 -50 -40 -122 -40 -212 l-1 -85 -95
-20 c-110 -24 -173 -50 -240 -100 l-48 -35 -7 62 c-7 74 -52 454 -61 515 -5
41 0 63 14 63 4 0 75 -22 157 -49z m-756 -208 c-8 -10 -18 -21 -24 -26 -6 -4
-3 -11 8 -18 10 -6 14 -15 10 -22 -4 -7 1 -5 11 3 11 8 14 16 7 18 -14 5 -15
42 -1 42 6 0 9 -6 8 -12 -2 -7 2 -12 9 -11 8 2 10 -4 6 -15 -3 -9 -3 -14 2
-10 4 4 13 0 20 -9 10 -14 7 -21 -22 -46 -19 -17 -32 -35 -29 -42 3 -9 -18
-12 -82 -12 l-87 1 77 3 c55 3 78 8 82 18 3 8 1 15 -5 15 -6 0 -7 5 -4 10 3 6
2 10 -4 10 -6 0 -7 8 -4 17 5 12 2 15 -9 10 -11 -4 -15 0 -14 11 2 11 -11 23
-36 34 -49 22 -49 31 0 14 35 -13 38 -12 55 10 10 13 23 24 29 24 6 0 5 -7 -3
-17z m151 -230 c0 -7 6 -13 13 -13 28 -1 224 -39 247 -48 18 -7 29 -22 37 -53
6 -24 14 -51 18 -60 5 -13 -1 -18 -29 -21 -20 -2 -36 -1 -36 2 0 4 -35 21 -78
39 -57 23 -92 46 -127 81 -27 27 -51 47 -55 45 -4 -2 -7 1 -7 8 0 7 -3 30 -7
52 l-6 40 15 -30 c8 -16 14 -36 15 -42z m42 -113 c23 -22 50 -42 60 -46 24 -7
23 -20 -4 -27 -29 -8 -38 -1 -38 31 0 16 -4 22 -9 17 -10 -11 -3 -75 8 -75 4
0 21 -11 39 -23 l32 -24 -24 -22 -23 -21 -76 55 c-66 49 -75 58 -63 71 8 7 22
34 31 59 10 25 20 45 22 45 2 0 22 -18 45 -40z m371 -11 c26 -12 47 -26 47
-29 0 -12 -71 -40 -100 -40 -26 0 -30 5 -44 54 -9 30 -16 57 -16 60 0 7 40 -9
113 -45z m-502 -17 c-5 -10 -17 -24 -25 -32 -13 -10 -16 -10 -16 3 0 9 10 23
22 31 29 20 31 20 19 -2z m257 -69 c2 -12 0 -29 -5 -38 -7 -12 -14 -11 -47 12
l-38 28 28 12 c39 17 58 12 62 -14z m37 17 c-3 -5 1 -23 10 -39 20 -40 20 -41
-15 -41 -28 0 -29 2 -23 33 3 17 10 38 16 45 11 14 21 16 12 2z m-269 -22 c5
-7 3 -8 -6 -3 -9 6 -11 4 -6 -4 5 -7 14 -10 22 -7 7 3 16 0 20 -6 5 -7 2 -8
-6 -3 -9 6 -11 4 -6 -4 5 -7 13 -10 20 -8 6 2 33 -11 61 -29 27 -19 46 -34 42
-34 -5 0 -28 14 -53 30 -24 17 -44 29 -44 26 0 -3 20 -19 45 -36 l45 -31 -26
-35 c-19 -24 -22 -32 -10 -28 9 3 16 11 16 16 0 6 8 4 18 -3 15 -12 16 -12 5
2 -11 13 -7 23 19 57 31 41 48 52 48 33 0 -6 -10 -17 -22 -25 -12 -9 -19 -16
-14 -16 5 0 2 -8 -6 -17 -8 -10 -15 -25 -15 -33 0 -15 -51 -100 -60 -100 -2 0
-1 5 2 10 3 6 2 10 -3 10 -6 0 -12 7 -16 15 -4 12 -2 13 13 5 28 -14 33 10 7
32 -18 14 -19 20 -8 37 6 11 12 23 12 25 0 9 -121 88 -126 83 -3 -3 19 -22 49
-43 48 -34 54 -41 52 -71 -1 -19 -6 -37 -10 -41 -4 -4 -5 10 -4 30 3 36 1 39
-79 98 -45 33 -82 62 -82 65 0 8 38 -13 45 -25 9 -14 25 -12 25 3 0 11 19 37
26 37 2 0 6 -5 10 -12z m301 0 c6 -7 13 -21 16 -30 9 -27 -18 -11 -31 18 -12
25 -2 33 15 12z m41 -75 c-44 -118 -66 -130 -29 -18 11 33 17 63 14 68 -3 5 1
13 8 18 35 22 36 6 7 -68z"/>
<path d="M891 1123 c13 -15 26 -30 29 -33 3 -3 90 -96 193 -207 104 -112 191
-203 193 -203 10 0 -12 30 -56 77 -25 26 -108 116 -184 198 -157 170 -182 195
-192 195 -4 0 3 -12 17 -27z"/>
<path d="M291 831 c-9 -15 -7 -18 11 -17 26 1 35 21 14 29 -9 4 -20 -1 -25
-12z"/>
<path d="M1277 1444 c-14 -14 -7 -43 12 -54 39 -21 71 -12 86 23 15 36 10 52
-8 22 -6 -11 -12 -23 -13 -27 -1 -5 -2 -11 -3 -15 -1 -5 -6 -1 -11 7 -5 8 -10
10 -10 4 0 -6 -6 -11 -14 -11 -8 0 -12 5 -10 11 6 15 -19 49 -29 40z"/>
<path d="M1440 1448 c1 -15 89 -219 90 -208 1 21 -73 210 -82 210 -5 0 -8 -1
-8 -2z"/>
<path d="M1049 554 c-12 -14 -10 -20 14 -40 l28 -24 -26 0 c-15 0 -24 -4 -20
-10 12 -19 -7 -10 -25 13 -14 16 -21 19 -30 11 -8 -8 -9 -14 -1 -18 16 -10
-35 -74 -62 -78 -14 -2 -23 -11 -25 -26 -3 -17 -8 -21 -22 -17 -22 7 -36 -11
-21 -29 6 -7 8 -15 5 -18 -3 -3 6 -18 20 -33 35 -38 33 -45 -12 -45 -45 0 -56
-8 -41 -27 7 -7 31 -13 59 -13 l47 0 32 -60 c29 -55 65 -90 78 -76 3 3 -3 20
-14 38 l-20 33 50 57 c54 62 72 74 81 52 4 -10 2 -13 -7 -8 -8 5 -7 2 2 -9 7
-9 20 -17 27 -17 11 0 10 9 -7 41 -11 23 -16 38 -11 35 5 -3 15 1 22 9 7 8 11
15 8 15 -2 0 29 35 69 78 65 69 86 102 66 102 -4 0 -24 -17 -45 -37 l-38 -37
-28 27 c-16 15 -32 24 -37 20 -4 -5 -5 -3 -2 3 3 6 -11 26 -31 45 -62 59 -68
61 -83 43z m91 -69 c7 -8 9 -15 5 -15 -4 0 -2 -7 5 -15 6 -8 15 -14 18 -13 17
2 23 -3 17 -13 -5 -7 -16 -3 -31 12 -13 12 -21 25 -19 30 9 13 -16 22 -28 10
-6 -6 -15 -11 -21 -11 -10 0 24 29 35 30 4 0 12 -7 19 -15z m-127 -26 c-12
-12 -8 -20 37 -67 14 -14 20 -22 14 -19 -7 4 -15 0 -18 -9 -5 -14 1 -15 39
-12 l44 5 -27 -32 c-15 -17 -33 -30 -39 -27 -15 5 -17 -14 -3 -23 6 -3 10 -11
10 -17 0 -6 -9 -3 -20 7 -21 19 -23 44 -5 57 6 5 5 8 -2 8 -7 0 -13 7 -13 15
0 9 -9 15 -22 15 -12 0 -30 8 -41 18 -19 16 -20 16 -9 -4 6 -12 8 -24 4 -28
-3 -4 1 -4 11 0 11 4 19 0 23 -10 3 -9 10 -14 14 -11 4 3 11 -2 14 -11 6 -15
4 -15 -19 0 -24 16 -25 15 -40 -14 -17 -33 -30 -38 -39 -15 -3 8 -15 15 -26
15 -11 0 -20 4 -20 10 0 5 13 7 30 4 38 -8 66 2 52 19 -10 12 -12 17 -12 40 0
8 -4 7 -10 -3 -8 -13 -10 -13 -10 1 0 14 33 38 36 27 0 -2 9 3 18 11 9 8 15
20 12 26 -4 12 11 35 23 35 3 0 0 -5 -6 -11z m128 -25 c23 -22 30 -24 48 -15
15 8 21 9 21 1 0 -12 -76 -49 -102 -50 -13 0 -48 43 -66 83 -2 4 13 7 34 7 27
0 46 -7 65 -26z m-194 -96 c1 -11 -5 -18 -17 -18 -20 0 -34 15 -26 28 9 15 42
8 43 -10z m74 -65 c13 -14 19 -23 12 -19 -6 3 -14 2 -18 -4 -3 -5 -20 -10 -36
-10 l-31 0 24 29 c13 17 23 30 24 30 0 1 11 -11 25 -26z m-71 -52 c0 -4 -24
-8 -52 -8 -33 -1 -46 2 -33 6 10 4 30 7 43 5 18 -2 22 1 18 13 -5 13 -4 14 9
3 8 -7 15 -16 15 -19z m105 10 c-6 -6 -30 -12 -55 -15 l-45 -6 40 14 c48 17
73 20 60 7z m-35 -46 c-18 -19 -26 -22 -32 -13 -12 19 -10 26 10 31 40 11 45
7 22 -18z"/>
</g>
</svg>
