<?xml version="1.0" standalone="no"?>
<!DOCTYPE svg PUBLIC "-//W3C//DTD SVG 20010904//EN"
 "http://www.w3.org/TR/2001/REC-SVG-20010904/DTD/svg10.dtd">
<svg version="1.0" xmlns="http://www.w3.org/2000/svg"
 width="64.000000pt" height="109.000000pt" viewBox="0 0 64.000000 109.000000"
 preserveAspectRatio="xMidYMid meet">
<metadata>
Created by potrace 1.10, written by Peter Selinger 2001-2011
</metadata>
<g transform="translate(0.000000,109.000000) scale(0.100000,-0.100000)"
fill="#000000" stroke="none">
<path d="M324 915 c-16 -24 -16 -27 2 -43 14 -13 28 -16 49 -11 l30 7 -28 1
c-26 1 -28 3 -21 36 8 42 -8 47 -32 10z"/>
<path d="M215 900 c-10 -11 -15 -23 -12 -26 10 -10 35 3 47 25 15 28 -10 29
-35 1z"/>
<path d="M138 845 c2 -19 10 -35 16 -35 7 0 23 -12 37 -26 l24 -27 -30 7 c-24
6 -28 5 -17 -5 14 -15 16 -49 4 -49 -5 0 -14 18 -21 40 -6 22 -16 40 -21 40
-13 0 -12 -7 2 -46 10 -28 9 -35 -10 -59 -23 -29 -29 -55 -12 -55 5 0 14 8 19
18 7 12 10 13 11 3 0 -8 9 -3 21 13 21 27 65 37 56 12 -3 -8 1 -13 10 -12 28
2 24 -19 -8 -43 -35 -26 -51 -21 -24 9 10 11 13 20 7 20 -6 0 -14 -4 -17 -10
-3 -5 -15 -10 -26 -10 -10 0 -19 -4 -19 -9 0 -5 -18 -11 -40 -15 -48 -8 -44
-26 6 -26 33 0 45 -12 24 -25 -6 -3 -10 -21 -10 -38 0 -25 3 -29 10 -17 7 10
9 -16 8 -83 -3 -92 -4 -98 -25 -103 -27 -7 -21 -24 8 -24 11 0 19 -6 18 -12
-1 -7 -1 -50 0 -95 l1 -83 45 0 c33 0 45 -4 45 -15 0 -8 5 -15 10 -15 6 0 10
4 10 9 0 14 -29 77 -30 64 0 -7 -5 -13 -11 -13 -6 0 1 14 15 31 14 17 26 43
27 57 0 25 1 26 12 8 7 -10 24 -30 40 -44 36 -33 34 -42 -9 -42 -21 0 -33 4
-29 10 3 5 2 10 -3 10 -5 0 -9 -13 -10 -30 l-1 -30 59 0 c52 0 59 -2 53 -17
-5 -15 -3 -14 10 2 14 17 19 18 37 7 12 -8 19 -9 15 -3 -3 7 2 11 15 11 19 0
21 5 18 41 -3 35 -7 43 -35 54 -18 8 -33 13 -33 11 0 -2 14 -18 31 -35 37 -39
30 -53 -10 -23 l-29 21 -16 -22 -15 -22 0 25 c0 14 6 34 14 44 8 11 15 29 14
40 0 15 -5 9 -16 -16 -8 -21 -19 -38 -24 -38 -15 0 -10 44 7 68 8 12 12 27 8
33 -4 8 -9 7 -16 -2 -8 -11 -9 -10 -5 3 3 9 -3 24 -13 33 -10 9 -21 32 -25 51
-3 19 -10 32 -14 30 -13 -8 -48 22 -54 45 -4 16 -3 19 6 10 18 -18 22 -13 24
31 2 32 0 39 -9 30 -20 -20 -28 -14 -18 14 13 33 13 34 -6 27 -8 -3 -13 -12
-10 -20 5 -11 0 -13 -17 -8 -20 5 -19 4 6 -15 34 -27 35 -43 1 -30 l-25 10 21
-31 c12 -16 19 -33 16 -36 -3 -4 -6 0 -6 8 0 12 -2 12 -9 0 -8 -12 -12 -12
-25 -2 -18 15 -22 36 -4 25 6 -4 9 -3 7 2 -3 5 -11 21 -18 36 -11 21 -11 30
-2 42 7 8 9 25 5 43 -7 27 -6 28 13 10 24 -21 43 -22 43 -2 0 8 11 22 26 31
30 20 31 66 1 70 -10 1 -25 8 -32 14 -20 16 -19 41 0 34 12 -5 15 2 15 30 0
37 13 48 24 21 3 -8 3 -28 0 -44 -4 -16 -1 -32 5 -35 7 -5 11 2 11 19 0 14 4
24 9 20 5 -3 12 -1 16 5 8 13 95 13 95 -1 0 -6 9 -8 20 -4 22 7 26 -5 8 -23
-17 -17 -39 -15 -32 3 7 17 -11 21 -21 5 -4 -6 -23 -9 -43 -8 -30 2 -37 -1
-40 -17 -3 -16 -1 -18 9 -7 7 6 29 12 48 12 33 0 34 0 16 -20 -17 -19 -17 -20
13 -33 29 -12 30 -15 17 -30 -8 -9 -10 -12 -3 -7 7 6 23 10 36 10 l24 0 -23
-19 c-20 -17 -22 -22 -10 -33 12 -11 13 -10 7 6 -6 17 -2 18 36 12 24 -3 50
-2 58 4 11 7 7 10 -17 10 -26 0 -33 4 -33 20 0 15 -7 20 -28 20 -15 0 -32 4
-37 9 -6 5 -19 11 -30 13 -16 4 -15 6 10 13 17 4 42 18 56 32 22 20 26 33 28
88 2 75 -10 83 -61 40 -19 -16 -42 -25 -64 -25 -30 0 -34 3 -34 25 0 19 -5 25
-21 25 -11 0 -19 -3 -17 -7 3 -5 11 -23 18 -40 15 -34 24 -40 35 -23 3 6 25
10 48 10 39 0 40 -1 24 -17 -9 -9 -36 -18 -61 -19 -39 -2 -48 1 -66 23 -20 25
-21 25 -40 8 -19 -18 -20 -17 -20 4 0 13 9 26 25 33 14 6 25 15 25 20 0 13
-12 10 -32 -9 -17 -15 -18 -15 -18 0 0 10 -8 17 -19 17 -11 0 -26 2 -33 5 -11
4 -13 -3 -10 -30z m42 -6 c7 -11 9 -23 6 -26 -8 -9 -36 17 -36 33 0 21 18 17
30 -7z m58 -457 c-3 -18 -66 -58 -75 -48 -11 11 47 75 63 69 8 -3 14 -13 12
-21z m36 -11 c6 -10 -53 -65 -61 -57 -7 6 36 66 47 66 5 0 11 -4 14 -9z m26
-81 c6 -12 10 -35 8 -53 l-4 -32 -19 32 c-11 18 -23 33 -27 33 -12 0 -80 -72
-74 -78 3 -3 15 3 26 13 11 10 20 13 20 7 0 -7 -4 -12 -9 -12 -5 0 -14 -13
-21 -30 -17 -41 -30 -38 -28 8 1 55 23 92 59 99 17 3 33 12 36 19 7 20 21 17
33 -6z m109 -164 c9 -11 6 -15 -14 -18 -28 -6 -27 -6 -19 16 8 20 18 20 33 2z"/>
<path d="M620 565 c0 -190 4 -295 10 -295 6 0 10 105 10 295 0 190 -4 295 -10
295 -6 0 -10 -105 -10 -295z"/>
<path d="M50 784 c0 -35 8 -46 40 -60 l25 -11 -32 -17 c-31 -16 -53 -43 -53
-66 0 -18 59 29 74 58 17 32 4 74 -33 106 -21 19 -21 19 -21 -10z"/>
<path d="M473 748 c-6 -7 -13 -22 -17 -33 -6 -17 -4 -17 21 5 15 14 32 28 38
32 5 5 0 8 -12 8 -11 0 -25 -6 -30 -12z"/>
<path d="M3 718 c2 -7 12 -13 22 -13 10 0 20 6 23 13 2 7 -6 12 -23 12 -17 0
-25 -5 -22 -12z"/>
<path d="M492 703 c-24 -10 0 -23 44 -23 47 0 59 14 22 24 -26 7 -48 7 -66 -1z"/>
<path d="M430 675 c7 -9 18 -14 23 -12 6 2 19 -5 29 -15 15 -15 68 -26 68 -14
0 10 -74 46 -86 42 -7 -3 -16 -1 -19 4 -4 6 -11 10 -17 10 -6 0 -6 -6 2 -15z"/>
<path d="M274 607 c-3 -9 3 -25 15 -38 12 -13 21 -27 21 -31 0 -5 5 -6 10 -3
18 11 11 41 -15 65 -21 20 -25 21 -31 7z"/>
<path d="M86 551 c-29 -17 -66 -81 -47 -81 6 0 13 5 16 10 11 17 23 11 27 -12
2 -15 11 -24 26 -26 27 -4 28 8 2 41 -25 32 -25 42 0 67 24 24 15 25 -24 1z"/>
<path d="M485 550 c10 -11 27 -20 38 -20 19 0 20 1 2 20 -10 11 -27 20 -38 20
-19 0 -20 -1 -2 -20z"/>
<path d="M422 517 c3 -26 1 -50 -4 -53 -5 -3 -7 -12 -4 -19 7 -19 -5 -27 -21
-13 -7 6 -16 8 -19 5 -11 -11 21 -33 56 -40 19 -3 29 -3 22 0 -9 4 -10 8 -2
18 6 7 10 17 9 21 -1 5 -1 29 0 53 1 39 3 42 18 30 15 -13 15 -12 2 9 -8 12
-16 17 -18 11 -2 -6 -11 -3 -23 8 -21 18 -21 18 -16 -30z"/>
<path d="M280 468 c0 -27 5 -48 10 -48 6 0 10 7 10 15 0 9 6 18 14 21 8 3 17
13 21 22 5 13 3 14 -6 5 -9 -9 -16 -7 -30 10 -18 22 -18 22 -19 -25z"/>
<path d="M487 452 c-36 -39 -3 -46 33 -7 23 24 23 25 3 25 -11 0 -27 -8 -36
-18z"/>
<path d="M30 425 c7 -8 19 -15 26 -15 8 0 14 7 14 15 0 10 -10 15 -26 15 -22
0 -25 -2 -14 -15z"/>
<path d="M517 413 c-9 -2 -15 -8 -12 -13 3 -4 -5 -6 -17 -3 -20 4 -19 1 10
-26 30 -28 92 -45 77 -21 -3 6 -12 10 -19 10 -8 0 -19 7 -26 15 -11 13 -7 15
29 15 41 0 55 13 25 24 -17 7 -39 6 -67 -1z"/>
<path d="M94 400 c-20 -8 -52 -70 -36 -70 12 0 72 58 72 69 0 13 -7 13 -36 1z"/>
<path d="M380 370 c8 -5 23 -10 33 -10 10 0 15 -5 12 -11 -5 -7 -25 -8 -57 -4
-36 5 -49 4 -44 -4 11 -17 136 -10 136 8 0 9 -52 31 -74 31 -17 0 -18 -2 -6
-10z"/>
<path d="M431 316 c-7 -8 -8 -17 -3 -20 5 -3 12 -17 15 -32 4 -24 2 -26 -24
-22 -16 3 -29 1 -29 -4 0 -4 6 -8 14 -8 7 0 19 -7 26 -15 7 -8 16 -15 21 -15
12 0 11 67 -1 89 -8 17 -5 18 34 14 28 -4 46 -1 51 7 6 9 -3 11 -34 8 -22 -2
-41 0 -41 4 0 13 -17 9 -29 -6z"/>
<path d="M470 268 c0 -15 24 -48 36 -48 10 0 3 20 -16 41 -15 19 -19 21 -20 7z"/>
<path d="M509 260 c25 -21 51 -26 51 -10 0 12 -34 30 -57 30 -16 -1 -15 -3 6
-20z"/>
<path d="M88 243 c-19 -22 -32 -63 -20 -63 11 0 47 40 55 63 4 10 1 17 -7 17
-7 0 -20 -8 -28 -17z"/>
</g>
</svg>
