<?xml version="1.0" standalone="no"?>
<!DOCTYPE svg PUBLIC "-//W3C//DTD SVG 20010904//EN"
 "http://www.w3.org/TR/2001/REC-SVG-20010904/DTD/svg10.dtd">
<svg version="1.0" xmlns="http://www.w3.org/2000/svg"
 width="148.000000pt" height="212.000000pt" viewBox="0 0 148.000000 212.000000"
 preserveAspectRatio="xMidYMid meet">
<metadata>
Created by potrace 1.10, written by Peter Selinger 2001-2011
</metadata>
<g transform="translate(0.000000,212.000000) scale(0.100000,-0.100000)"
fill="#000000" stroke="none">
<path d="M797 2015 c-354 -67 -647 -361 -747 -749 -53 -206 -49 -380 12 -601
51 -183 131 -335 227 -429 62 -61 76 -57 18 4 -117 125 -195 281 -244 490 -28
117 -25 397 5 509 106 402 402 696 766 760 83 15 154 14 242 -5 89 -18 106
-13 34 10 -72 24 -219 29 -313 11z"/>
<path d="M903 1953 c-13 -2 -23 -10 -23 -17 0 -10 10 -10 45 -2 27 6 39 13 32
18 -13 8 -17 8 -54 1z"/>
<path d="M1010 1931 c19 -16 37 -27 40 -24 7 7 -48 53 -63 53 -7 0 4 -14 23
-29z"/>
<path d="M1094 1920 c-22 -9 -42 -30 -28 -30 17 0 74 25 74 32 0 10 -19 9 -46
-2z"/>
<path d="M700 1903 c-45 -15 -45 -15 -22 -24 17 -6 27 -4 42 11 19 19 12 24
-20 13z"/>
<path d="M1150 1901 c0 -5 11 -12 25 -15 14 -4 25 -11 25 -16 0 -6 5 -10 12
-10 6 0 19 -7 29 -16 21 -19 16 -72 -9 -91 -9 -7 -12 -16 -9 -20 4 -4 12 -2
19 5 8 8 15 7 27 -7 22 -25 61 -45 61 -31 0 6 -8 13 -17 17 -34 12 -55 43 -49
69 l7 26 18 -24 c48 -62 55 -97 35 -192 -4 -19 -3 -26 5 -22 6 4 11 17 11 29
0 13 7 33 16 45 15 22 14 27 -15 85 -31 63 -82 127 -101 127 -5 0 -10 3 -10 8
0 8 -57 42 -71 42 -5 0 -9 -4 -9 -9z"/>
<path d="M633 1856 c4 -9 -10 -22 -39 -36 -24 -13 -44 -25 -44 -27 0 -6 55 10
68 20 9 7 25 2 57 -21 25 -17 45 -26 45 -19 0 6 -15 19 -33 28 -25 13 -32 22
-30 43 1 18 -3 26 -14 26 -9 0 -13 -6 -10 -14z"/>
<path d="M833 1816 c4 -10 -7 -17 -38 -25 -41 -10 -63 -26 -52 -37 3 -3 14 -1
26 5 12 6 30 16 41 21 27 14 47 13 53 -2 2 -7 8 -9 13 -5 5 5 1 13 -9 18 -9 6
-17 17 -17 24 0 8 -5 15 -11 15 -6 0 -9 -6 -6 -14z"/>
<path d="M509 1803 c-1 -5 0 -12 1 -18 2 -5 2 -25 1 -42 -1 -18 3 -33 9 -33 5
0 11 12 11 28 1 15 3 37 4 50 2 20 -23 34 -26 15z"/>
<path d="M985 1756 c-60 -31 -60 -31 -63 -79 -2 -33 0 -47 8 -42 5 3 8 11 4
16 -3 5 -2 23 1 40 6 26 17 35 62 55 l55 24 30 -25 c16 -14 34 -25 39 -25 5 0
10 -12 10 -27 1 -16 3 -21 6 -11 2 9 18 21 34 27 18 6 28 15 24 22 -5 8 -10 8
-18 0 -19 -19 -42 -12 -84 24 -23 19 -43 34 -45 34 -1 -1 -30 -15 -63 -33z"/>
<path d="M416 1719 c-32 -32 -62 -59 -67 -59 -5 0 -9 -4 -9 -10 0 -5 7 -10 15
-10 8 0 15 5 15 10 0 6 7 10 15 10 8 0 14 3 14 8 -4 22 3 31 18 25 11 -4 14
-3 9 5 -4 7 8 21 28 34 20 13 36 29 36 36 0 21 -13 12 -74 -49z"/>
<path d="M507 1693 c-16 -15 -4 -40 30 -66 47 -35 57 -25 13 14 -19 16 -34 36
-32 44 3 16 -1 19 -11 8z"/>
<path d="M439 1641 c-19 -9 -39 -16 -45 -14 -5 2 -11 -19 -12 -47 -1 -28 2
-50 8 -50 5 0 10 17 10 38 0 36 3 40 40 57 39 17 61 35 43 35 -4 -1 -24 -9
-44 -19z"/>
<path d="M670 1629 c-26 -16 -35 -18 -41 -7 -7 10 -9 9 -9 -4 0 -10 -5 -18
-12 -18 -6 0 -9 -3 -6 -6 4 -3 0 -21 -8 -39 -16 -40 -18 -65 -5 -65 6 0 13 20
17 45 6 42 10 48 54 70 35 18 50 21 53 12 3 -7 6 -5 6 5 1 27 -13 29 -49 7z"/>
<path d="M1374 1604 c4 -27 8 -58 9 -68 1 -11 8 -21 16 -24 9 -3 11 2 8 14 -3
11 -9 40 -13 67 -3 26 -11 50 -17 54 -7 4 -8 -10 -3 -43z"/>
<path d="M1120 1616 c0 -16 -7 -27 -20 -31 -21 -7 -28 -25 -10 -25 6 0 10 5
10 10 0 6 4 10 9 10 12 0 96 -71 95 -79 -1 -3 -5 -28 -8 -56 -8 -58 7 -42 19
20 4 22 12 46 17 53 8 9 7 11 -3 7 -8 -3 -30 8 -49 25 -19 16 -39 30 -44 30
-5 0 -6 14 -2 30 3 17 1 30 -4 30 -6 0 -10 -11 -10 -24z"/>
<path d="M312 1609 c-12 -19 -11 -20 7 -14 14 4 21 1 24 -12 3 -10 4 -5 3 11
-3 37 -17 43 -34 15z"/>
<path d="M863 1593 c-18 -9 -33 -20 -33 -24 0 -3 18 2 39 13 42 21 61 17 96
-18 9 -9 19 -13 23 -10 10 10 -50 55 -73 55 -11 0 -35 -8 -52 -16z"/>
<path d="M265 1539 c-10 -23 -25 -44 -32 -46 -15 -6 -18 -33 -3 -33 11 0 35
41 32 54 -2 5 4 6 11 3 11 -4 13 0 10 14 -4 13 0 19 11 19 10 0 13 6 10 15 -9
23 -17 18 -39 -26z"/>
<path d="M1045 1561 c-3 -6 -15 -11 -26 -11 -10 0 -19 -6 -19 -14 0 -8 -3 -22
-6 -30 -5 -12 -2 -15 10 -10 9 3 14 10 11 14 -3 5 7 17 22 28 16 11 25 23 21
27 -3 3 -9 2 -13 -4z"/>
<path d="M797 1553 c-11 -20 -17 -103 -8 -103 6 0 12 8 13 18 0 9 2 29 3 43 1
14 5 31 9 38 4 6 3 11 -3 11 -5 0 -12 -3 -14 -7z"/>
<path d="M360 1501 c-62 -33 -80 -41 -95 -41 -12 0 -15 -5 -11 -16 3 -9 3 -21
-1 -27 -10 -16 -12 -67 -2 -67 5 0 10 7 10 15 1 8 3 20 4 25 1 6 3 21 4 35 0
14 7 25 15 25 7 0 27 7 42 15 40 21 58 19 93 -11 20 -16 31 -21 31 -12 0 11
-62 69 -72 67 -2 0 -10 -4 -18 -8z"/>
<path d="M1387 1493 c-4 -3 -7 -19 -7 -35 0 -16 -7 -43 -16 -59 -18 -36 -14
-45 14 -30 18 10 32 55 32 109 0 22 -10 29 -23 15z"/>
<path d="M514 1452 c-39 -15 -42 -18 -56 -78 -13 -54 -13 -67 -2 -83 17 -24
80 -64 94 -59 6 2 -7 14 -28 27 -55 34 -62 48 -50 108 10 48 13 52 54 69 24
10 44 22 44 26 0 10 -6 9 -56 -10z"/>
<path d="M989 1468 c-10 -39 -2 -58 39 -84 l43 -29 -6 -57 c-7 -68 -1 -76 13
-15 5 23 13 50 17 60 5 12 3 17 -8 17 -8 0 -17 4 -19 8 -1 4 -18 18 -36 31
-24 16 -32 29 -29 42 3 11 1 22 -4 25 -5 3 -9 4 -10 2z"/>
<path d="M611 1443 c21 -27 42 -42 59 -42 9 0 0 12 -20 29 -39 33 -60 40 -39
13z"/>
<path d="M194 1413 c-4 -16 -14 -38 -22 -50 -10 -16 -11 -23 -3 -23 6 0 14 7
17 15 4 8 10 13 14 10 5 -3 8 8 8 23 -1 16 2 34 6 41 4 6 3 11 -3 11 -6 0 -14
-12 -17 -27z"/>
<path d="M825 1405 c17 -13 33 -24 38 -25 4 0 7 -14 7 -31 0 -18 4 -28 10 -24
6 4 10 16 8 28 -2 14 2 22 11 22 8 0 16 5 18 11 2 7 -5 10 -21 7 -16 -3 -35 2
-52 16 -38 30 -55 26 -19 -4z"/>
<path d="M1237 1358 c27 -29 43 -35 43 -19 0 5 -9 13 -21 16 -11 4 -18 12 -16
19 3 6 -4 12 -14 12 -16 0 -15 -4 8 -28z"/>
<path d="M659 1368 c0 -7 -2 -32 -5 -55 -4 -28 -2 -43 5 -43 6 0 11 11 11 24
0 13 3 38 6 55 4 20 3 31 -5 31 -6 0 -11 -6 -12 -12z"/>
<path d="M1362 1340 c-12 -10 -27 -20 -32 -22 -7 -2 -8 -17 -2 -43 l8 -39 21
34 c20 32 40 90 32 90 -2 -1 -14 -9 -27 -20z"/>
<path d="M183 1313 c-36 -13 -44 -21 -53 -52 -19 -70 -23 -107 -12 -96 13 13
33 85 26 96 -2 5 18 20 46 34 l51 26 35 -27 c44 -34 56 -26 14 10 -35 29 -46
30 -107 9z"/>
<path d="M388 1287 c-26 -10 -38 -27 -20 -27 15 0 62 25 62 33 0 9 -8 8 -42
-6z"/>
<path d="M855 1271 c-3 -10 -17 -22 -30 -25 -14 -4 -25 -13 -25 -22 0 -13 5
-12 26 5 26 21 26 21 53 1 65 -49 64 -47 58 -87 -5 -28 -3 -33 4 -21 5 10 9
19 8 20 -1 2 3 13 10 26 10 18 9 22 -4 22 -8 0 -15 3 -15 8 0 4 -16 18 -36 31
-25 17 -34 30 -31 43 7 24 -10 23 -18 -1z"/>
<path d="M1280 1255 c-7 -14 -11 -27 -8 -30 11 -11 38 8 38 25 0 29 -16 32
-30 5z"/>
<path d="M326 1223 c-3 -27 -8 -59 -11 -73 -4 -21 3 -30 47 -58 l52 -33 38 17
c21 9 36 19 34 22 -3 2 -18 -3 -34 -11 -28 -14 -56 -9 -72 13 -3 4 -15 13 -28
19 -24 13 -25 23 -6 124 3 15 1 27 -4 27 -5 0 -12 -21 -16 -47z"/>
<path d="M700 1234 c14 -10 30 -23 36 -31 14 -16 44 -7 44 14 0 11 -3 13 -13
5 -13 -11 -52 9 -40 21 3 4 -7 7 -23 7 l-28 0 24 -16z"/>
<path d="M1288 1200 c-35 -29 -35 -30 -42 -126 -4 -54 -9 -100 -11 -103 -3 -2
-21 11 -40 29 -19 18 -38 30 -42 27 -4 -4 4 -15 18 -24 13 -10 34 -27 46 -39
12 -12 24 -19 27 -16 3 3 6 -9 6 -26 0 -18 4 -32 8 -32 5 0 7 35 6 78 -3 83
11 147 47 216 11 21 18 40 16 42 -2 2 -19 -10 -39 -26z"/>
<path d="M1080 1210 c0 -5 18 -21 41 -36 36 -22 45 -24 70 -14 15 7 33 18 40
26 8 10 3 9 -20 -2 -37 -18 -67 -13 -98 16 -25 22 -33 25 -33 10z"/>
<path d="M537 1203 c-2 -4 -8 -24 -12 -43 -4 -19 -12 -41 -17 -47 -8 -10 -2
-13 23 -13 27 1 30 3 18 10 -14 8 -15 17 -8 51 9 39 7 60 -4 42z"/>
<path d="M109 1143 c-9 -90 -13 -173 -7 -173 5 0 8 12 9 28 0 15 3 55 5 90 3
34 3 62 0 62 -4 0 -6 -3 -7 -7z"/>
<path d="M1138 1089 c-3 -43 -6 -46 -70 -74 -36 -16 -38 -16 -70 6 -18 13 -35
27 -36 31 -2 5 -8 6 -13 2 -11 -6 4 -22 43 -48 15 -10 25 -22 22 -27 -9 -15 5
-10 64 23 68 38 81 53 82 96 0 47 -18 39 -22 -9z"/>
<path d="M228 1107 c-20 -8 -28 -18 -28 -36 0 -37 -19 -101 -30 -101 -6 0 -10
-5 -10 -11 0 -6 7 -8 16 -5 9 3 29 -5 48 -19 48 -37 57 -30 14 9 -39 36 -39
36 -23 121 2 11 20 27 42 37 42 19 16 23 -29 5z"/>
<path d="M723 1108 c1 -7 -13 -20 -30 -28 -18 -8 -33 -19 -33 -23 0 -11 43 3
51 16 12 17 99 -51 99 -78 0 -9 5 -13 10 -10 16 10 11 43 -7 50 -26 8 -90 64
-75 65 7 0 10 5 7 10 -9 14 -25 12 -22 -2z"/>
<path d="M570 1070 c0 -5 10 -14 21 -21 17 -9 20 -17 16 -45 -8 -47 6 -43 19
5 10 38 10 39 -23 55 -18 9 -33 11 -33 6z"/>
<path d="M885 1049 l-30 -21 30 7 c35 8 38 10 34 24 -3 6 -17 2 -34 -10z"/>
<path d="M407 1033 c-2 -5 -7 -24 -11 -45 -4 -20 -13 -39 -22 -42 -8 -3 -12
-11 -9 -16 5 -8 11 -8 20 0 9 8 15 8 20 0 3 -5 11 -10 17 -10 7 0 6 5 -2 15
-8 10 -10 30 -6 60 7 41 4 56 -7 38z"/>
<path d="M602 938 c-7 -9 -29 -24 -48 -33 -46 -22 -37 -31 11 -11 37 16 37 16
81 -20 24 -20 44 -32 44 -26 0 6 -15 23 -34 37 -19 15 -36 36 -38 47 -3 19 -4
20 -16 6z"/>
<path d="M1009 938 c-1 -7 -3 -23 -4 -36 -1 -12 -4 -24 -6 -25 -41 -23 -90
-47 -96 -47 -5 0 -26 16 -48 35 -22 19 -44 35 -50 35 -5 0 7 -16 29 -35 21
-19 43 -35 48 -35 6 0 8 -7 5 -15 -4 -8 -2 -17 3 -20 6 -4 10 -1 10 4 0 6 24
23 52 37 61 31 75 46 76 86 1 27 -17 41 -19 16z"/>
<path d="M308 918 c-50 -26 -49 -41 2 -20 22 9 40 23 40 30 0 6 -1 11 -2 11
-2 -1 -20 -10 -40 -21z"/>
<path d="M464 885 c14 -11 17 -22 13 -50 -7 -46 10 -46 19 0 7 38 -7 65 -35
65 -14 -1 -13 -3 3 -15z"/>
<path d="M735 875 c-26 -12 -27 -14 -8 -15 28 0 53 10 53 21 0 12 -8 10 -45
-6z"/>
<path d="M1263 863 c2 -10 8 -26 12 -35 11 -27 -11 -22 -34 8 -11 14 -25 23
-31 19 -13 -8 -13 -25 1 -25 16 0 76 -49 83 -67 4 -9 4 -36 0 -60 -6 -40 -11
-46 -48 -63 -22 -10 -48 -20 -56 -22 -7 -3 -10 -7 -5 -10 18 -11 115 36 115
55 0 9 5 26 12 37 12 18 10 35 -16 115 -1 6 -6 22 -11 38 -4 15 -12 27 -17 27
-6 0 -8 -8 -5 -17z"/>
<path d="M266 820 c-4 -26 -11 -40 -21 -40 -28 0 -15 -25 13 -26 15 0 36 -4
47 -8 17 -7 16 -5 -4 12 -19 16 -23 26 -19 60 5 54 -7 55 -16 2z"/>
<path d="M1025 851 c-3 -6 1 -11 9 -11 9 0 16 -4 16 -8 0 -4 13 -16 30 -25 21
-13 34 -15 47 -8 10 5 26 12 36 15 9 3 17 10 17 16 0 6 -12 4 -30 -5 -39 -20
-46 -19 -85 11 -21 15 -36 21 -40 15z"/>
<path d="M112 803 c-1 -28 3 -55 8 -58 6 -3 10 -15 10 -26 0 -19 1 -19 40 3
50 29 58 54 9 27 -30 -16 -57 13 -62 65 -3 38 -4 38 -5 -11z"/>
<path d="M425 743 c-58 -30 -54 -39 7 -17 l45 17 33 -32 c18 -17 36 -29 39
-26 3 4 -13 23 -35 44 l-41 38 -48 -24z"/>
<path d="M679 748 c-5 -23 0 -33 30 -58 20 -16 39 -30 44 -30 4 0 7 -12 7 -27
l0 -28 13 25 c8 15 32 32 65 45 48 18 52 22 52 52 0 18 -4 33 -9 33 -6 0 -8
-8 -6 -18 2 -10 0 -23 -3 -28 -9 -12 -79 -44 -98 -44 -28 0 -83 50 -86 78 l-3
27 -6 -27z"/>
<path d="M330 721 c0 -6 5 -11 11 -11 8 0 10 -15 6 -46 -3 -29 -1 -42 5 -36
13 13 6 95 -9 100 -7 2 -13 -1 -13 -7z"/>
<path d="M603 707 c-43 -16 -55 -31 -18 -23 17 3 37 8 44 10 16 3 29 27 14 25
-4 0 -22 -6 -40 -12z"/>
<path d="M900 683 c0 -5 15 -19 34 -33 28 -21 32 -29 29 -59 -2 -19 -9 -41
-15 -48 -8 -10 -7 -13 4 -13 10 0 17 13 21 38 3 20 8 45 12 55 5 12 2 17 -8
17 -9 0 -24 11 -35 25 -19 24 -42 34 -42 18z"/>
<path d="M1064 675 c-14 -11 -15 -15 -4 -14 29 3 39 -1 69 -27 43 -36 39 -16
-4 24 -20 17 -37 32 -38 32 -2 0 -12 -7 -23 -15z"/>
<path d="M1321 651 c-1 -55 -26 -152 -51 -197 -25 -44 -25 -60 1 -67 22 -6 28
5 48 79 16 62 23 177 12 204 -9 23 -10 21 -10 -19z"/>
<path d="M557 633 c-19 -32 -15 -116 4 -101 9 6 67 -49 72 -68 4 -15 5 -16 6
-2 1 10 23 25 61 40 51 20 60 27 60 48 l0 25 -18 -22 c-21 -27 -89 -55 -113
-48 -10 3 -32 19 -48 34 -27 26 -29 32 -21 62 9 31 8 50 -3 32z"/>
<path d="M150 617 c0 -27 19 -57 35 -57 8 0 15 5 15 10 0 6 -3 10 -8 10 -4 0
-15 12 -24 28 -14 21 -18 23 -18 9z"/>
<path d="M300 576 c-55 -25 -54 -25 -48 -31 2 -3 23 3 47 12 40 16 42 16 72
-6 17 -13 33 -21 35 -18 7 7 -26 37 -41 37 -7 0 -15 6 -17 14 -2 11 -12 9 -48
-8z"/>
<path d="M1167 583 c-4 -3 -7 -18 -7 -32 0 -55 -10 -67 -66 -86 -30 -10 -54
-24 -54 -31 0 -10 13 -7 44 10 24 13 52 25 64 28 15 4 21 17 27 57 7 52 5 67
-8 54z"/>
<path d="M485 545 c-16 -8 -38 -16 -48 -19 -10 -3 -16 -10 -12 -15 5 -10 37 1
80 26 29 17 15 23 -20 8z"/>
<path d="M208 543 c-3 -8 -3 -22 1 -73 l2 -25 10 24 c9 24 8 65 -3 76 -3 4 -8
3 -10 -2z"/>
<path d="M767 506 c-4 -10 -1 -13 9 -9 7 3 14 0 14 -5 0 -6 10 -14 21 -17 19
-6 21 -13 17 -61 -3 -30 -1 -54 4 -54 4 0 8 25 8 55 0 48 -4 59 -27 80 -33 29
-39 30 -46 11z"/>
<path d="M930 499 c-12 -8 -11 -9 5 -6 11 2 35 -7 53 -20 17 -13 32 -19 32
-13 0 6 -7 13 -15 16 -8 4 -15 12 -15 20 0 16 -38 18 -60 3z"/>
<path d="M415 434 c-6 -41 -4 -48 17 -62 13 -9 33 -26 46 -39 l22 -22 60 21
c33 12 60 28 60 35 0 10 -5 11 -17 5 -10 -5 -35 -17 -55 -27 l-37 -17 -46 33
c-36 26 -45 38 -41 54 3 11 6 28 6 37 0 9 8 19 18 21 13 4 13 5 -4 6 -18 1
-23 -6 -29 -45z"/>
<path d="M1028 378 c0 -13 -2 -29 -2 -37 -1 -8 -8 -17 -16 -21 -8 -4 -30 -15
-48 -24 -18 -10 -40 -15 -49 -12 -11 5 -14 2 -9 -10 3 -8 6 -25 7 -37 1 -21 1
-20 8 2 7 25 12 29 73 56 27 11 40 24 44 43 3 15 7 32 9 39 2 7 0 15 -5 18 -6
4 -11 -4 -12 -17z"/>
<path d="M337 371 c-25 -13 -39 -15 -46 -8 -14 14 -15 -12 -1 -33 8 -12 12
-11 30 8 12 12 25 20 29 17 10 -5 37 23 29 30 -2 3 -21 -4 -41 -14z"/>
<path d="M1191 330 c-24 -26 -59 -56 -77 -66 -19 -10 -34 -21 -34 -24 0 -3 17
-13 38 -24 l37 -18 48 52 c43 48 83 108 75 115 -2 1 -12 5 -23 8 -15 4 -31 -7
-64 -43z m29 -15 c-19 -19 -30 -35 -25 -35 18 0 -27 -38 -51 -43 -29 -5 -29
-3 -7 23 18 20 39 28 28 10 -3 -6 1 -7 9 -4 9 3 13 11 10 16 -3 5 9 23 27 38
46 40 50 37 9 -5z"/>
<path d="M668 320 c35 -21 40 -47 23 -108 -5 -17 -6 -32 -1 -32 11 0 20 26 20
59 0 30 14 52 45 70 17 10 14 10 -16 5 -25 -4 -39 -1 -48 10 -8 9 -23 16 -35
16 -18 0 -16 -3 12 -20z"/>
<path d="M830 330 c0 -9 31 -30 45 -30 3 0 1 9 -5 20 -11 20 -40 28 -40 10z"/>
<path d="M379 240 c41 -39 81 -70 88 -70 27 0 11 29 -29 54 -24 14 -58 39 -77
56 -18 16 -39 30 -45 30 -6 -1 22 -32 63 -70z"/>
<path d="M1013 203 c-13 -8 -40 -21 -60 -28 -31 -11 -39 -19 -45 -46 -3 -19
-5 -35 -4 -36 1 -1 32 7 70 18 77 23 163 73 145 84 -12 8 -93 -15 -84 -23 7
-7 -65 -41 -87 -42 -32 0 -19 19 17 26 19 3 35 10 35 15 0 4 19 13 42 19 31 9
38 14 27 21 -19 12 -30 11 -56 -8z"/>
<path d="M490 160 c0 -11 96 -60 118 -60 6 0 12 7 12 15 0 8 0 18 1 22 0 9
-78 33 -108 33 -13 0 -23 -5 -23 -10z"/>
<path d="M668 148 c-16 -5 -28 -13 -28 -18 0 -5 -3 -15 -6 -23 -5 -15 10 -21
80 -32 40 -7 40 -7 24 46 -12 41 -22 45 -70 27z"/>
<path d="M860 150 c-14 -4 -42 -8 -63 -9 -35 -1 -37 -3 -35 -32 1 -17 5 -32 8
-34 3 -2 30 0 59 3 54 7 54 7 57 45 2 20 2 37 1 36 -1 -1 -13 -5 -27 -9z m2
-27 c-6 -2 -10 -9 -6 -14 3 -5 -6 -9 -20 -9 -25 0 -33 10 -19 23 3 4 18 7 32
6 14 0 20 -3 13 -6z"/>
</g>
</svg>
