<?xml version="1.0" standalone="no"?>
<!DOCTYPE svg PUBLIC "-//W3C//DTD SVG 20010904//EN"
 "http://www.w3.org/TR/2001/REC-SVG-20010904/DTD/svg10.dtd">
<svg version="1.0" xmlns="http://www.w3.org/2000/svg"
 width="152.000000pt" height="221.000000pt" viewBox="0 0 152.000000 221.000000"
 preserveAspectRatio="xMidYMid meet">
<metadata>
Created by potrace 1.10, written by Peter Selinger 2001-2011
</metadata>
<g transform="translate(0.000000,221.000000) scale(0.100000,-0.100000)"
fill="#000000" stroke="none">
<path d="M89 2048 c-1 -2 -2 -432 -3 -955 l-1 -953 649 -2 c492 -2 653 0 665
9 12 9 -128 12 -637 10 l-652 -2 0 948 c0 625 -3 947 -10 947 -5 0 -10 -1 -11
-2z"/>
<path d="M160 1981 c0 -28 2 -29 28 -21 49 15 62 22 62 36 0 10 -13 14 -45 14
-43 0 -45 -1 -45 -29z"/>
<path d="M266 2002 c-3 -5 9 -17 27 -27 18 -10 35 -23 39 -29 5 -7 8 -7 8 2 0
7 13 12 34 12 45 0 96 19 96 36 0 11 -21 14 -99 14 -55 0 -102 -4 -105 -8z"/>
<path d="M480 2001 c0 -5 15 -18 33 -29 27 -17 41 -18 95 -12 35 4 71 7 80 5
9 -1 11 0 4 2 -7 3 -11 12 -10 21 3 15 -10 17 -99 20 -61 2 -103 -1 -103 -7z"/>
<path d="M700 2000 c0 -12 53 -40 76 -40 18 0 104 38 104 46 0 2 -40 4 -90 4
-52 0 -90 -4 -90 -10z"/>
<path d="M872 1985 l-32 -23 65 -4 c36 -1 65 0 65 3 0 9 -46 49 -56 48 -5 0
-24 -11 -42 -24z"/>
<path d="M960 2002 c0 -4 8 -12 18 -19 14 -8 31 -8 73 3 81 21 81 22 -8 23
-46 1 -83 -2 -83 -7z"/>
<path d="M1165 1986 c34 -28 88 -34 142 -14 57 21 32 33 -73 36 l-99 2 30 -24z"/>
<path d="M1070 1975 l-45 -13 68 0 c56 1 65 3 56 14 -13 16 -19 16 -79 -1z"/>
<path d="M1328 1956 c-12 -9 -17 -26 -16 -64 1 -29 3 -52 5 -52 2 0 12 9 23
20 14 14 20 33 20 65 0 48 -5 52 -32 31z"/>
<path d="M161 1852 c0 -42 3 -71 8 -68 5 3 7 16 4 29 -5 18 -3 20 8 10 16 -15
39 -17 39 -3 0 6 -6 10 -13 10 -15 0 -34 33 -40 70 -2 14 -5 -8 -6 -48z"/>
<path d="M751 1913 c6 -34 -4 -52 -37 -68 -20 -9 -33 -19 -30 -22 3 -4 24 2
46 13 34 17 39 23 38 52 -1 17 -5 32 -10 32 -4 0 -7 -3 -7 -7z"/>
<path d="M540 1882 c0 -27 9 -35 83 -70 4 -2 7 0 7 5 0 4 -18 18 -39 30 -30
18 -38 27 -34 43 3 11 0 20 -6 20 -6 0 -11 -13 -11 -28z"/>
<path d="M1143 1853 c-42 -40 -42 -47 1 -22 l34 20 53 -30 c49 -26 55 -28 69
-13 13 14 12 15 -3 9 -18 -7 -114 40 -119 58 -2 5 -18 -4 -35 -22z"/>
<path d="M330 1863 c0 -5 -20 -16 -45 -26 -25 -11 -45 -23 -45 -28 0 -12 -3
-13 62 20 31 16 54 32 51 35 -9 8 -23 7 -23 -1z"/>
<path d="M980 1853 c1 -17 70 -51 91 -46 19 5 15 9 -24 20 -26 7 -47 18 -47
23 0 6 -4 10 -10 10 -5 0 -10 -3 -10 -7z"/>
<path d="M483 1831 c-23 -19 -29 -31 -15 -31 15 1 67 50 52 50 -8 -1 -25 -9
-37 -19z"/>
<path d="M1336 1831 c-19 -21 -19 -22 0 -35 17 -13 19 -13 22 5 2 10 2 26 0
35 -2 14 -6 13 -22 -5z"/>
<path d="M845 1811 c-3 -5 -1 -13 5 -16 6 -4 10 -31 9 -61 -2 -47 -5 -54 -23
-54 -15 0 -17 -3 -8 -12 8 -8 15 -8 25 0 10 9 16 9 25 0 7 -7 12 -9 12 -4 0 4
12 -2 26 -13 15 -12 34 -21 43 -21 9 0 -8 14 -36 31 l-53 31 0 64 c0 58 -9 79
-25 55z"/>
<path d="M649 1800 c-3 -23 0 -83 5 -87 7 -8 12 66 5 84 -6 14 -8 14 -10 3z"/>
<path d="M1312 1697 c0 -82 3 -94 22 -109 l21 -18 -23 0 c-22 0 -22 -3 -20
-82 3 -77 5 -83 25 -86 l22 -3 0 184 1 184 -24 11 -24 11 0 -92z"/>
<path d="M1065 1725 c0 -71 12 -71 17 0 2 32 -1 55 -7 55 -5 0 -10 -25 -10
-55z"/>
<path d="M173 1763 c-15 -6 -18 -73 -3 -73 6 0 8 10 4 24 -7 31 4 55 17 35 7
-11 9 -10 9 4 0 17 -5 19 -27 10z"/>
<path d="M221 1689 c-13 -10 -32 -19 -42 -19 -10 0 -19 -7 -19 -15 0 -20 6
-19 46 6 l34 21 46 -32 c29 -19 53 -29 63 -25 16 7 12 9 -70 40 -9 4 -21 15
-25 25 -9 18 -10 18 -33 -1z"/>
<path d="M434 1689 c-3 -6 -17 -14 -30 -19 -13 -5 -24 -14 -24 -20 0 -12 15
-6 40 16 13 11 24 9 68 -12 29 -14 52 -29 52 -35 0 -6 7 -6 20 1 26 14 26 33
0 25 -14 -4 -37 4 -70 24 -30 19 -52 26 -56 20z"/>
<path d="M628 1680 c-16 -8 -28 -19 -28 -24 0 -4 11 -1 25 8 25 16 28 16 75
-10 67 -36 72 -27 7 11 -49 29 -53 30 -79 15z"/>
<path d="M1092 1679 c2 -8 21 -23 41 -34 23 -13 37 -27 37 -40 0 -16 2 -17 9
-5 6 8 8 17 5 21 -2 4 7 10 21 13 14 4 25 11 25 16 0 13 -17 13 -25 0 -10 -17
-39 -11 -79 16 -22 15 -37 21 -34 13z"/>
<path d="M758 1604 c-12 -11 -10 -52 3 -59 14 -10 16 -5 9 33 -3 19 -8 30 -12
26z"/>
<path d="M330 1556 c0 -39 19 -62 66 -82 18 -8 35 -18 39 -24 3 -6 21 0 43 14
20 12 44 25 52 29 9 3 10 6 2 6 -6 1 -29 -8 -49 -19 -34 -18 -39 -18 -60 -5
-13 9 -23 13 -23 10 0 -6 -14 4 -46 34 -11 10 -14 24 -10 43 3 15 1 28 -4 28
-6 0 -10 -15 -10 -34z"/>
<path d="M540 1551 c0 -17 5 -33 10 -36 6 -4 10 8 10 29 0 20 -4 36 -10 36 -5
0 -10 -13 -10 -29z"/>
<path d="M961 1533 c-1 -15 -14 -28 -47 -43 -44 -22 -48 -22 -80 -7 -19 9 -34
12 -34 7 0 -5 16 -16 36 -25 36 -15 69 -8 86 19 4 6 26 10 49 10 32 -1 38 1
25 8 -10 5 -21 19 -26 31 l-9 22 0 -22z"/>
<path d="M740 1510 c0 -5 -5 -10 -11 -10 -6 0 -24 -9 -40 -21 l-29 -21 -45 27
c-25 14 -45 22 -45 16 0 -5 19 -20 43 -33 l43 -25 34 23 c18 13 37 21 42 18 4
-3 8 0 8 5 0 6 7 11 16 11 8 0 12 5 9 10 -3 6 -10 10 -16 10 -5 0 -9 -4 -9
-10z"/>
<path d="M1123 1493 c-62 -36 -53 -48 11 -16 30 16 52 31 49 36 -6 10 -13 8
-60 -20z"/>
<path d="M156 1503 c-8 -9 14 -33 30 -33 8 0 14 3 14 8 0 11 -37 32 -44 25z"/>
<path d="M275 1480 c-18 -12 -38 -17 -50 -14 -19 6 -19 5 -2 -12 12 -13 20
-15 25 -8 4 6 25 21 47 32 22 12 33 21 25 21 -8 1 -28 -8 -45 -19z"/>
<path d="M1255 1461 c17 -15 32 -24 34 -18 2 5 -7 18 -20 28 -38 29 -47 22
-14 -10z"/>
<path d="M160 1384 c0 -26 3 -44 7 -40 11 11 13 75 2 82 -5 3 -9 -16 -9 -42z"/>
<path d="M1327 1372 c-12 -13 -17 -37 -17 -79 l0 -61 25 11 c23 11 25 17 25
80 0 70 -6 79 -33 49z"/>
<path d="M240 1360 c0 -5 -18 -19 -40 -30 -28 -14 -40 -27 -40 -42 0 -20 1
-20 20 5 11 13 31 28 45 31 16 4 25 13 25 26 0 11 -2 20 -5 20 -3 0 -5 -4 -5
-10z"/>
<path d="M440 1354 c0 -5 -25 -24 -55 -42 -31 -19 -53 -38 -49 -44 4 -7 10 -5
16 6 5 9 14 16 19 16 6 0 24 9 40 21 31 22 34 21 84 -10 33 -21 45 -25 45 -13
0 4 -14 13 -31 21 -17 7 -39 23 -50 34 -10 11 -19 16 -19 11z"/>
<path d="M630 1334 c-14 -7 -38 -25 -55 -39 -39 -32 -4 -22 43 13 32 25 33 25
67 6 19 -10 37 -16 40 -12 3 3 -8 11 -25 18 -16 7 -30 16 -30 21 0 12 -9 10
-40 -7z"/>
<path d="M822 1325 c-23 -13 -38 -26 -33 -29 10 -6 91 35 91 47 0 11 -11 8
-58 -18z"/>
<path d="M1022 1319 c-54 -38 -47 -52 8 -15 22 14 43 26 47 26 5 0 28 -14 52
-30 41 -28 61 -31 61 -9 0 6 -4 8 -9 4 -10 -5 -83 33 -89 47 -6 14 -26 8 -70
-23z"/>
<path d="M260 1323 c0 -13 59 -43 65 -33 3 5 -9 16 -26 24 -37 18 -39 19 -39
9z"/>
<path d="M748 1227 c4 -63 3 -64 -28 -79 -19 -9 -28 -18 -21 -22 6 -4 18 0 27
8 21 21 42 20 82 -4 18 -11 38 -20 45 -20 6 0 -12 14 -40 31 -51 30 -53 32
-53 74 0 24 5 47 10 50 13 8 3 25 -13 25 -8 0 -11 -19 -9 -63z"/>
<path d="M962 1218 c-2 -47 -5 -58 -22 -63 -11 -3 -20 -11 -20 -16 0 -12 6
-11 30 4 17 10 26 9 52 -6 17 -10 33 -15 36 -12 3 3 3 6 1 8 -2 1 -17 10 -34
19 -26 14 -31 24 -36 70 l-6 53 -1 -57z"/>
<path d="M540 1208 c0 -45 -2 -48 -37 -63 -20 -8 -34 -18 -30 -21 3 -3 19 2
36 10 16 9 38 16 47 16 13 0 14 3 4 15 -7 8 -10 26 -8 39 3 14 1 31 -3 38 -5
8 -9 -5 -9 -34z"/>
<path d="M1170 1203 c1 -48 1 -48 53 -73 41 -20 52 -30 51 -48 0 -12 4 -21 9
-19 14 4 15 57 1 57 -6 0 -33 12 -59 26 -46 26 -47 28 -42 65 3 22 1 39 -4 39
-5 0 -9 -21 -9 -47z"/>
<path d="M1333 1223 c-28 -19 -28 -26 2 -88 l24 -50 0 78 c1 42 0 77 -1 76 -2
0 -13 -7 -25 -16z"/>
<path d="M160 1132 c0 -55 4 -91 9 -87 5 3 7 21 4 40 -5 31 -3 35 16 35 12 0
24 -7 27 -15 7 -18 37 -20 32 -2 -3 6 -18 18 -34 26 -34 17 -45 31 -39 51 2 8
0 22 -5 30 -7 10 -10 -15 -10 -78z"/>
<path d="M330 1178 c0 -18 12 -28 51 -46 27 -13 52 -29 56 -37 7 -19 23 -19
23 -1 0 8 -26 28 -57 44 -36 19 -57 36 -57 46 1 9 -2 16 -7 16 -5 0 -9 -10 -9
-22z"/>
<path d="M595 1134 c11 -8 28 -21 39 -30 17 -14 20 -14 34 0 9 8 12 19 8 23
-5 5 -11 3 -13 -4 -3 -8 -14 -6 -36 8 -37 22 -61 25 -32 3z"/>
<path d="M1077 1122 c-12 -2 -16 -9 -13 -19 3 -8 6 -17 6 -20 0 -2 7 3 16 11
19 20 15 33 -9 28z"/>
<path d="M1326 1067 c-11 -8 -17 -20 -14 -28 3 -8 2 -24 -3 -35 -6 -17 -1 -30
22 -55 l29 -33 0 82 c0 45 -4 82 -8 82 -5 0 -16 -6 -26 -13z"/>
<path d="M442 1038 c-1 -14 -4 -33 -7 -40 -4 -9 11 -22 41 -36 58 -29 69 -22
15 9 -33 18 -41 28 -44 58 -3 26 -4 29 -5 9z"/>
<path d="M650 1024 c0 -34 28 -73 54 -74 6 0 20 -10 33 -22 21 -20 24 -20 36
-5 6 8 33 27 60 41 26 13 43 27 38 30 -5 4 -31 -8 -56 -25 l-47 -32 -55 29
c-52 27 -55 30 -50 61 3 18 2 33 -4 33 -5 0 -9 -16 -9 -36z"/>
<path d="M226 994 c-3 -8 1 -14 10 -14 8 0 24 -9 36 -20 12 -11 25 -20 30 -20
18 0 5 16 -32 42 -30 21 -40 24 -44 12z"/>
<path d="M1015 965 c-52 -32 -30 -32 31 0 27 14 39 25 28 25 -10 0 -37 -12
-59 -25z"/>
<path d="M1221 964 c-41 -24 -44 -24 -68 -9 -36 24 -39 11 -4 -15 31 -21 31
-21 59 -2 15 10 35 22 45 25 9 4 17 11 17 17 0 13 3 14 -49 -16z"/>
<path d="M388 963 c-9 -9 -27 -17 -40 -18 -17 -2 -22 -7 -20 -21 2 -10 8 -23
13 -29 7 -7 8 -4 4 7 -5 12 4 23 34 40 23 13 41 26 41 31 0 12 -15 8 -32 -10z"/>
<path d="M590 960 c-14 -11 -31 -20 -37 -20 -7 0 -13 -12 -13 -27 0 -14 3 -23
8 -19 4 4 7 13 7 19 0 7 10 16 23 22 12 5 22 13 22 17 0 5 7 8 15 8 8 0 15 5
15 10 0 15 -12 12 -40 -10z"/>
<path d="M160 915 c0 -43 3 -53 14 -49 12 4 12 12 4 36 -9 26 -8 33 5 43 23
16 21 25 -3 25 -18 0 -20 -7 -20 -55z"/>
<path d="M958 875 c2 -25 7 -43 11 -41 10 7 7 79 -4 83 -6 2 -9 -15 -7 -42z"/>
<path d="M1170 859 c0 -44 -2 -47 -40 -64 -22 -10 -40 -22 -40 -27 0 -4 18 1
40 12 21 11 47 20 56 20 13 0 14 3 4 15 -7 8 -10 26 -8 39 3 14 1 31 -3 38 -6
8 -9 -5 -9 -33z"/>
<path d="M1334 882 c-18 -14 -22 -28 -23 -90 -2 -72 -1 -73 21 -67 13 4 24 9
26 10 2 1 2 39 0 83 l-3 81 -21 -17z"/>
<path d="M540 844 c0 -26 -7 -33 -45 -52 -55 -27 -63 -27 -95 -2 -28 22 -40
25 -40 10 0 -5 5 -10 11 -10 21 0 70 -42 65 -56 -3 -8 -1 -14 4 -14 6 0 10 9
10 20 0 11 6 20 14 20 8 0 16 3 18 8 2 4 20 15 40 24 30 14 36 22 34 43 -4 37
-16 43 -16 9z"/>
<path d="M745 828 c-6 -12 -28 -31 -49 -42 -37 -19 -41 -19 -68 -3 -16 9 -37
17 -46 17 -9 -1 0 -10 21 -21 21 -11 41 -27 44 -35 4 -12 8 -11 20 6 8 11 19
20 25 20 19 0 78 50 78 66 0 21 -14 17 -25 -8z"/>
<path d="M157 811 c-5 -19 1 -25 40 -42 38 -16 43 -22 33 -34 -10 -12 -10 -15
0 -15 6 0 14 8 17 18 2 10 26 30 54 45 27 16 49 32 49 38 0 12 -8 12 -23 -1
-7 -6 -28 -21 -47 -33 -34 -22 -38 -23 -67 -9 -17 8 -35 24 -40 35 -9 21 -10
21 -16 -2z"/>
<path d="M780 800 c0 -4 15 -13 33 -21 17 -7 35 -17 38 -21 6 -9 84 26 94 42
9 15 -4 12 -45 -11 l-38 -22 -41 20 c-23 11 -41 17 -41 13z"/>
<path d="M980 806 c0 -5 54 -36 65 -36 13 0 3 18 -12 23 -10 2 -26 8 -35 12
-10 4 -18 5 -18 1z"/>
<path d="M1220 793 c0 -5 16 -18 35 -31 42 -27 46 -20 8 13 -29 25 -43 31 -43
18z"/>
<path d="M1334 708 c-18 -8 -22 -19 -23 -65 0 -51 1 -54 22 -48 22 6 22 6 -1
-13 -31 -24 -27 -66 6 -70 22 -3 22 -2 22 102 0 58 -1 106 -2 105 -2 0 -13 -5
-24 -11z"/>
<path d="M1070 700 c-1 -8 -2 -24 -1 -35 1 -12 -8 -25 -21 -31 -13 -6 -38 -19
-57 -29 -25 -13 -36 -15 -39 -7 -4 14 -32 16 -32 3 0 -5 11 -12 25 -15 24 -6
56 5 115 39 14 8 26 10 28 5 2 -6 11 -10 20 -10 13 0 12 3 -5 15 -12 9 -23 29
-26 48 -2 17 -5 25 -7 17z"/>
<path d="M439 655 c-6 -15 -95 -65 -103 -58 -3 3 -6 -9 -5 -28 l1 -34 11 28
c6 15 16 27 22 27 6 0 27 11 47 25 31 21 38 22 48 10 7 -8 19 -15 27 -15 13 0
13 3 3 15 -7 8 -18 15 -25 15 -8 0 -15 6 -17 13 -3 7 -6 8 -9 2z"/>
<path d="M198 632 c-25 -11 -38 -24 -38 -36 0 -18 2 -17 28 6 35 33 54 38 68
20 6 -9 16 -12 23 -7 9 5 4 11 -14 21 -15 8 -28 14 -29 13 0 0 -18 -8 -38 -17z"/>
<path d="M840 637 c-14 -7 -37 -21 -52 -31 -21 -14 -31 -15 -48 -6 -12 6 -26
9 -33 7 -7 -2 5 -9 25 -16 39 -13 65 -6 96 26 7 7 20 13 28 13 8 0 14 5 14 10
0 13 0 13 -30 -3z"/>
<path d="M1245 632 c-16 -10 -32 -18 -34 -19 -2 -2 -2 -5 1 -8 7 -7 77 27 78
38 0 10 -11 8 -45 -11z"/>
<path d="M1148 593 c12 -8 22 -24 22 -35 0 -10 4 -17 10 -13 5 3 7 12 4 19 -3
8 2 16 13 19 12 3 9 5 -9 6 -15 0 -30 6 -33 11 -3 6 -12 10 -18 9 -7 0 -2 -7
11 -16z"/>
<path d="M523 589 c9 -5 17 -19 17 -30 0 -11 5 -17 10 -14 6 3 10 17 10 31 0
20 -5 24 -27 24 -24 -1 -25 -2 -10 -11z"/>
<path d="M163 508 c0 -18 2 -25 4 -15 3 9 11 17 20 17 13 0 13 3 3 15 -19 23
-27 18 -27 -17z"/>
<path d="M750 501 c0 -17 5 -33 10 -36 7 -4 10 6 8 29 -3 43 -18 49 -18 7z"/>
<path d="M328 493 c-3 -24 3 -31 42 -51 25 -12 53 -32 63 -43 9 -12 17 -16 17
-10 0 7 16 21 37 33 20 12 31 24 25 26 -6 2 -22 -4 -35 -13 -27 -18 -57 -10
-109 26 -21 15 -27 26 -23 40 4 10 2 19 -4 19 -5 0 -11 -12 -13 -27z"/>
<path d="M538 493 c-3 -25 3 -31 61 -60 57 -29 91 -34 91 -13 0 4 11 11 25 14
14 4 25 11 25 16 0 14 -4 13 -43 -10 -29 -17 -39 -19 -63 -9 -16 7 -32 12 -36
11 -5 -1 -8 3 -8 8 0 6 -6 10 -14 10 -17 0 -28 24 -20 45 4 8 1 15 -4 15 -6 0
-12 -12 -14 -27z"/>
<path d="M1310 445 c0 -43 4 -56 19 -65 30 -15 31 -14 31 41 0 38 -5 55 -17
65 -29 22 -33 17 -33 -41z"/>
<path d="M912 445 c-26 -15 -38 -26 -31 -30 6 -4 14 -3 18 2 7 11 42 27 54 25
4 -1 7 5 7 13 0 8 -1 14 -2 14 -2 -1 -22 -12 -46 -24z"/>
<path d="M160 450 c0 -9 37 -34 52 -35 4 0 14 -9 22 -20 14 -18 15 -18 16 -2
0 10 13 23 31 31 25 10 28 14 14 20 -9 3 -23 -1 -31 -9 -9 -8 -19 -15 -24 -15
-16 0 -60 23 -60 32 0 4 -4 8 -10 8 -5 0 -10 -4 -10 -10z"/>
<path d="M1115 441 c-16 -10 -33 -16 -37 -14 -5 2 -8 -1 -8 -6 0 -6 4 -11 9
-11 11 0 81 40 81 46 0 8 -15 2 -45 -15z"/>
<path d="M162 359 c-1 -30 0 -30 19 -13 10 9 19 22 19 27 0 6 -3 7 -7 4 -3 -4
-12 -2 -18 3 -9 7 -12 2 -13 -21z"/>
<path d="M869 383 c-14 -3 -16 -12 -12 -44 5 -35 3 -41 -16 -46 -13 -3 -21
-13 -21 -27 0 -12 3 -16 8 -10 21 31 45 32 86 2 23 -17 40 -34 39 -39 -2 -5 4
-9 12 -9 8 0 15 7 15 15 0 14 12 19 33 16 4 0 7 6 7 14 0 17 -16 20 -25 5 -13
-21 -61 -8 -107 29 -21 16 -24 71 -6 89 7 7 10 11 8 11 -3 -1 -12 -3 -21 -6z"/>
<path d="M663 372 c-15 -9 -20 -36 -9 -42 5 -3 13 7 17 23 4 15 7 27 6 27 -1
0 -7 -4 -14 -8z"/>
<path d="M233 359 c-7 -7 -9 -24 -6 -39 4 -25 2 -29 -25 -35 -17 -3 -33 -13
-36 -20 -8 -23 9 -26 31 -5 30 27 44 28 80 2 17 -12 36 -22 43 -22 7 0 10 -7
6 -15 -4 -10 1 -15 16 -15 12 0 18 3 15 7 -4 3 -1 13 6 21 10 13 9 15 -5 9
-18 -6 -40 3 -90 37 -24 15 -27 23 -22 52 6 37 4 40 -13 23z"/>
<path d="M1311 288 c-1 -71 6 -87 37 -88 8 0 12 23 12 80 0 78 -1 80 -24 80
-23 0 -24 -3 -25 -72z"/>
<path d="M1064 336 c-3 -7 -4 -18 -2 -24 2 -6 -6 -18 -17 -26 -15 -11 -16 -15
-5 -16 8 0 22 4 30 10 8 5 17 6 20 1 3 -4 22 -17 43 -30 20 -12 35 -27 31 -32
-3 -5 2 -9 10 -9 9 0 16 7 16 16 0 11 6 15 18 12 12 -4 18 1 19 13 2 17 -1 18
-25 5 -24 -12 -31 -11 -72 14 -36 21 -45 32 -45 53 1 28 -12 36 -21 13z"/>
<path d="M440 303 c0 -7 -11 -15 -25 -19 -14 -3 -25 -13 -25 -21 0 -11 6 -10
28 6 l29 20 36 -24 c20 -14 41 -25 46 -25 6 0 11 -9 11 -19 0 -14 5 -18 21
-14 15 4 17 8 8 14 -11 6 -10 9 4 15 23 9 12 23 -14 17 -20 -6 -97 30 -111 51
-5 8 -8 7 -8 -1z"/>
<path d="M725 245 l30 -24 -72 -1 c-48 0 -73 4 -76 13 -3 7 -6 5 -6 -5 -1 -27
144 -25 177 1 12 11 22 25 22 32 0 8 -5 7 -17 -4 -16 -13 -21 -14 -43 -2 -40
22 -48 17 -15 -10z"/>
<path d="M417 213 c18 -2 50 -2 70 0 21 2 7 4 -32 4 -38 0 -55 -2 -38 -4z"/>
</g>
</svg>
