<?xml version="1.0" standalone="no"?>
<!DOCTYPE svg PUBLIC "-//W3C//DTD SVG 20010904//EN"
 "http://www.w3.org/TR/2001/REC-SVG-20010904/DTD/svg10.dtd">
<svg version="1.0" xmlns="http://www.w3.org/2000/svg"
 width="158.000000pt" height="219.000000pt" viewBox="0 0 158.000000 219.000000"
 preserveAspectRatio="xMidYMid meet">
<metadata>
Created by potrace 1.10, written by Peter Selinger 2001-2011
</metadata>
<g transform="translate(0.000000,219.000000) scale(0.100000,-0.100000)"
fill="#000000" stroke="none">
<path d="M741 2019 c-51 -10 -59 -15 -44 -30 7 -7 30 -8 72 -1 78 11 161 -1
216 -33 55 -33 64 -32 24 2 -41 34 -158 76 -175 62 -8 -7 -14 -6 -19 1 -7 11
-12 11 -74 -1z"/>
<path d="M632 1989 c-40 -15 -137 -88 -159 -118 -16 -20 -19 -36 -15 -58 l7
-31 18 24 c17 23 17 24 0 24 -11 1 -2 9 21 20 51 26 100 75 93 94 -4 10 0 14
11 13 15 -1 72 30 72 39 0 7 -24 3 -48 -7z"/>
<path d="M751 1908 c-13 -21 -13 -22 2 -10 14 12 22 11 52 -8 19 -12 35 -17
35 -12 0 5 -13 15 -30 22 -16 7 -30 16 -30 21 0 16 -15 9 -29 -13z"/>
<path d="M900 1910 c-12 -8 -9 -10 13 -10 15 0 40 -7 55 -16 26 -15 26 -15 -3
10 -33 28 -42 31 -65 16z"/>
<path d="M386 1815 c-36 -74 -45 -132 -50 -310 -2 -82 -7 -161 -10 -175 -4
-14 0 -10 9 10 12 26 17 73 20 180 4 151 12 205 45 292 26 70 18 72 -14 3z"/>
<path d="M540 1822 c0 -21 8 -35 26 -47 14 -9 28 -15 30 -12 3 2 -7 12 -21 21
-18 12 -24 23 -20 36 3 10 1 21 -5 25 -6 4 -10 -5 -10 -23z"/>
<path d="M691 1823 c0 -22 -6 -33 -16 -33 -8 0 -15 -4 -15 -9 0 -5 -10 -11
-22 -14 -12 -4 -19 -9 -15 -13 3 -3 23 3 43 15 34 21 38 21 55 5 11 -10 22
-15 25 -11 3 3 -6 13 -20 22 -13 9 -27 29 -29 43 -4 24 -4 24 -6 -5z"/>
<path d="M985 1821 c4 -14 -3 -25 -24 -40 -16 -12 -35 -21 -42 -21 -7 0 -9 -3
-6 -7 4 -3 25 2 47 13 32 15 40 24 40 47 0 15 -5 27 -11 27 -6 0 -8 -8 -4 -19z"/>
<path d="M421 1773 c-6 -21 -11 -47 -11 -58 1 -18 3 -18 24 6 17 19 22 35 18
58 -6 42 -19 39 -31 -6z"/>
<path d="M1120 1797 c0 -8 -14 -20 -30 -27 -17 -7 -29 -15 -26 -17 3 -3 18 2
34 10 19 9 35 11 46 5 13 -7 14 -5 7 14 -9 26 -31 36 -31 15z"/>
<path d="M425 1691 c-3 -6 -10 -9 -14 -6 -9 5 -22 -96 -14 -105 9 -10 23 27
23 62 0 20 6 38 13 41 6 2 9 7 6 11 -4 4 -10 2 -14 -3z"/>
<path d="M610 1676 c0 -8 -6 -17 -12 -20 -7 -3 -4 -4 7 -1 26 6 85 -30 85 -52
0 -15 2 -16 10 -3 5 8 10 24 10 35 0 13 -3 16 -8 8 -5 -8 -20 -3 -50 18 -29
19 -42 24 -42 15z"/>
<path d="M760 1669 c0 -5 -4 -7 -10 -4 -5 3 -10 -1 -10 -11 0 -13 3 -14 14 -5
11 10 21 9 45 -4 18 -9 31 -11 31 -5 0 5 -6 10 -14 10 -7 0 -19 7 -26 15 -14
17 -30 20 -30 4z"/>
<path d="M1169 1590 c-5 -36 -3 -73 4 -77 4 -2 7 9 7 26 0 16 3 36 6 45 3 9 1
16 -5 16 -6 0 -12 -4 -12 -10z"/>
<path d="M403 1573 c-16 -6 -17 -83 -2 -83 8 0 8 -4 0 -14 -14 -17 -9 -108 7
-114 8 -2 11 24 9 98 -1 55 2 105 7 110 11 11 0 12 -21 3z"/>
<path d="M1090 1520 c-19 -16 -29 -29 -22 -30 6 0 12 4 12 9 0 5 16 16 35 25
37 18 44 26 22 26 -7 0 -28 -13 -47 -30z"/>
<path d="M1127 1466 c-9 -7 -17 -18 -17 -25 0 -6 -11 -11 -25 -11 -28 0 -75
-20 -75 -32 0 -10 4 -10 32 1 13 5 35 12 49 15 15 3 34 17 44 32 20 30 17 37
-8 20z"/>
<path d="M453 1422 l-23 -22 24 6 c13 3 34 0 46 -6 12 -6 24 -9 27 -6 3 3 -6
10 -20 15 -14 5 -27 16 -29 23 -2 9 -10 6 -25 -10z"/>
<path d="M760 1431 c0 -6 -6 -11 -12 -11 -17 -1 -62 -39 -55 -46 3 -4 18 3 33
15 30 23 64 27 82 9 7 -7 12 -9 12 -6 0 4 -13 16 -30 28 -16 12 -30 17 -30 11z"/>
<path d="M909 1433 c-2 -5 -22 -20 -43 -33 -22 -13 -34 -26 -28 -28 7 -2 19 3
28 12 21 22 63 31 77 17 6 -6 22 -11 37 -10 24 1 24 1 -5 11 -16 6 -37 17 -46
25 -10 8 -19 10 -20 6z"/>
<path d="M373 1333 c-7 -16 -18 -36 -25 -45 -10 -15 -10 -20 3 -34 15 -14 18
-13 37 13 23 32 30 62 19 81 -12 19 -21 15 -34 -15z"/>
<path d="M541 1323 c-1 -26 -6 -34 -26 -39 -14 -3 -25 -10 -25 -15 0 -13 6
-11 38 9 23 14 27 21 21 47 l-7 30 -1 -32z"/>
<path d="M691 1324 c-1 -24 5 -33 24 -42 14 -6 25 -8 25 -3 0 5 -9 11 -19 14
-12 3 -21 16 -24 33 l-4 29 -2 -31z"/>
<path d="M830 1318 c0 -12 -3 -19 -6 -15 -3 3 -15 -3 -27 -13 -11 -11 -17 -23
-14 -27 8 -7 77 55 77 69 0 4 -7 8 -15 8 -9 0 -15 -9 -15 -22z"/>
<path d="M1080 1283 c-34 -5 -100 -34 -100 -44 0 -4 9 -10 20 -14 20 -6 70 20
70 37 0 7 4 7 13 0 14 -12 137 -13 137 -1 0 14 -97 29 -140 22z"/>
<path d="M320 1239 c0 -12 -8 -23 -20 -26 -21 -5 -26 -28 -12 -51 6 -9 17 -3
40 23 l32 35 -20 20 -20 20 0 -21z"/>
<path d="M747 1210 c-9 -14 -17 -32 -17 -41 0 -10 -11 -20 -25 -23 -14 -4 -25
-11 -25 -16 0 -13 1 -13 38 6 18 8 32 23 32 33 0 9 5 22 11 28 6 6 9 17 7 24
-3 8 -10 4 -21 -11z"/>
<path d="M923 1193 c-16 -21 -36 -54 -44 -73 -20 -49 -17 -156 5 -202 19 -40
38 -52 29 -18 -3 11 0 20 6 20 5 0 8 7 4 16 -4 12 -7 13 -14 3 -4 -8 -11 -10
-15 -6 -11 11 -7 98 6 132 8 21 8 31 1 33 -6 2 -11 8 -11 13 0 4 6 6 13 3 7
-2 24 10 37 28 13 18 32 39 42 46 18 13 18 14 1 28 -26 19 -28 18 -60 -23z"/>
<path d="M215 1138 c-27 -29 -59 -70 -73 -91 -21 -32 -23 -40 -11 -48 24 -15
33 -10 57 31 12 22 18 40 12 40 -5 0 -10 7 -10 15 0 8 3 14 8 13 4 -1 22 6 40
15 25 14 32 24 32 47 0 17 -2 30 -4 30 -2 0 -25 -24 -51 -52z"/>
<path d="M590 1164 c-13 -13 -20 -24 -13 -24 17 0 57 36 47 42 -5 3 -20 -5
-34 -18z"/>
<path d="M1314 1167 c-1 -13 9 -30 22 -40 13 -10 24 -13 24 -8 0 5 -5 13 -10
16 -6 4 -8 10 -5 14 2 5 -3 15 -13 24 -16 14 -17 14 -18 -6z"/>
<path d="M829 1125 c-31 -69 -24 -193 14 -257 32 -55 87 -105 144 -130 47 -21
179 -27 210 -9 13 7 -5 8 -58 4 -68 -5 -82 -3 -138 22 -115 52 -188 170 -178
287 3 31 12 71 21 89 9 18 14 34 11 37 -3 3 -14 -17 -26 -43z"/>
<path d="M360 1150 c0 -5 6 -10 14 -10 8 0 16 -5 18 -12 2 -6 10 -8 16 -4 17
10 15 27 -2 20 -8 -3 -17 -1 -21 5 -8 14 -25 14 -25 1z"/>
<path d="M392 1082 c2 -11 -2 -25 -9 -33 -10 -13 -6 -15 25 -16 28 -1 32 1 19
8 -9 6 -17 21 -17 34 0 14 -5 25 -11 25 -5 0 -9 -8 -7 -18z"/>
<path d="M540 1077 c0 -15 -4 -27 -10 -27 -5 0 -10 -5 -10 -10 0 -7 6 -7 18
-1 10 6 18 19 17 30 -2 32 -15 38 -15 8z"/>
<path d="M691 1077 c-1 -31 23 -64 34 -46 4 5 0 16 -8 22 -8 7 -17 21 -20 32
-3 15 -5 12 -6 -8z"/>
<path d="M1364 1059 c7 -33 -1 -41 -27 -27 -20 10 -20 10 1 -17 30 -37 28 -59
-8 -95 -25 -25 -34 -29 -49 -20 -23 12 -31 13 -31 3 0 -13 54 -35 58 -23 2 5
8 10 14 10 6 0 19 9 29 21 23 27 37 145 19 162 -10 10 -11 7 -6 -14z"/>
<path d="M982 1058 c-16 -16 -15 -29 2 -22 8 3 24 1 35 -6 14 -7 21 -7 21 0 0
5 -7 10 -15 10 -7 0 -18 7 -22 15 -7 12 -12 12 -21 3z"/>
<path d="M280 1032 c0 -6 9 -14 20 -17 11 -3 20 -13 20 -21 0 -8 5 -12 10 -9
6 4 8 11 5 16 -4 5 1 9 10 9 9 0 14 4 11 9 -3 5 -15 7 -26 4 -11 -3 -27 0 -35
7 -9 8 -15 8 -15 2z"/>
<path d="M617 1021 c-16 -6 -16 -8 -3 -26 13 -17 15 -18 16 -3 0 9 5 18 12 20
7 3 8 7 3 10 -6 3 -18 3 -28 -1z"/>
<path d="M919 1023 c-11 -3 -15 -11 -12 -24 7 -26 16 -24 30 6 6 14 8 24 5 24
-4 -1 -14 -3 -23 -6z"/>
<path d="M63 1008 c-26 -36 -67 -153 -59 -171 2 -7 5 -5 5 5 1 9 16 53 35 97
34 80 37 93 19 69z"/>
<path d="M81 935 c-19 -45 -21 -58 -11 -70 18 -22 27 -19 34 13 4 15 14 42 24
60 15 29 15 34 2 42 -23 14 -23 14 -49 -45z"/>
<path d="M459 929 c-9 -9 -23 -19 -30 -21 -8 -3 -12 -8 -9 -11 9 -9 69 29 62
39 -4 6 -14 3 -23 -7z"/>
<path d="M708 901 c-25 -25 -22 -31 7 -18 14 7 25 18 25 25 0 17 -12 14 -32
-7z"/>
<path d="M42 806 c-7 -28 -12 -72 -12 -98 0 -61 28 -184 46 -199 19 -16 19 8
-1 49 -9 17 -16 60 -17 99 -1 37 -6 74 -11 81 -8 9 -7 12 3 10 21 -5 35 66 18
91 -13 18 -15 16 -26 -33z"/>
<path d="M1256 828 c-27 -18 -44 -34 -38 -36 13 -4 92 47 92 59 0 12 1 13 -54
-23z"/>
<path d="M248 828 c-2 -13 -18 -29 -41 -41 -21 -11 -36 -21 -33 -24 2 -2 19 4
38 13 18 10 36 17 41 16 4 -1 7 12 7 28 0 35 -7 40 -12 8z"/>
<path d="M977 837 c-7 -18 2 -31 30 -46 27 -14 33 -14 33 -1 0 6 -6 10 -14 10
-8 0 -17 11 -20 25 -7 27 -21 33 -29 12z"/>
<path d="M691 825 c-1 -19 -40 -45 -68 -45 -7 0 -13 -4 -13 -10 0 -15 15 -12
55 11 29 17 38 19 50 9 9 -7 18 -10 22 -7 3 4 -2 10 -11 13 -10 4 -22 16 -26
28 -8 20 -9 20 -9 1z"/>
<path d="M386 812 c-2 -4 9 -15 25 -24 16 -10 31 -13 34 -7 4 5 -1 9 -10 9 -8
0 -18 7 -21 15 -7 16 -20 20 -28 7z"/>
<path d="M1120 803 c-14 -7 -33 -13 -43 -13 -10 0 -15 -4 -12 -10 3 -5 17 -10
31 -10 13 0 24 5 24 10 0 13 33 13 46 0 5 -5 15 -6 23 -1 10 7 8 11 -10 16
-13 4 -26 11 -29 14 -3 4 -16 1 -30 -6z"/>
<path d="M777 783 c-20 -5 -13 -23 10 -23 9 0 25 -7 35 -17 10 -9 18 -12 18
-7 -1 10 -36 55 -42 53 -1 -1 -11 -3 -21 -6z"/>
<path d="M1359 714 c-7 -8 -33 -25 -58 -37 -39 -18 -63 -21 -166 -21 -112 0
-125 3 -194 32 -83 36 -81 36 -81 22 0 -5 9 -10 20 -10 24 0 27 -25 4 -34 -9
-4 -14 -9 -11 -12 3 -3 14 0 25 7 12 7 27 9 38 4 11 -4 25 -7 33 -6 8 1 10 -2
5 -10 -5 -9 -2 -11 8 -6 9 3 38 -1 65 -9 45 -14 67 -13 107 2 11 4 15 2 13 -7
-2 -8 -2 -11 0 -7 2 4 20 4 38 1 37 -6 98 13 89 28 -3 5 -1 9 5 9 5 0 11 -5
13 -11 3 -8 15 -6 41 4 29 12 37 22 37 41 0 31 -14 40 -31 20z"/>
<path d="M809 651 c14 -10 31 -17 38 -14 9 4 5 10 -13 19 -38 20 -53 17 -25
-5z"/>
<path d="M689 605 c-4 -3 -4 -17 0 -31 7 -28 86 -80 96 -64 3 6 -2 13 -12 16
-42 13 -68 34 -73 59 -3 15 -8 24 -11 20z"/>
<path d="M990 610 c-1 -3 -4 -17 -6 -32 -2 -22 3 -30 27 -42 32 -16 40 -8 10
11 -11 7 -21 25 -24 40 -2 15 -5 26 -7 23z"/>
<path d="M1 579 c-5 -119 155 -341 323 -447 132 -84 359 -113 521 -68 l50 15
-60 -7 c-33 -4 -112 -7 -175 -6 -126 0 -195 16 -289 64 -158 81 -323 283 -361
440 -7 29 -8 31 -9 9z"/>
<path d="M1354 577 c-3 -9 -3 -21 1 -27 11 -18 -31 -11 -53 10 -13 13 -23 16
-27 9 -8 -11 22 -38 43 -39 6 0 12 -4 12 -10 0 -5 7 -10 15 -10 8 0 17 14 21
35 7 38 -1 59 -12 32z"/>
<path d="M390 562 c0 -4 19 -19 43 -33 43 -26 44 -26 66 -8 26 21 21 25 -10 8
-16 -8 -27 -5 -54 15 -35 27 -45 31 -45 18z"/>
<path d="M836 563 c-3 -3 8 -15 25 -25 41 -25 49 -16 11 11 -16 11 -32 18 -36
14z"/>
<path d="M120 543 c0 -11 61 -45 68 -38 3 3 3 6 1 8 -40 24 -69 36 -69 30z"/>
<path d="M270 543 c0 -11 57 -42 64 -35 12 11 5 22 -13 22 -11 0 -23 5 -26 10
-7 12 -25 13 -25 3z"/>
<path d="M610 456 c0 -8 -10 -22 -22 -30 -12 -9 -17 -16 -10 -16 14 0 52 36
52 50 0 6 -4 10 -10 10 -5 0 -10 -6 -10 -14z"/>
<path d="M1306 430 c-19 -34 -28 -37 -46 -15 -7 8 -17 15 -23 15 -5 0 3 -11
19 -25 16 -14 32 -25 36 -25 8 0 40 71 35 76 -2 2 -11 -10 -21 -26z"/>
<path d="M122 425 c14 -30 19 -31 41 -5 17 20 16 20 -8 14 -15 -4 -25 -2 -25
5 0 6 -4 11 -10 11 -6 0 -5 -10 2 -25z"/>
<path d="M448 431 c-16 -9 -28 -20 -28 -25 0 -4 11 -1 25 8 24 16 27 15 64 -8
21 -14 41 -22 45 -19 3 3 -11 15 -32 26 -20 11 -39 23 -42 26 -3 4 -17 0 -32
-8z"/>
<path d="M730 420 c-16 -12 -34 -17 -50 -13 -20 4 -23 3 -13 -7 7 -7 21 -10
35 -6 25 7 79 46 63 46 -5 0 -21 -9 -35 -20z"/>
<path d="M272 415 c-17 -13 -26 -13 -43 -5 -33 18 -32 6 1 -14 17 -9 30 -12
30 -7 0 6 6 11 14 11 7 0 19 7 26 15 16 20 1 19 -28 0z"/>
<path d="M950 410 c31 -25 38 -25 75 0 17 11 25 20 20 20 -6 0 -21 -7 -33 -16
-21 -14 -25 -14 -47 0 -34 22 -45 19 -15 -4z"/>
<path d="M1080 421 c0 -5 13 -14 29 -21 22 -9 34 -9 51 0 12 6 20 14 17 17 -3
2 -14 -1 -25 -8 -18 -11 -24 -10 -40 4 -20 19 -32 22 -32 8z"/>
<path d="M246 346 c4 -17 0 -27 -13 -34 -10 -6 -15 -14 -11 -18 4 -4 14 -1 23
6 8 7 15 8 15 3 0 -11 50 -36 57 -29 2 2 -9 12 -26 22 -23 14 -31 26 -31 46 0
15 -5 28 -10 28 -6 0 -8 -10 -4 -24z"/>
<path d="M1223 312 c-29 -31 -53 -57 -53 -59 0 -12 62 39 88 73 45 60 28 53
-35 -14z"/>
<path d="M980 321 c0 -12 -8 -21 -22 -23 -12 -2 -23 -9 -26 -16 -3 -9 6 -8 32
5 35 16 46 36 26 48 -5 3 -10 -3 -10 -14z"/>
<path d="M690 320 c0 -6 -11 -16 -25 -22 -14 -6 -25 -15 -25 -20 0 -5 14 0 30
12 17 12 30 18 30 13 0 -4 11 -13 25 -20 32 -14 31 -12 -5 20 -16 15 -30 23
-30 17z"/>
<path d="M1060 201 c0 -5 -16 -16 -35 -25 -35 -17 -85 -13 -85 7 0 6 -2 8 -5
5 -11 -11 7 -36 29 -42 27 -7 130 39 121 54 -8 12 -25 13 -25 1z"/>
<path d="M438 176 c-17 -9 -31 -10 -44 -4 -18 9 -18 8 0 -6 24 -20 35 -20 60
-1 27 20 16 27 -16 11z"/>
<path d="M490 181 c0 -6 7 -14 15 -17 8 -4 12 -11 8 -17 -4 -6 -1 -7 7 -2 10
6 12 4 7 -8 -9 -25 9 -21 49 11 37 30 47 52 12 28 -29 -21 -57 -20 -80 1 -11
10 -18 12 -18 4z"/>
<path d="M731 169 c-13 -10 -29 -19 -37 -19 -8 0 -14 -4 -14 -8 0 -18 12 -20
29 -4 10 10 26 22 37 28 10 7 17 14 14 17 -3 3 -16 -3 -29 -14z"/>
<path d="M890 182 c0 -6 -13 -15 -30 -21 -16 -5 -30 -17 -30 -25 0 -21 16 -20
32 2 7 10 21 23 32 29 12 7 15 13 7 17 -6 4 -11 3 -11 -2z"/>
<path d="M598 122 c-33 -7 -18 -20 22 -20 22 -1 38 3 35 7 -6 11 -36 18 -57
13z"/>
<path d="M749 119 c-7 -5 -24 -9 -36 -9 -13 0 -23 -5 -23 -11 0 -5 5 -7 10 -4
6 4 31 7 55 7 49 0 54 3 27 17 -11 6 -24 6 -33 0z"/>
</g>
</svg>
