<?xml version="1.0" standalone="no"?>
<!DOCTYPE svg PUBLIC "-//W3C//DTD SVG 20010904//EN"
 "http://www.w3.org/TR/2001/REC-SVG-20010904/DTD/svg10.dtd">
<svg version="1.0" xmlns="http://www.w3.org/2000/svg"
 width="212.000000pt" height="196.000000pt" viewBox="0 0 212.000000 196.000000"
 preserveAspectRatio="xMidYMid meet">
<metadata>
Created by potrace 1.10, written by Peter Selinger 2001-2011
</metadata>
<g transform="translate(0.000000,196.000000) scale(0.100000,-0.100000)"
fill="#000000" stroke="none">
<path d="M1764 1500 c-11 -4 -34 -24 -52 -44 -68 -77 -49 -181 42 -237 29 -17
29 -19 8 -19 -49 0 -138 -65 -168 -122 -8 -15 -14 -52 -14 -82 0 -197 -107
-363 -291 -453 -94 -47 -128 -77 -158 -143 -55 -122 10 -278 135 -326 43 -16
130 -16 167 0 14 7 20 4 24 -13 3 -11 7 -21 9 -21 3 0 37 16 77 36 253 127
435 341 521 612 31 100 33 122 7 122 -17 0 -18 8 -13 120 5 116 4 121 -21 159
-30 46 -80 86 -125 102 l-32 11 32 21 c48 32 82 105 73 157 -8 46 -43 93 -86
115 -30 16 -101 19 -135 5z m142 -25 c63 -41 83 -134 41 -196 -60 -90 -180
-88 -238 4 -28 45 -22 127 12 163 50 54 128 67 185 29z m-36 -286 c59 -13 113
-50 150 -101 26 -35 30 -50 29 -102 0 -79 -12 -145 -22 -128 -5 6 -19 12 -33
12 -19 0 -24 5 -24 28 -1 72 -75 162 -151 182 -77 21 -168 -15 -209 -83 l-20
-32 0 41 c0 72 77 156 167 180 60 16 58 16 113 3z m-27 -133 c44 -18 95 -78
103 -122 9 -46 -1 -123 -25 -200 -71 -225 -223 -405 -436 -519 -66 -35 -81
-47 -83 -69 -2 -15 2 -34 9 -42 16 -19 9 -25 -39 -31 -83 -11 -180 44 -221
125 -29 59 -34 107 -16 167 22 77 64 120 160 165 61 28 99 54 146 101 76 75
112 139 139 243 29 114 50 146 115 180 37 19 105 21 148 2z m175 -208 c17 -17
15 -51 -9 -132 -63 -214 -213 -412 -405 -535 -102 -66 -158 -88 -179 -71 -31
26 -17 48 57 87 231 121 391 316 459 558 30 105 46 124 77 93z m45 -54 c34
-12 -47 -225 -136 -361 -92 -140 -231 -264 -379 -339 -78 -39 -74 -38 -81 -20
-4 11 10 22 48 40 242 110 457 375 517 636 6 28 13 50 14 50 1 0 9 -3 17 -6z"/>
<path d="M1088 1075 c-57 -21 -103 -61 -129 -110 -13 -25 -31 -45 -40 -45 -9
0 -35 -14 -58 -31 -106 -76 -106 -232 -1 -308 72 -52 164 -50 229 5 24 20 43
26 89 28 107 4 196 79 222 186 23 97 -24 202 -115 255 -55 33 -142 42 -197 20z
m179 -26 c163 -79 163 -319 0 -398 -173 -84 -367 77 -314 260 17 57 64 112
122 142 44 24 139 22 192 -4z m-336 -190 c-2 -31 3 -67 14 -94 17 -46 88 -119
131 -135 23 -9 24 -12 13 -27 -21 -24 -73 -43 -120 -43 -140 0 -223 157 -145
273 18 26 87 76 106 77 3 0 3 -23 1 -51z"/>
<path d="M409 633 c-9 -10 -43 -76 -77 -148 -34 -72 -71 -148 -82 -169 -15
-30 -17 -42 -9 -53 35 -42 271 -163 318 -163 13 0 27 12 37 33 9 17 20 34 23
37 10 7 95 157 127 221 15 31 24 63 21 72 -5 12 -298 176 -333 185 -5 1 -17
-5 -25 -15z m185 -84 c86 -44 156 -85 156 -90 0 -5 0 -12 0 -16 0 -5 -6 -8
-12 -8 -14 0 -26 -17 -97 -138 l-43 -74 -50 19 c-27 10 -54 15 -60 12 -6 -4
-8 -3 -5 3 4 6 -6 16 -21 22 -15 7 -52 29 -83 49 l-56 36 53 110 c33 69 49
115 43 121 -14 14 -11 35 5 35 8 0 84 -36 170 -81z m-210 -16 c-12 -47 -86
-193 -95 -187 -5 3 -1 22 10 42 10 20 33 67 50 105 34 71 46 85 35 40z m324
-182 c-15 -41 -96 -171 -106 -171 -7 0 -11 3 -9 8 73 129 101 172 109 172 5 0
8 -4 6 -9z m-423 -61 c3 -5 11 -10 16 -10 6 0 7 5 3 12 -4 7 -3 8 5 4 6 -4 9
-11 6 -16 -7 -11 32 -33 45 -25 5 3 12 0 16 -6 4 -8 3 -9 -4 -5 -7 4 -12 5
-12 2 0 -12 101 -56 112 -50 6 4 8 3 5 -3 -4 -6 14 -18 41 -28 58 -22 70 -31
55 -46 -15 -15 -152 40 -245 101 -43 27 -78 53 -78 58 0 21 24 29 35 12z m173
-25 c4 -4 0 -6 -8 -5 -30 5 -51 0 -45 -10 10 -16 -1 -11 -19 9 -16 18 -15 18
24 16 22 -1 44 -6 48 -10z m74 -50 c16 -14 35 -22 40 -19 7 4 8 2 4 -5 -4 -7
-17 -9 -29 -6 -21 6 -22 6 -3 -9 11 -9 16 -16 10 -16 -5 0 -20 9 -34 20 -15
12 -18 18 -7 14 23 -8 21 5 -5 27 -11 11 -18 19 -13 19 4 0 21 -11 37 -25z"/>
<path d="M869 307 c-78 -52 -100 -135 -56 -211 78 -137 292 -77 289 80 -1 121
-136 197 -233 131z m138 -6 c47 -22 71 -53 80 -104 17 -110 -86 -193 -192
-153 -95 37 -120 159 -48 228 52 50 95 58 160 29z"/>
</g>
</svg>
