<?xml version="1.0" standalone="no"?>
<!DOCTYPE svg PUBLIC "-//W3C//DTD SVG 20010904//EN"
 "http://www.w3.org/TR/2001/REC-SVG-20010904/DTD/svg10.dtd">
<svg version="1.0" xmlns="http://www.w3.org/2000/svg"
 width="300.000000pt" height="110.000000pt" viewBox="0 0 300.000000 110.000000"
 preserveAspectRatio="xMidYMid meet">
<metadata>
Created by potrace 1.10, written by Peter Selinger 2001-2011
</metadata>
<g transform="translate(0.000000,110.000000) scale(0.100000,-0.100000)"
fill="#000000" stroke="none">
<path d="M120 980 c0 -5 20 -10 45 -10 38 0 45 -3 45 -19 0 -16 -8 -21 -47
-24 l-48 -3 48 -2 c40 -2 47 -5 47 -22 0 -17 -7 -20 -45 -20 -25 0 -45 -4 -45
-10 0 -5 20 -10 45 -10 38 0 45 -3 45 -19 0 -16 -8 -21 -47 -24 l-48 -3 48 -2
c40 -2 47 -5 47 -22 0 -17 -7 -20 -45 -20 -25 0 -45 -4 -45 -10 0 -5 20 -10
45 -10 38 0 45 -3 45 -19 0 -16 -8 -21 -47 -24 l-48 -3 48 -2 c40 -2 47 -5 47
-22 0 -17 -7 -20 -45 -20 -27 0 -45 -5 -45 -11 0 -8 15 -10 45 -7 43 5 45 4
45 -20 0 -23 -2 -24 -45 -20 -25 3 -45 2 -45 -3 0 -5 20 -9 45 -9 38 0 45 -3
45 -20 0 -17 -7 -20 -45 -20 -26 0 -45 -5 -45 -11 0 -8 15 -9 45 -5 44 7 45 7
45 -20 0 -26 -1 -26 -45 -20 -29 5 -45 4 -45 -3 0 -6 20 -11 45 -11 38 0 45
-3 45 -19 0 -16 -8 -21 -47 -24 l-48 -3 48 -2 c40 -2 47 -5 47 -22 0 -17 -7
-20 -45 -20 -25 0 -45 -4 -45 -10 0 -5 20 -10 45 -10 38 0 45 -3 45 -19 0 -16
-8 -21 -47 -24 l-48 -3 48 -2 c40 -2 47 -5 47 -22 0 -17 -7 -20 -45 -20 -25 0
-45 -4 -45 -10 0 -5 20 -10 45 -10 38 0 45 -3 45 -19 0 -16 -8 -21 -47 -24
l-48 -3 48 -2 c40 -2 47 -5 47 -22 0 -17 -7 -20 -45 -20 -25 0 -45 -4 -45 -10
0 -5 20 -10 45 -10 38 0 45 -3 45 -19 0 -16 -8 -21 -47 -24 -27 -2 544 -3
1267 -3 723 0 1291 1 1263 3 -45 3 -53 7 -53 24 0 16 7 19 50 19 28 0 50 5 50
10 0 6 -22 10 -50 10 -43 0 -50 3 -50 19 0 17 8 21 53 24 l52 3 -52 2 c-46 2
-53 5 -53 22 0 17 7 20 50 20 28 0 50 5 50 10 0 6 -22 10 -50 10 -43 0 -50 3
-50 19 0 17 8 21 53 24 l52 3 -52 2 c-46 2 -53 5 -53 22 0 17 7 20 50 20 28 0
50 5 50 10 0 6 -22 10 -50 10 -43 0 -50 3 -50 19 0 17 8 21 53 24 l52 3 -52 2
c-46 2 -53 5 -53 22 0 17 7 20 51 20 31 0 48 4 44 10 -4 6 -25 9 -48 8 -36 -3
-42 0 -42 17 0 17 6 20 42 17 22 -2 44 2 48 7 4 7 -11 11 -44 11 -44 0 -51 3
-51 20 0 17 7 20 52 20 28 0 48 3 44 7 -4 4 -27 6 -52 4 -43 -2 -45 -1 -42 21
3 20 8 23 44 20 23 -2 45 1 49 7 4 7 -11 11 -44 11 -44 0 -51 3 -51 19 0 17 8
21 53 24 l52 3 -52 2 c-46 2 -53 5 -53 22 0 17 7 20 50 20 28 0 50 5 50 10 0
6 -22 10 -50 10 -43 0 -50 3 -50 19 0 17 8 21 53 24 l52 3 -52 2 c-46 2 -53 5
-53 22 0 17 7 20 50 20 28 0 50 5 50 10 0 6 -22 10 -50 10 -43 0 -50 3 -50 19
0 17 8 21 53 24 l52 3 -52 2 c-46 2 -53 5 -53 22 0 17 7 20 50 20 28 0 50 5
50 10 0 7 -443 10 -1310 10 -867 0 -1310 -3 -1310 -10z m180 -440 l0 -430 -35
0 -35 0 0 430 0 430 35 0 35 0 0 -430z m80 418 c0 -9 3 -10 8 -2 4 6 15 11 25
11 16 0 17 -27 17 -426 l0 -426 -60 -3 -60 -2 0 430 0 430 35 0 c21 0 35 -5
35 -12z m80 0 c0 -10 2 -10 8 0 10 15 190 15 210 -1 8 -6 16 -6 25 1 16 13 88
13 105 -1 9 -7 16 -7 24 1 17 17 208 16 209 0 0 -10 2 -10 6 0 19 47 23 -29
23 -416 l0 -428 -77 -2 c-42 -1 -82 3 -89 9 -8 7 -14 7 -19 0 -3 -7 -58 -10
-141 -9 -113 0 -134 3 -130 15 4 9 1 11 -5 7 -14 -8 -14 -8 34 84 l37 72 -31
63 c-35 68 -46 118 -26 114 7 -1 11 7 10 21 -2 13 1 21 7 17 6 -4 7 1 3 11 -4
12 -3 15 5 10 7 -4 16 2 23 17 9 20 5 35 -24 93 l-35 69 34 68 34 67 -28 56
c-22 43 -30 53 -35 40 -5 -11 -3 -15 5 -10 7 5 9 2 6 -8 -4 -8 1 -29 9 -45 13
-28 13 -34 -1 -61 -9 -17 -13 -39 -9 -48 4 -12 3 -15 -5 -10 -8 5 -10 1 -5
-10 4 -11 3 -15 -5 -10 -6 3 -15 -1 -20 -11 -7 -12 -1 -35 25 -88 l36 -72 -36
-68 c-34 -64 -35 -69 -21 -97 9 -17 20 -26 26 -22 8 5 9 1 5 -10 -5 -11 -3
-15 5 -10 8 5 9 2 5 -10 -4 -9 0 -30 8 -46 17 -34 19 -44 6 -35 -14 8 -32 -30
-24 -51 4 -12 3 -15 -5 -10 -8 5 -10 1 -5 -10 4 -11 3 -15 -5 -10 -15 9 -33
-26 -21 -45 16 -26 10 -29 -71 -27 l-80 2 0 428 c0 279 3 428 10 428 6 0 10
-6 10 -12z m635 -418 c0 -237 -3 -430 -7 -430 -5 0 -8 193 -8 430 0 237 3 430
8 430 4 0 7 -193 7 -430z m35 418 c0 9 66 12 295 12 229 0 295 -3 296 -12 0
-10 2 -10 6 0 2 6 8 12 12 12 4 0 7 -189 7 -419 -1 -231 3 -417 8 -414 4 3 5
18 2 34 -3 15 -1 31 4 34 6 4 10 -14 10 -44 l0 -50 -332 2 -333 2 0 420 c-1
231 1 424 3 429 3 4 8 2 13 -5 6 -10 9 -11 9 -1z m671 0 c0 -10 2 -10 6 0 8
19 119 16 127 -4 3 -9 11 -12 18 -8 8 5 9 2 5 -10 -5 -11 -3 -15 5 -10 8 5 9
2 5 -10 -4 -10 -3 -15 3 -11 6 4 9 -4 7 -17 -1 -14 3 -22 11 -21 14 3 14 1 6
-21 -5 -13 -9 -14 -20 -5 -8 6 -14 8 -14 4 0 -5 -9 0 -20 10 -19 17 -21 17
-40 0 -16 -14 -23 -16 -32 -7 -9 9 -7 16 7 32 17 18 17 21 2 38 -8 9 -16 20
-16 25 -1 4 -3 7 -6 7 -3 0 -4 -2 -2 -4 1 -2 -7 -13 -17 -25 -18 -20 -18 -22
-3 -39 13 -14 14 -21 5 -30 -8 -8 -8 -15 2 -27 11 -13 10 -19 -5 -35 -17 -18
-17 -21 -2 -37 8 -10 16 -21 16 -25 1 -5 3 -8 6 -8 3 0 5 3 6 8 0 4 8 15 16
25 15 16 15 19 -2 37 -14 16 -16 23 -7 32 9 9 16 7 32 -7 17 -15 22 -16 36 -4
25 20 47 21 38 1 -4 -9 -7 -28 -7 -42 1 -22 0 -23 -12 -7 -15 21 -45 23 -45 3
0 -19 17 -29 25 -16 7 12 25 4 25 -11 0 -6 -4 -8 -9 -4 -6 3 -14 -2 -19 -12
-8 -13 -2 -34 24 -85 31 -62 48 -115 24 -78 -5 8 -12 11 -16 7 -4 -4 -16 0
-26 10 -17 15 -19 15 -36 0 -14 -13 -21 -14 -30 -5 -9 9 -8 16 5 30 14 16 15
20 1 36 -9 9 -13 23 -11 30 3 6 -3 12 -12 12 -9 0 -15 -6 -12 -12 2 -7 -2 -21
-11 -30 -14 -16 -13 -20 1 -36 13 -14 14 -21 5 -30 -8 -8 -8 -15 2 -27 11 -13
10 -19 -5 -35 -17 -18 -17 -21 -2 -37 8 -10 16 -21 16 -25 1 -5 3 -8 6 -8 3 0
5 3 6 8 0 4 8 15 16 25 15 16 15 19 -2 37 -14 16 -16 23 -7 32 9 9 16 7 32 -7
19 -17 21 -17 38 -2 25 23 46 22 37 0 -8 -21 -8 -23 -6 -43 1 -10 6 -7 15 9 8
14 11 32 8 40 -3 9 -1 12 6 7 20 -12 24 20 7 53 -9 19 -20 29 -27 25 -8 -5 -9
-1 -5 10 9 22 -10 59 -25 50 -13 -8 -13 -8 35 84 l37 72 -30 60 c-16 33 -30
62 -30 65 0 10 46 5 58 -7 8 -8 15 -8 24 0 16 13 88 12 106 -1 9 -7 17 -6 24
1 8 8 53 12 125 12 l113 0 0 -428 0 -428 -231 -1 c-201 -2 -230 0 -225 13 4 9
2 12 -5 8 -14 -8 -14 -8 34 84 l37 72 -35 70 c-19 38 -35 73 -34 77 5 29 -2
36 -16 15 -14 -19 -14 -24 0 -52 9 -18 20 -28 27 -24 8 5 9 1 5 -10 -4 -9 -3
-15 2 -12 5 3 9 -4 8 -17 0 -12 3 -29 7 -38 5 -12 2 -15 -14 -14 -11 1 -26 7
-32 13 -17 17 -37 15 -44 -3 -5 -12 -9 -13 -20 -4 -12 10 -12 15 2 30 15 17
16 21 2 37 -9 9 -13 23 -11 30 3 6 -3 12 -12 12 -9 0 -15 -6 -12 -12 2 -7 -2
-21 -11 -30 -14 -16 -13 -20 1 -36 13 -14 14 -21 5 -30 -8 -8 -8 -15 2 -27 11
-13 10 -19 -5 -35 -17 -18 -17 -21 -2 -37 8 -10 16 -21 16 -25 1 -5 4 -7 9 -5
4 1 6 6 4 11 -2 5 5 17 14 27 16 18 16 20 -2 33 -15 12 -16 17 -7 27 10 10 17
9 33 -6 19 -17 21 -17 38 -2 26 24 46 22 32 -2 -5 -11 -7 -28 -3 -38 5 -14 4
-16 -8 -7 -30 23 -49 24 -49 4 0 -11 7 -20 15 -20 13 0 14 -4 4 -21 -8 -15 -8
-24 0 -32 22 -22 10 -26 -69 -24 l-80 1 -2 426 c0 234 -4 403 -7 375 -3 -27
-9 -45 -12 -40 -4 8 -4 43 0 88 2 12 41 8 42 -5z m661 -3 c5 -6 8 -5 8 3 0 8
23 12 80 12 l80 0 0 -430 0 -429 -105 1 -105 2 0 428 c0 403 1 429 18 426 9
-2 20 -7 24 -13z m-692 -147 c0 -28 -3 -49 -6 -45 -4 3 -6 21 -6 39 0 48 1 58
7 58 3 0 5 -23 5 -52z m103 -25 c9 -9 -13 -34 -24 -27 -14 8 -11 34 4 34 8 0
17 -3 20 -7z m-103 -109 c0 -41 -3 -73 -7 -71 -5 3 -7 36 -6 74 1 76 1 73 8
73 3 0 5 -34 5 -76z m-1163 44 c-2 -7 11 -44 30 -82 29 -57 33 -73 24 -90 -11
-21 -11 -21 -6 1 4 14 -7 47 -28 90 -30 59 -37 93 -20 93 2 0 3 -6 0 -12z
m1266 -85 c9 -9 -13 -34 -24 -27 -14 8 -11 34 4 34 8 0 17 -3 20 -7z m-103
-95 c0 -28 -3 -49 -6 -45 -4 3 -6 21 -6 39 0 48 1 58 7 58 3 0 5 -23 5 -52z
m163 27 c8 -18 -11 -31 -25 -17 -11 11 -3 32 12 32 4 0 10 -7 13 -15z m-64
-81 c-9 -11 -15 -12 -25 -3 -11 9 -12 15 -3 25 9 11 15 12 25 3 11 -9 12 -15
3 -25z m-99 -56 c0 -28 -3 -49 -6 -45 -7 7 -12 79 -7 90 9 17 13 4 13 -45z
m99 -94 c-9 -11 -15 -12 -25 -3 -11 9 -12 15 -3 25 9 11 15 12 25 3 11 -9 12
-15 3 -25z m122 -81 c-11 -21 -20 -34 -21 -30 0 4 7 21 15 38 12 21 13 34 5
48 -5 11 -10 23 -10 28 1 4 7 -4 16 -19 13 -25 13 -31 -5 -65z m-221 15 c0
-28 -3 -49 -6 -45 -4 3 -6 21 -6 39 0 48 1 58 7 58 3 0 5 -23 5 -52z m166 21
c10 -17 -13 -36 -27 -22 -12 12 -4 33 11 33 5 0 12 -5 16 -11z m-67 -85 c-9
-11 -15 -12 -25 -3 -11 9 -12 15 -3 25 9 11 15 12 25 3 11 -9 12 -15 3 -25z"/>
<path d="M405 540 c0 -224 3 -406 6 -405 7 5 6 801 -1 808 -3 3 -5 -178 -5
-403z"/>
<path d="M383 630 c0 -36 2 -50 4 -32 2 17 2 47 0 65 -2 17 -4 3 -4 -33z"/>
<path d="M500 946 c0 -8 -10 -22 -22 -30 -22 -16 -22 -16 -3 -31 42 -31 72 -7
53 43 -13 33 -28 43 -28 18z m26 -37 c10 -17 -13 -36 -27 -22 -12 12 -4 33 11
33 5 0 12 -5 16 -11z"/>
<path d="M990 948 c0 -6 -7 -20 -17 -30 -15 -17 -15 -19 2 -38 15 -16 16 -23
6 -33 -10 -9 -14 -8 -22 6 -12 21 -32 22 -49 2 -7 -9 -15 -13 -18 -10 -3 3
-14 -2 -24 -12 -24 -22 -23 -13 6 37 14 24 27 37 30 31 4 -6 15 -11 26 -11 13
0 17 5 13 20 -6 21 -18 26 -28 11 -3 -6 -14 -8 -25 -6 -14 3 -17 -1 -13 -12 4
-11 2 -14 -5 -9 -8 5 -10 1 -5 -10 4 -11 3 -15 -5 -10 -6 3 -16 -2 -21 -12 -8
-15 -2 -34 26 -87 l36 -68 -35 -71 c-33 -67 -35 -74 -21 -99 8 -16 19 -25 25
-21 8 5 9 1 5 -10 -4 -9 1 -31 9 -50 15 -30 15 -36 1 -63 -13 -24 -13 -30 -2
-30 20 0 47 65 35 85 -8 14 -10 14 -10 2 0 -9 -6 -5 -15 10 -17 30 -19 44 -4
34 6 -3 3 8 -5 25 -16 29 -16 31 3 31 10 0 24 -7 31 -15 12 -14 15 -14 32 2
14 12 21 14 30 5 9 -9 7 -16 -5 -30 -16 -17 -16 -20 -2 -32 8 -7 14 -19 13
-28 -2 -8 3 -17 10 -19 7 -3 12 4 12 15 0 21 23 46 33 35 4 -3 7 -3 7 1 0 4
-12 18 -27 31 -16 13 -22 25 -15 25 15 0 16 26 1 36 -6 3 -16 1 -22 -5 -8 -8
-16 -6 -28 5 -16 15 -21 14 -58 -2 -34 -15 -40 -22 -35 -38 4 -12 3 -18 -1
-14 -4 4 -9 22 -11 40 -2 20 -1 28 5 20 6 -10 11 -5 21 17 10 25 15 29 30 21
28 -15 39 -12 33 10 -6 23 -14 25 -31 8 -17 -17 -15 -3 4 33 16 32 12 65 -7
53 -7 -4 -10 -1 -7 7 3 8 12 13 21 13 8 -1 18 7 20 17 4 14 0 19 -14 19 -10 0
-19 -6 -19 -14 0 -8 -5 -18 -12 -22 -8 -5 -9 -2 -5 10 5 11 3 15 -5 10 -8 -5
-9 -2 -5 10 5 11 3 15 -5 10 -8 -5 -9 -2 -5 10 5 11 3 15 -4 10 -7 -4 -10 -1
-7 7 6 19 29 19 51 1 15 -13 19 -13 37 3 16 14 23 16 32 7 9 -9 7 -16 -5 -30
-16 -17 -16 -20 -2 -32 8 -7 15 -21 15 -31 0 -11 5 -19 10 -19 6 0 10 8 10 18
0 10 5 23 12 30 10 9 8 16 -5 29 -15 15 -15 19 -2 34 14 14 14 18 0 29 -14 12
-14 15 1 31 15 17 16 21 2 37 -9 9 -13 23 -11 30 3 6 0 12 -6 12 -6 0 -11 -5
-11 -12z m26 -39 c10 -17 -13 -36 -27 -22 -12 12 -4 33 11 33 5 0 12 -5 16
-11z m-65 -82 c-5 -5 -17 -7 -26 -3 -14 5 -15 9 -5 21 10 12 16 13 27 4 9 -8
10 -16 4 -22z m65 -48 c10 -17 -13 -36 -27 -22 -12 12 -4 33 11 33 5 0 12 -5
16 -11z m-126 -136 c-36 -67 -36 -60 0 19 14 31 26 53 28 48 2 -5 -11 -35 -28
-67z m124 -141 c2 -4 1 -14 -4 -22 -7 -11 -12 -12 -21 -3 -6 6 -8 16 -5 22 8
13 23 14 30 3z"/>
<path d="M730 935 c-10 -13 -10 -19 2 -33 9 -9 13 -23 11 -29 -3 -7 3 -13 12
-13 9 0 15 6 12 13 -2 6 2 20 11 29 12 14 12 20 2 33 -7 8 -18 15 -25 15 -7 0
-18 -7 -25 -15z m41 -28 c-5 -5 -17 -7 -26 -3 -14 5 -15 9 -5 21 10 12 16 13
27 4 9 -8 10 -16 4 -22z"/>
<path d="M566 915 c-9 -24 -8 -25 15 -25 14 0 19 5 17 17 -4 23 -24 27 -32 8z"/>
<path d="M667 923 c-8 -7 11 -33 24 -33 5 0 9 9 9 20 0 19 -20 27 -33 13z"/>
<path d="M810 910 c0 -11 4 -20 9 -20 13 0 32 26 24 33 -13 14 -33 6 -33 -13z"/>
<path d="M550 855 c-10 -12 -16 -13 -26 -4 -21 17 -49 -8 -32 -28 10 -13 8
-19 -11 -35 l-24 -19 21 -15 c12 -8 22 -22 22 -30 0 -8 5 -14 10 -14 6 0 10 8
10 18 0 10 6 24 12 30 10 10 10 17 -1 33 -18 29 1 48 25 25 15 -16 18 -16 35
0 10 9 23 13 28 9 6 -3 11 1 11 10 0 11 -5 15 -14 12 -8 -3 -20 1 -26 9 -16
18 -24 18 -40 -1z m39 -31 c-9 -11 -15 -12 -25 -3 -11 9 -12 15 -3 25 9 11 15
12 25 3 11 -9 12 -15 3 -25z m-63 -45 c10 -17 -13 -36 -27 -22 -12 12 -4 33
11 33 5 0 12 -5 16 -11z"/>
<path d="M738 796 c-15 -31 -15 -35 0 -50 12 -12 13 -19 4 -28 -9 -9 -16 -7
-32 7 -19 18 -21 18 -41 -1 -12 -10 -23 -18 -25 -16 -2 1 -4 -1 -3 -5 0 -5 6
-7 13 -5 7 1 19 -5 26 -13 12 -14 15 -14 32 2 14 12 21 14 30 5 9 -9 7 -16 -7
-32 -17 -19 -17 -21 -2 -38 10 -10 17 -24 17 -30 0 -7 5 -12 10 -12 6 0 10 7
10 15 0 8 6 24 13 36 10 17 9 22 -5 33 -13 10 -14 16 -6 24 9 9 16 8 30 -5 17
-15 19 -15 37 1 11 10 25 15 30 11 6 -3 11 1 11 10 0 9 -6 15 -12 12 -7 -2
-21 2 -30 11 -16 14 -20 13 -37 -2 -15 -14 -20 -14 -30 -3 -9 11 -8 17 4 27
17 14 20 40 5 40 -5 0 -10 9 -10 20 0 30 -13 24 -32 -14z m38 -17 c10 -17 -13
-36 -27 -22 -12 12 -4 33 11 33 5 0 12 -5 16 -11z m-65 -82 c-5 -5 -17 -7 -26
-3 -14 5 -15 9 -5 21 10 12 16 13 27 4 9 -8 10 -16 4 -22z m128 -3 c-9 -11
-15 -12 -25 -3 -11 9 -12 15 -3 25 9 11 15 12 25 3 11 -9 12 -15 3 -25z m-63
-45 c10 -17 -13 -36 -27 -22 -12 12 -4 33 11 33 5 0 12 -5 16 -11z"/>
<path d="M677 793 c-14 -13 -6 -33 12 -33 14 0 18 5 14 20 -5 21 -15 25 -26
13z"/>
<path d="M816 784 c-9 -23 -8 -24 14 -24 11 0 20 6 20 14 0 20 -27 28 -34 10z"/>
<path d="M564 764 c3 -9 6 -17 6 -20 0 -2 7 -1 15 2 23 9 18 34 -6 34 -15 0
-19 -4 -15 -16z"/>
<path d="M500 667 c0 -8 -9 -22 -20 -32 -11 -10 -20 -23 -19 -29 0 -6 3 -5 6
2 4 10 9 9 24 -4 18 -16 21 -16 36 -2 13 14 14 20 2 47 -14 32 -29 41 -29 18z
m26 -38 c10 -17 -13 -36 -27 -22 -12 12 -4 33 11 33 5 0 12 -5 16 -11z"/>
<path d="M990 668 c0 -6 -7 -19 -15 -28 -14 -15 -13 -19 5 -35 19 -17 22 -18
37 -2 15 15 15 18 1 34 -8 10 -13 24 -11 31 3 6 0 12 -6 12 -6 0 -11 -5 -11
-12z m26 -39 c10 -17 -13 -36 -27 -22 -12 12 -4 33 11 33 5 0 12 -5 16 -11z"/>
<path d="M566 634 c-8 -21 -1 -28 19 -20 9 3 15 11 13 18 -7 19 -25 20 -32 2z"/>
<path d="M672 633 c5 -24 25 -27 31 -3 4 15 0 20 -15 20 -13 0 -18 -6 -16 -17z"/>
<path d="M814 634 c3 -9 6 -17 6 -20 0 -2 7 -1 15 2 23 9 18 34 -6 34 -15 0
-19 -4 -15 -16z"/>
<path d="M550 575 c-10 -13 -9 -19 5 -35 16 -18 20 -19 35 -5 9 8 22 15 28 15
7 0 12 5 12 11 0 6 -6 9 -14 6 -8 -3 -17 1 -20 9 -7 18 -30 18 -46 -1z m41
-28 c-5 -5 -17 -7 -26 -3 -14 5 -15 9 -5 21 10 12 16 13 27 4 9 -8 10 -16 4
-22z"/>
<path d="M492 568 c-9 -9 -9 -15 0 -26 10 -11 8 -18 -11 -33 -13 -11 -21 -22
-17 -26 3 -3 6 -3 6 2 0 4 7 2 15 -5 8 -7 15 -21 15 -31 0 -11 5 -19 10 -19 6
0 10 8 10 18 0 10 5 23 11 29 7 7 8 19 4 30 -5 10 -9 29 -9 42 -1 28 -16 37
-34 19z"/>
<path d="M745 539 c4 -5 0 -18 -9 -28 -15 -16 -15 -19 4 -36 19 -17 22 -17 37
-3 13 14 14 20 2 47 -8 17 -20 31 -27 31 -7 0 -10 -5 -7 -11z"/>
<path d="M671 506 c-9 -11 -8 -15 5 -20 23 -9 24 -8 24 14 0 23 -13 26 -29 6z"/>
<path d="M814 505 c-4 -9 -4 -18 -2 -21 9 -8 39 8 35 19 -6 18 -27 20 -33 2z"/>
<path d="M564 484 c3 -9 6 -18 6 -21 0 -3 7 0 15 7 21 18 19 30 -6 30 -15 0
-19 -4 -15 -16z"/>
<path d="M910 486 c0 -22 27 -27 33 -5 4 14 0 19 -14 19 -10 0 -19 -6 -19 -14z"/>
<path d="M675 450 c-3 -5 -15 -10 -26 -10 -10 0 -19 -4 -19 -10 0 -5 8 -10 19
-10 10 0 24 -7 31 -15 12 -14 15 -14 32 2 14 12 21 14 30 5 9 -9 7 -16 -5 -30
-16 -17 -16 -20 -2 -32 9 -7 14 -19 11 -26 -3 -7 -1 -16 4 -19 5 -3 16 11 26
30 15 33 15 37 0 53 -11 13 -13 21 -5 29 17 17 0 35 -26 29 -13 -3 -27 -2 -30
4 -8 13 -32 13 -40 0z m31 -11 c10 -17 -13 -36 -27 -22 -12 12 -4 33 11 33 5
0 12 -5 16 -11z m63 -86 c-15 -18 -34 -1 -25 22 5 14 9 15 21 5 12 -10 13 -16
4 -27z"/>
<path d="M800 445 c-10 -13 -9 -19 5 -35 16 -18 20 -19 35 -5 9 8 22 15 28 15
7 0 12 5 12 10 0 6 -9 10 -19 10 -11 0 -23 5 -26 10 -9 14 -21 12 -35 -5z m36
-6 c10 -17 -13 -36 -27 -22 -12 12 -4 33 11 33 5 0 12 -5 16 -11z"/>
<path d="M500 386 c0 -20 -27 -40 -33 -24 -2 7 -4 0 -4 -17 0 -16 2 -24 4 -17
4 10 9 9 24 -4 18 -16 20 -16 39 1 18 16 19 20 5 35 -8 9 -15 22 -15 28 0 7
-4 12 -10 12 -5 0 -10 -6 -10 -14z"/>
<path d="M990 388 c0 -6 -7 -19 -15 -28 -14 -15 -13 -19 5 -35 19 -17 21 -17
39 -1 15 13 20 14 24 4 2 -7 4 1 4 17 0 17 -2 24 -4 17 -6 -16 -33 4 -33 24 0
8 -4 14 -10 14 -5 0 -10 -5 -10 -12z"/>
<path d="M678 373 c-10 -2 -15 -10 -11 -19 8 -21 33 -17 33 6 0 11 -1 19 -2
19 -2 -1 -11 -3 -20 -6z"/>
<path d="M810 370 c0 -5 3 -16 6 -24 5 -13 9 -14 20 -5 19 16 17 26 -6 32 -11
3 -20 1 -20 -3z"/>
<path d="M566 354 c-8 -21 -3 -26 18 -18 9 4 15 11 13 17 -6 18 -24 19 -31 1z"/>
<path d="M911 356 c-9 -11 -8 -15 5 -20 26 -10 32 -7 27 14 -6 23 -16 25 -32
6z"/>
<path d="M868 332 c3 -10 1 -13 -6 -8 -6 3 -16 -3 -22 -14 -8 -16 -7 -25 5
-42 8 -13 15 -17 15 -10 0 17 45 15 60 -3 12 -14 15 -14 32 2 27 24 49 2 25
-25 -16 -17 -16 -20 -2 -32 8 -7 14 -18 13 -24 -5 -21 15 -17 27 6 6 13 18 22
26 20 8 -2 2 9 -13 25 -22 23 -25 32 -16 41 9 9 9 15 0 24 -9 9 -15 9 -24 0
-9 -9 -16 -8 -30 4 -16 15 -20 15 -52 0 -42 -20 -42 -20 -50 0 -3 8 -2 13 3
10 4 -3 13 5 19 18 8 17 7 23 -3 23 -8 0 -11 -7 -7 -15z"/>
<path d="M550 295 c-10 -13 -9 -19 5 -35 16 -18 20 -19 35 -5 9 8 22 15 28 15
21 0 13 15 -15 28 -34 15 -38 15 -53 -3z"/>
<path d="M485 290 c-4 -6 -1 -18 6 -27 11 -13 10 -18 -9 -33 -21 -18 -31 -37
-13 -26 11 7 28 -13 33 -39 3 -16 7 -13 22 18 17 35 17 39 2 55 -11 13 -13 21
-5 29 6 6 8 16 5 22 -9 14 -33 14 -41 1z"/>
<path d="M750 262 c0 -10 -6 -24 -12 -30 -10 -10 -10 -17 1 -33 18 -30 -2 -49
-27 -26 -17 16 -20 16 -32 2 -7 -8 -19 -15 -26 -15 -8 0 -14 -5 -14 -11 0 -6
6 -9 13 -6 6 2 20 -2 30 -11 15 -14 19 -13 35 1 14 13 21 14 30 5 9 -9 15 -9
24 0 9 9 16 8 30 -4 16 -15 20 -15 55 2 33 16 35 19 16 22 -12 2 -27 10 -34
18 -10 13 -14 12 -31 -3 -14 -12 -21 -14 -30 -5 -9 9 -7 16 5 30 16 17 16 20
2 32 -8 7 -15 21 -15 31 0 11 -4 19 -10 19 -5 0 -10 -8 -10 -18z m-37 -99 c4
-3 2 -12 -4 -20 -9 -10 -15 -10 -25 -2 -8 6 -11 15 -8 20 6 11 28 12 37 2z
m130 0 c4 -3 2 -12 -4 -20 -9 -10 -15 -10 -25 -2 -8 6 -11 15 -8 20 6 11 28
12 37 2z"/>
<path d="M683 243 c-21 -7 -15 -33 7 -33 11 0 20 3 20 8 0 15 -15 29 -27 25z"/>
<path d="M817 229 c-4 -14 0 -19 14 -19 22 0 26 25 5 33 -8 3 -16 -2 -19 -14z"/>
<path d="M564 214 c3 -9 6 -21 6 -27 0 -6 8 -3 18 6 15 16 15 19 2 27 -22 14
-33 12 -26 -6z"/>
<path d="M909 208 c-14 -15 -20 -17 -16 -7 3 9 0 16 -7 16 -9 0 -7 -14 8 -49
13 -31 23 -44 28 -35 12 18 9 34 -3 17 -9 -12 -10 -11 -6 8 3 12 1 20 -4 16
-5 -3 -9 0 -9 5 0 6 9 11 19 11 10 0 21 7 24 15 10 25 -11 27 -34 3z"/>
<path d="M1123 630 c0 -36 2 -50 4 -32 2 17 2 47 0 65 -2 17 -4 3 -4 -33z"/>
<path d="M1723 630 c0 -36 2 -50 4 -32 2 17 2 47 0 65 -2 17 -4 3 -4 -33z"/>
<path d="M1123 440 c0 -36 2 -50 4 -32 2 17 2 47 0 65 -2 17 -4 3 -4 -33z"/>
<path d="M1723 440 c0 -36 2 -50 4 -32 2 17 2 47 0 65 -2 17 -4 3 -4 -33z"/>
<path d="M2219 939 c-5 -10 -6 -25 -2 -35 4 -11 3 -15 -5 -10 -6 4 -17 -5 -26
-22 -14 -28 -13 -33 21 -97 l36 -68 -35 -71 -36 -71 35 -69 c33 -65 34 -70 20
-99 -8 -17 -13 -37 -9 -45 3 -10 1 -13 -6 -8 -8 5 -10 1 -5 -10 4 -11 3 -15
-5 -10 -6 3 -16 -3 -22 -14 -8 -16 -7 -27 6 -50 10 -16 22 -26 27 -23 5 3 7 0
5 -8 -3 -8 1 -27 9 -42 8 -15 11 -38 8 -50 -5 -17 -4 -19 4 -7 10 13 11 13 11
0 1 -12 2 -12 10 2 12 19 2 51 -12 42 -6 -4 -9 -1 -6 7 3 8 15 13 26 11 16 -2
22 2 22 17 0 23 -25 19 -48 -8 -11 -14 -13 -14 -9 -1 2 8 -4 32 -15 52 l-18
38 35 70 c29 57 33 74 25 90 -6 12 -16 18 -22 14 -6 -4 -8 1 -5 12 3 11 -2 35
-12 54 l-19 35 35 68 c32 65 38 107 11 91 -8 -5 -9 -2 -5 10 5 11 3 15 -4 10
-7 -4 -10 -1 -7 7 3 8 -3 31 -14 51 l-18 38 29 58 c23 45 26 59 15 59 -8 0
-19 -8 -25 -18z m8 -306 l-35 -68 19 -35 c10 -19 18 -39 18 -45 0 -5 -10 10
-23 35 l-24 44 36 73 c20 40 38 71 40 69 2 -2 -12 -35 -31 -73z"/>
<path d="M2332 949 c3 -8 -1 -22 -10 -31 -14 -16 -13 -20 1 -36 13 -14 14 -21
5 -30 -9 -9 -16 -8 -30 5 -16 14 -20 15 -35 1 -10 -9 -24 -13 -32 -10 -7 2
-12 -1 -9 -7 2 -7 8 -12 13 -12 6 0 18 -8 28 -16 16 -15 19 -15 37 2 16 14 23
16 32 7 9 -9 7 -16 -7 -32 -17 -18 -17 -21 -2 -37 8 -10 16 -21 16 -25 1 -5 3
-8 6 -8 3 0 5 3 6 8 0 4 8 15 16 25 15 16 15 19 -2 37 -15 16 -16 22 -5 35 10
12 10 19 2 27 -9 9 -8 16 5 30 15 17 15 19 -3 39 -10 12 -18 24 -16 27 2 4 -2
8 -8 11 -7 2 -10 -3 -8 -10z"/>
<path d="M2070 935 c-10 -13 -10 -19 4 -33 9 -10 16 -24 16 -30 0 -22 15 -12
29 18 10 24 10 34 1 45 -16 19 -34 19 -50 0z"/>
<path d="M1910 910 c0 -19 20 -27 33 -13 8 7 -11 33 -24 33 -5 0 -9 -9 -9 -20z"/>
<path d="M2012 923 c-10 -4 -10 -8 -1 -19 16 -20 29 -17 29 6 0 20 -5 23 -28
13z"/>
<path d="M2152 913 c2 -10 10 -18 18 -18 22 0 18 29 -3 33 -14 3 -18 -1 -15
-15z"/>
<path d="M2261 917 c-12 -15 -5 -27 16 -27 7 0 13 9 13 20 0 23 -13 26 -29 7z"/>
<path d="M2082 819 c3 -8 -1 -22 -10 -31 -14 -16 -13 -20 1 -36 11 -11 13 -22
7 -32 -7 -12 -12 -11 -29 4 -19 17 -23 18 -38 4 -10 -9 -24 -13 -32 -10 -7 2
-12 -1 -9 -7 2 -7 8 -12 13 -12 6 0 18 -8 28 -16 16 -15 19 -15 38 3 17 15 22
16 29 4 6 -10 4 -21 -7 -32 -14 -16 -15 -20 -1 -35 9 -10 13 -24 10 -32 -2 -7
1 -12 8 -9 6 2 11 8 11 13 0 6 8 18 16 28 15 16 15 19 -2 37 -14 16 -16 23 -7
32 9 9 16 7 32 -7 18 -17 21 -17 38 -2 9 8 20 16 25 16 4 1 7 3 7 6 0 3 -2 4
-4 3 -2 -2 -13 6 -25 16 -20 19 -22 19 -41 1 -16 -14 -23 -16 -32 -7 -9 9 -7
16 7 32 18 19 18 21 -1 41 -10 12 -18 24 -16 27 2 4 -2 8 -8 11 -7 2 -10 -3
-8 -10z"/>
<path d="M2012 788 c-18 -18 -15 -28 8 -28 13 0 20 7 20 20 0 23 -10 26 -28 8z"/>
<path d="M2150 780 c0 -19 20 -27 33 -13 8 7 -11 33 -24 33 -5 0 -9 -9 -9 -20z"/>
<path d="M2250 771 c0 -13 26 -32 33 -24 14 13 6 33 -13 33 -11 0 -20 -4 -20
-9z"/>
<path d="M2333 668 c2 -7 -2 -21 -11 -30 -14 -16 -13 -20 1 -36 13 -14 14 -21
5 -30 -9 -9 -16 -8 -30 5 -16 14 -20 15 -35 1 -10 -9 -24 -13 -30 -11 -7 3
-13 0 -13 -6 0 -6 5 -11 12 -11 6 0 20 -7 30 -17 17 -15 19 -15 38 2 16 14 23
16 32 7 9 -9 7 -16 -7 -32 -17 -18 -17 -21 -2 -37 8 -10 16 -21 16 -25 1 -5 3
-8 6 -8 3 0 5 3 6 8 0 4 8 15 16 25 15 16 15 19 -2 37 -15 16 -16 22 -5 35 10
12 10 19 2 27 -9 9 -8 16 5 30 14 16 15 20 1 36 -9 9 -13 23 -11 30 3 6 -3 12
-12 12 -9 0 -15 -6 -12 -12z m-37 -99 c10 -17 -13 -36 -27 -22 -12 12 -4 33
11 33 5 0 12 -5 16 -11z m60 -84 c-5 -14 -9 -15 -21 -5 -12 10 -13 16 -4 27
15 18 34 1 25 -22z"/>
<path d="M1910 630 c0 -19 20 -27 33 -13 8 7 -11 33 -24 33 -5 0 -9 -9 -9 -20z"/>
<path d="M2000 642 c0 -10 22 -32 32 -32 4 0 8 9 8 20 0 13 -7 20 -20 20 -11
0 -20 -4 -20 -8z"/>
<path d="M2150 630 c0 -23 10 -26 28 -8 18 18 15 28 -8 28 -13 0 -20 -7 -20
-20z"/>
<path d="M2261 637 c-12 -15 -5 -27 16 -27 7 0 13 9 13 20 0 23 -13 26 -29 7z"/>
<path d="M2085 539 c4 -5 -1 -19 -11 -31 -18 -19 -18 -20 1 -34 24 -18 30 -18
45 1 10 13 10 19 -2 33 -9 9 -13 23 -11 30 3 6 -3 12 -12 12 -9 0 -13 -5 -10
-11z m24 -55 c-9 -11 -15 -12 -25 -3 -11 9 -12 15 -3 25 9 11 15 12 25 3 11
-9 12 -15 3 -25z"/>
<path d="M2007 506 c-3 -8 1 -17 9 -20 23 -9 24 -8 24 14 0 23 -25 27 -33 6z"/>
<path d="M2150 500 c0 -22 7 -25 29 -11 16 10 6 31 -15 31 -8 0 -14 -9 -14
-20z"/>
<path d="M1910 486 c0 -8 3 -17 8 -20 10 -6 43 19 35 27 -12 13 -43 7 -43 -7z"/>
<path d="M2250 491 c0 -13 26 -32 33 -24 14 13 6 33 -13 33 -11 0 -20 -4 -20
-9z"/>
<path d="M2015 450 c-3 -5 -15 -10 -26 -10 -29 0 -23 -13 15 -32 31 -15 35
-15 50 0 12 12 19 13 28 4 9 -9 8 -16 -5 -30 -16 -17 -16 -20 -2 -32 8 -7 14
-19 13 -26 -2 -7 2 -12 7 -11 6 1 9 5 8 9 -1 3 4 12 12 18 20 16 19 37 -2 49
-15 8 -15 11 -3 25 19 24 -3 45 -29 29 -15 -10 -20 -9 -25 2 -6 17 -32 20 -41
5z m31 -11 c10 -17 -13 -36 -27 -22 -12 12 -4 33 11 33 5 0 12 -5 16 -11z m63
-85 c-9 -11 -15 -12 -25 -3 -11 9 -12 15 -3 25 9 11 15 12 25 3 11 -9 12 -15
3 -25z"/>
<path d="M2142 448 c-32 -32 0 -58 48 -37 37 17 37 21 3 37 -33 15 -36 15 -51
0z m34 -9 c10 -17 -13 -36 -27 -22 -12 12 -4 33 11 33 5 0 12 -5 16 -11z"/>
<path d="M2333 386 c3 -8 -1 -17 -9 -20 -18 -7 -18 -30 1 -46 12 -10 13 -16 4
-26 -9 -11 -8 -18 2 -30 11 -13 10 -17 -4 -25 -21 -12 -22 -35 -2 -43 9 -3 15
-12 13 -20 -2 -8 0 -15 5 -15 4 -1 7 2 8 7 0 4 8 15 16 25 15 16 15 19 -2 37
-15 16 -16 22 -5 35 10 12 10 19 2 27 -9 9 -8 16 5 30 15 17 15 19 -1 37 -10
11 -15 25 -11 30 3 6 -1 11 -10 11 -11 0 -15 -5 -12 -14z m23 -51 c-5 -14 -9
-15 -21 -5 -12 10 -13 16 -4 27 15 18 34 1 25 -22z m3 -131 c-9 -11 -15 -12
-25 -3 -11 9 -12 15 -3 25 9 11 15 12 25 3 11 -9 12 -15 3 -25z"/>
<path d="M2018 373 c-10 -2 -15 -10 -11 -19 8 -21 33 -17 33 6 0 11 -1 19 -2
19 -2 -1 -11 -3 -20 -6z"/>
<path d="M2150 361 c0 -25 11 -33 27 -20 18 16 16 26 -7 32 -14 4 -20 0 -20
-12z"/>
<path d="M1910 350 c0 -22 1 -23 24 -14 18 7 10 34 -10 34 -8 0 -14 -9 -14
-20z"/>
<path d="M2257 356 c-3 -8 1 -17 9 -20 23 -9 24 -8 24 14 0 23 -25 27 -33 6z"/>
<path d="M2265 301 c-3 -6 -15 -11 -26 -11 -10 0 -19 -4 -19 -10 0 -5 5 -10
12 -10 6 0 19 -7 28 -15 14 -13 19 -13 36 -1 15 12 17 19 8 32 -13 22 -30 28
-39 15z m31 -12 c10 -17 -13 -36 -27 -22 -12 12 -4 33 11 33 5 0 12 -5 16 -11z"/>
<path d="M2082 269 c3 -8 -1 -22 -10 -31 -14 -16 -13 -20 3 -38 15 -16 16 -22
5 -35 -19 -22 3 -44 25 -25 13 11 19 10 35 -5 18 -17 21 -17 38 -2 9 8 20 16
25 16 4 1 7 3 7 6 0 3 -2 4 -4 3 -2 -2 -13 6 -25 16 -20 19 -22 19 -41 1 -16
-14 -23 -16 -32 -7 -9 9 -7 16 5 30 16 17 16 20 2 32 -8 7 -14 19 -13 28 2 8
-3 17 -11 20 -8 3 -12 -1 -9 -9z m28 -55 c0 -14 -21 -19 -33 -7 -9 9 13 34 24
27 5 -3 9 -12 9 -20z"/>
<path d="M2012 238 c-18 -18 -14 -28 8 -28 11 0 20 6 20 14 0 21 -15 27 -28
14z"/>
<path d="M2150 230 c0 -13 7 -20 20 -20 13 0 17 5 14 14 -9 24 -34 28 -34 6z"/>
<path d="M2010 175 c-7 -8 -19 -15 -26 -15 -8 0 -14 -5 -14 -11 0 -6 6 -9 13
-6 6 2 20 -3 30 -11 16 -14 19 -14 35 1 13 13 14 21 6 34 -15 24 -29 26 -44 8z"/>
<path d="M2541 545 c0 -243 4 -412 9 -400 5 11 9 191 9 400 0 209 -4 389 -9
400 -5 12 -9 -157 -9 -400z"/>
<path d="M2435 540 c0 -225 2 -406 5 -403 7 7 8 791 1 802 -3 5 -6 -175 -6
-399z"/>
<path d="M2463 630 c0 -36 2 -50 4 -32 2 17 2 47 0 65 -2 17 -4 3 -4 -33z"/>
<path d="M2463 440 c0 -36 2 -50 4 -32 2 17 2 47 0 65 -2 17 -4 3 -4 -33z"/>
</g>
</svg>
