<?xml version="1.0" standalone="no"?>
<!DOCTYPE svg PUBLIC "-//W3C//DTD SVG 20010904//EN"
 "http://www.w3.org/TR/2001/REC-SVG-20010904/DTD/svg10.dtd">
<svg version="1.0" xmlns="http://www.w3.org/2000/svg"
 width="246.000000pt" height="123.000000pt" viewBox="0 0 246.000000 123.000000"
 preserveAspectRatio="xMidYMid meet">
<metadata>
Created by potrace 1.10, written by Peter Selinger 2001-2011
</metadata>
<g transform="translate(0.000000,123.000000) scale(0.100000,-0.100000)"
fill="#000000" stroke="none">
<path d="M0 743 c0 -269 3 -545 7 -615 l6 -128 1139 0 1138 0 0 310 0 310 -40
0 c-22 0 -40 4 -40 9 0 6 -17 10 -38 9 -122 -1 -282 94 -358 213 -28 45 -57
120 -67 177 l-7 32 225 0 c185 0 226 3 239 15 8 8 31 15 50 15 l36 0 0 70 0
70 -1145 0 -1145 0 0 -487z m2280 422 l0 -55 -1075 0 -1075 0 0 -500 0 -500
1020 0 1020 0 0 245 0 245 55 0 55 0 0 -295 0 -295 -1127 0 -1128 0 0 600 0
600 1050 2 c578 2 1085 4 1128 6 l77 2 0 -55z m-110 -73 c0 -6 -353 -5 -410 2
-14 2 73 4 193 5 119 0 217 -2 217 -7z m-1570 -237 l0 -235 -230 0 -230 0 0
235 0 235 230 0 230 0 0 -235z m1130 201 c0 -49 35 -154 69 -208 73 -115 182
-190 316 -218 22 -4 -301 -8 -732 -9 l-773 -1 0 235 0 235 560 0 560 0 0 -34z
m-1130 -686 l0 -240 -230 0 -230 0 0 235 0 235 228 3 c125 1 228 3 230 5 1 1
2 -106 2 -238z m1060 0 l0 -240 -45 0 -45 0 0 234 0 235 43 4 c23 2 43 4 45 5
1 1 2 -106 2 -238z m490 122 l0 -112 -222 111 c-123 61 -224 112 -225 113 -1
0 100 1 223 1 l224 0 0 -113z m-1415 -127 l0 -235 -62 0 -63 0 0 235 0 235 63
0 62 0 0 -235z m135 0 l0 -235 -60 0 -60 0 0 235 0 235 60 0 60 0 0 -235z
m140 0 l0 -235 -62 0 -63 0 3 235 3 235 59 0 60 0 0 -235z m132 0 l3 -235 -62
0 -63 0 0 235 0 235 60 0 59 0 3 -235z m138 0 l0 -235 -60 0 -60 0 0 235 0
235 60 0 60 0 0 -235z m140 0 l0 -235 -62 0 -63 0 0 235 0 235 63 0 62 0 0
-235z m130 0 l0 -235 -60 0 -60 0 0 235 0 235 60 0 60 0 0 -235z m598 -120 l3
-115 -118 1 -118 0 -108 221 c-59 121 -111 218 -114 214 -3 -3 42 -103 100
-221 l106 -215 -110 0 -110 0 2 235 1 234 231 -119 232 -119 3 -116z"/>
</g>
</svg>
