<?xml version="1.0" standalone="no"?>
<!DOCTYPE svg PUBLIC "-//W3C//DTD SVG 20010904//EN"
 "http://www.w3.org/TR/2001/REC-SVG-20010904/DTD/svg10.dtd">
<svg version="1.0" xmlns="http://www.w3.org/2000/svg"
 width="113.000000pt" height="179.000000pt" viewBox="0 0 113.000000 179.000000"
 preserveAspectRatio="xMidYMid meet">
<metadata>
Created by potrace 1.10, written by Peter Selinger 2001-2011
</metadata>
<g transform="translate(0.000000,179.000000) scale(0.100000,-0.100000)"
fill="#000000" stroke="none">
<path d="M110 1672 c-17 -6 -12 -72 5 -72 13 0 15 -87 15 -723 l0 -723 23 -44
c12 -25 38 -55 57 -68 l34 -23 346 3 c343 3 345 3 378 26 71 51 67 6 69 817 2
652 4 730 17 733 11 2 16 15 16 38 l0 34 -475 2 c-261 2 -480 2 -485 0z m950
-37 l0 -25 -475 0 -475 0 0 25 0 25 475 0 475 0 0 -25z m-890 -764 l0 -728 23
-34 c36 -54 59 -58 392 -58 271 -1 304 1 341 18 78 35 74 -4 74 810 0 474 3
721 10 721 7 0 10 -249 10 -726 0 -803 3 -769 -64 -817 -30 -22 -38 -22 -361
-25 -369 -3 -377 -2 -422 67 l-23 34 0 733 c0 483 3 734 10 734 7 0 10 -250
10 -729z m818 512 l2 -213 -22 -5 c-51 -12 -346 -77 -546 -120 -117 -25 -219
-48 -227 -51 -13 -5 -15 35 -15 300 l0 306 403 -2 402 -3 3 -212z m2 -259 c0
-18 -63 -103 -190 -254 -40 -47 -343 -420 -508 -623 -77 -96 -97 -115 -104
-102 -7 12 1 29 34 68 25 29 165 201 313 382 148 182 306 376 353 433 46 57
82 105 79 108 -2 3 -179 -210 -393 -472 -293 -359 -390 -472 -392 -456 -2 16
93 140 349 454 193 238 363 445 377 461 32 34 82 35 82 1z m-122 -26 c-19 -24
-115 -142 -213 -263 -99 -121 -245 -301 -325 -399 -113 -140 -146 -174 -148
-157 -2 11 5 31 15 44 10 13 95 117 188 231 94 115 234 288 313 385 130 159
170 200 196 201 4 0 -7 -19 -26 -42z m-55 0 c-16 -18 -457 -557 -600 -733 -31
-38 -32 -39 -33 -15 0 17 34 66 108 156 59 72 181 223 272 335 189 234 231
279 256 279 16 0 16 -2 -3 -22z m-65 -5 c-8 -10 -135 -166 -283 -348 -147
-181 -272 -334 -276 -339 -5 -6 -9 0 -9 15 0 16 36 68 106 154 59 72 178 219
266 327 100 124 168 198 181 201 12 2 24 5 26 6 2 0 -3 -7 -11 -16z m-105 -60
c-53 -62 -215 -261 -357 -438 -49 -60 -92 -114 -96 -118 -4 -5 -7 51 -8 124
l0 133 43 53 c33 40 45 49 54 40 7 -10 -3 -29 -41 -75 -28 -35 -48 -65 -46
-68 3 -3 28 24 56 58 32 40 58 64 72 65 20 2 21 0 8 -15 -81 -96 -140 -173
-136 -178 3 -2 41 39 84 93 189 235 266 324 294 338 17 9 30 13 30 11 0 -3
-93 -118 -206 -256 -113 -138 -204 -253 -201 -256 4 -4 377 445 419 505 13 18
49 39 71 40 5 1 -14 -25 -40 -56z m280 -85 c-38 -46 -170 -207 -293 -358 -405
-497 -408 -500 -418 -487 -8 9 8 35 56 93 37 45 153 186 257 315 459 564 460
565 463 542 2 -16 -17 -48 -65 -105z m-363 109 c0 -2 -20 -18 -45 -36 -24 -17
-72 -70 -105 -116 -80 -111 -90 -112 -166 -9 -31 41 -54 77 -52 79 4 4 335 82
356 84 6 1 12 0 12 -2z m168 -418 c-145 -177 -307 -376 -361 -443 -54 -67
-102 -122 -107 -124 -40 -14 28 77 352 475 284 348 374 452 376 436 2 -16 -68
-108 -260 -344z m180 149 c-46 -57 -85 -105 -89 -108 -3 -3 -51 -61 -106 -130
-339 -420 -387 -475 -409 -482 -17 -4 -22 -3 -17 5 4 7 124 156 268 332 143
176 299 367 345 424 69 85 86 100 88 83 2 -15 -22 -53 -80 -124z m-683 112 c3
-6 -4 -25 -17 -42 -19 -28 -23 -30 -26 -14 -4 20 16 66 29 66 4 0 11 -5 14
-10z m31 -46 c2 -5 -15 -29 -36 -54 -35 -40 -40 -42 -40 -22 0 45 67 111 76
76z m647 -143 c-48 -60 -185 -228 -303 -374 -187 -231 -242 -288 -258 -272 -2
2 142 182 320 400 247 304 324 392 326 376 2 -15 -24 -55 -85 -130z m70 15
c-24 -32 -220 -272 -395 -485 -79 -96 -151 -176 -160 -177 -10 -1 -18 0 -18 3
0 2 132 166 293 364 219 270 293 355 295 340 2 -12 -5 -32 -15 -45z m17 -28
c0 -22 -18 -46 -205 -275 -49 -60 -136 -166 -192 -235 -55 -68 -108 -125 -117
-125 -9 0 -16 3 -16 6 0 3 88 114 196 246 108 132 226 277 262 323 36 45 67
82 69 82 1 0 3 -10 3 -22z m0 -78 c0 -10 -13 -34 -28 -52 -16 -18 -51 -60 -78
-94 -308 -381 -337 -414 -355 -414 -20 0 -20 0 0 28 12 15 63 79 116 142 52
63 147 181 212 262 65 81 121 147 126 147 4 1 7 -8 7 -19z m0 -69 c0 -16 -356
-466 -384 -483 -6 -4 -17 -8 -24 -8 -11 0 -10 4 1 20 26 37 398 490 402 490 3
0 5 -8 5 -19z m-156 -283 c-86 -106 -158 -194 -159 -196 -4 -5 -45 -11 -45 -7
0 3 80 102 178 222 138 170 178 212 180 195 2 -15 -40 -75 -154 -214z m27 -37
c-122 -148 -154 -181 -164 -163 -3 4 61 88 142 186 115 141 147 174 149 157 3
-15 -34 -66 -127 -180z m27 -38 c-57 -69 -111 -127 -121 -129 -10 -1 -17 2
-15 7 2 5 55 72 118 150 90 111 116 137 118 120 2 -15 -28 -59 -100 -148z
m102 75 c0 -27 -146 -208 -167 -208 -8 0 -13 5 -11 11 4 11 170 219 175 219 2
0 3 -10 3 -22z m-14 -109 c-8 -12 -12 -27 -10 -34 3 -6 -3 -18 -13 -25 -15
-12 -16 -12 -5 0 6 8 12 19 12 24 0 6 -13 -3 -28 -21 -15 -17 -38 -34 -51 -38
-28 -8 -28 -10 54 95 42 52 51 59 53 42 2 -12 -3 -31 -12 -43z"/>
<path d="M314 1537 c-2 -7 -3 -86 -2 -176 l3 -164 270 0 270 1 0 173 0 174
-268 3 c-213 2 -269 0 -273 -11z m527 -164 l0 -158 -258 -3 -258 -2 2 162 c1
90 2 163 3 163 0 0 115 -1 256 -2 l256 -2 -1 -158z"/>
</g>
</svg>
