<?xml version="1.0" standalone="no"?>
<!DOCTYPE svg PUBLIC "-//W3C//DTD SVG 20010904//EN"
 "http://www.w3.org/TR/2001/REC-SVG-20010904/DTD/svg10.dtd">
<svg version="1.0" xmlns="http://www.w3.org/2000/svg"
 width="89.000000pt" height="73.000000pt" viewBox="0 0 89.000000 73.000000"
 preserveAspectRatio="xMidYMid meet">
<metadata>
Created by potrace 1.10, written by Peter Selinger 2001-2011
</metadata>
<g transform="translate(0.000000,73.000000) scale(0.100000,-0.100000)"
fill="#000000" stroke="none">
<path d="M0 705 c0 -20 5 -25 25 -25 14 0 25 5 25 10 0 6 5 10 11 10 6 0 9 -7
5 -15 -5 -13 38 -15 344 -15 l350 0 -6 -42 c-36 -264 -215 -485 -459 -570 -81
-28 -245 -52 -245 -36 0 4 -11 8 -25 8 -17 0 -25 -5 -24 -17 0 -11 3 -13 6 -5
6 14 30 16 35 2 5 -16 177 7 257 34 105 36 175 80 267 171 66 66 89 97 128
175 47 96 76 200 76 278 l0 42 -365 0 c-237 0 -365 -4 -365 -10 0 -5 -7 -10
-15 -10 -8 0 -15 7 -15 14 0 11 14 16 48 19 l47 3 -52 2 c-50 2 -53 1 -53 -23z"/>
</g>
</svg>
