<?xml version="1.0" standalone="no"?>
<!DOCTYPE svg PUBLIC "-//W3C//DTD SVG 20010904//EN"
 "http://www.w3.org/TR/2001/REC-SVG-20010904/DTD/svg10.dtd">
<svg version="1.0" xmlns="http://www.w3.org/2000/svg"
 width="80.000000pt" height="77.000000pt" viewBox="0 0 80.000000 77.000000"
 preserveAspectRatio="xMidYMid meet">
<metadata>
Created by potrace 1.10, written by Peter Selinger 2001-2011
</metadata>
<g transform="translate(0.000000,77.000000) scale(0.100000,-0.100000)"
fill="#000000" stroke="none">
<path d="M200 687 c-48 -15 -135 -104 -151 -153 -8 -25 -14 -124 -16 -271 l-5
-233 244 0 c234 0 245 1 293 24 57 26 99 70 128 135 29 66 21 185 -19 266 -37
78 -132 173 -208 210 -49 24 -74 29 -145 32 -47 1 -102 -3 -121 -10z m200 -13
c114 -34 209 -118 263 -233 27 -57 32 -77 31 -146 0 -109 -41 -181 -128 -228
-38 -21 -56 -22 -279 -25 l-238 -3 3 238 c3 209 5 242 22 273 63 120 185 166
326 124z"/>
<path d="M215 632 c-120 -58 -161 -202 -95 -339 l29 -63 -28 0 c-15 0 -35 -8
-44 -18 -16 -17 -12 -22 56 -90 71 -70 74 -72 90 -54 9 10 17 30 17 45 l0 26
58 -27 c192 -89 372 15 360 208 -10 176 -156 320 -333 327 -53 3 -80 -1 -110
-15z m180 -6 c117 -36 220 -145 246 -262 34 -151 -67 -276 -221 -273 -49 1
-46 4 13 14 52 9 114 65 128 119 31 115 -34 246 -153 305 -142 71 -274 15
-298 -127 l-8 -47 -1 60 c-2 162 133 259 294 211z m-38 -91 c168 -50 257 -260
156 -367 -54 -58 -128 -72 -212 -40 -64 25 -74 46 -36 81 17 15 38 37 48 48
18 21 18 22 -2 42 -12 12 -24 21 -28 21 -4 0 -29 -21 -55 -47 -55 -54 -67 -51
-92 24 -29 85 -15 155 40 207 49 45 102 54 181 31z m-52 -252 c0 -6 -29 -41
-64 -78 -58 -60 -65 -65 -79 -51 -15 14 -10 22 48 81 59 60 95 78 95 48z
m-149 -88 l-29 -25 23 -25 24 -25 28 27 28 27 0 -40 c0 -71 -17 -71 -87 -2
-70 70 -70 88 1 88 l41 0 -29 -25z"/>
<path d="M320 371 c-17 -34 4 -63 43 -59 29 3 32 6 32 38 0 32 -3 35 -32 38
-24 2 -34 -2 -43 -17z m65 -11 c8 -26 -1 -40 -26 -40 -22 0 -34 22 -25 45 8
22 44 18 51 -5z"/>
</g>
</svg>
