<?xml version="1.0" standalone="no"?>
<!DOCTYPE svg PUBLIC "-//W3C//DTD SVG 20010904//EN"
 "http://www.w3.org/TR/2001/REC-SVG-20010904/DTD/svg10.dtd">
<svg version="1.0" xmlns="http://www.w3.org/2000/svg"
 width="153.000000pt" height="83.000000pt" viewBox="0 0 153.000000 83.000000"
 preserveAspectRatio="xMidYMid meet">
<metadata>
Created by potrace 1.10, written by Peter Selinger 2001-2011
</metadata>
<g transform="translate(0.000000,83.000000) scale(0.100000,-0.100000)"
fill="#000000" stroke="none">
<path d="M218 709 c-10 -5 -18 -17 -18 -24 0 -11 -12 -15 -40 -15 -33 0 -41
-4 -45 -22 -3 -13 -4 -122 -3 -243 l3 -220 43 -3 c38 -3 42 -5 42 -30 0 -15 7
-38 16 -50 15 -22 18 -22 278 -22 224 0 265 2 276 15 11 14 15 14 29 1 14 -13
58 -15 251 -16 129 0 245 -1 258 0 31 0 62 35 62 70 0 27 3 30 25 26 52 -10
55 6 55 248 0 239 -1 246 -52 246 -18 0 -28 5 -28 15 0 32 -37 36 -307 32
-319 -5 -234 -5 -558 -1 -175 2 -276 0 -287 -7z m560 -52 c6 -68 9 -67 -282
-67 -190 0 -265 3 -274 12 -13 13 -17 80 -5 91 4 4 131 6 282 5 l276 -3 3 -38z
m580 0 c6 -68 9 -67 -278 -67 -142 0 -265 3 -274 6 -12 4 -16 20 -16 55 l0 49
283 -2 282 -3 3 -38z m-1156 -74 c3 -77 3 -78 31 -81 l27 -3 0 -155 0 -155
-67 3 -68 3 -3 210 c-1 116 0 220 3 233 4 17 12 22 40 22 l34 0 3 -77z m1226
-161 l2 -233 -67 3 -68 3 0 150 0 150 30 3 c40 5 45 15 45 95 l0 68 28 -3 27
-3 3 -233z m-650 118 l-3 -45 -245 -3 c-138 -1 -254 2 -265 7 -11 5 -28 12
-37 15 -12 4 -18 16 -18 38 l0 33 285 0 286 0 -3 -45z m582 20 c0 -31 -17 -50
-45 -50 -12 0 -26 -5 -31 -10 -7 -7 -97 -9 -250 -8 l-239 3 -3 45 -3 45 286 0
285 0 0 -25z m-580 -253 c0 -140 -3 -177 -16 -195 -15 -22 -18 -22 -269 -22
-251 0 -254 0 -269 22 -9 12 -16 33 -16 45 0 19 5 23 29 23 17 0 31 6 35 16 3
9 6 74 6 145 l0 129 243 3 c133 1 245 3 250 5 4 1 7 -76 7 -171z m271 163
l228 0 3 -142 3 -143 38 -3 c32 -3 37 -7 37 -28 0 -13 -9 -33 -20 -44 -19 -19
-33 -20 -267 -20 -215 0 -249 2 -265 17 -16 14 -18 34 -18 196 0 159 2 178 16
173 9 -3 119 -6 245 -6z"/>
</g>
</svg>
