<?xml version="1.0" standalone="no"?>
<!DOCTYPE svg PUBLIC "-//W3C//DTD SVG 20010904//EN"
 "http://www.w3.org/TR/2001/REC-SVG-20010904/DTD/svg10.dtd">
<svg version="1.0" xmlns="http://www.w3.org/2000/svg"
 width="200.000000pt" height="85.000000pt" viewBox="0 0 200.000000 85.000000"
 preserveAspectRatio="xMidYMid meet">
<metadata>
Created by potrace 1.10, written by Peter Selinger 2001-2011
</metadata>
<g transform="translate(0.000000,85.000000) scale(0.100000,-0.100000)"
fill="#000000" stroke="none">
<path d="M136 704 c-9 -8 -16 -20 -16 -25 0 -5 -15 -9 -33 -9 -18 0 -38 -5
-45 -12 -13 -13 -18 -431 -6 -462 4 -11 19 -16 45 -16 36 0 39 -2 39 -28 0
-16 9 -38 20 -50 20 -21 28 -22 248 -23 276 -1 283 -1 304 18 15 14 19 14 33
-1 14 -14 49 -16 248 -17 275 -1 278 -1 296 16 12 11 17 11 35 0 17 -12 75
-15 275 -15 283 -1 291 1 291 66 0 32 2 33 43 36 l42 3 0 240 0 240 -42 3
c-29 2 -43 8 -43 17 0 8 -9 19 -19 25 -26 13 -526 14 -551 0 -13 -7 -21 -7
-25 0 -8 13 -530 13 -555 0 -13 -7 -21 -7 -25 0 -4 6 -106 10 -275 10 -231 0
-271 -2 -284 -16z m562 -56 l-3 -53 -275 0 -275 0 -3 53 -3 52 281 0 281 0 -3
-52z m580 0 l-3 -53 -269 -3 c-190 -2 -273 1 -282 9 -14 12 -19 80 -7 92 3 4
132 7 285 7 l279 0 -3 -52z m577 -3 l0 -50 -269 -3 c-190 -2 -273 1 -282 9
-14 12 -19 80 -7 92 4 4 131 6 282 5 l276 -3 0 -50z m-1733 -56 c3 -73 7 -79
51 -93 15 -5 17 -21 17 -140 0 -74 -3 -141 -6 -150 -5 -12 -21 -16 -70 -16
l-64 0 0 228 c0 126 3 232 7 235 3 4 19 7 34 7 28 0 28 -1 31 -71z m1823 -164
l0 -230 -68 -3 -68 -3 3 153 3 152 25 6 c24 6 25 10 28 83 l3 78 37 -3 37 -3
0 -230z m-1245 113 l0 -48 -255 0 c-151 0 -255 4 -255 9 0 5 -10 11 -22 13
-17 2 -24 12 -28 38 l-6 35 283 0 283 0 0 -47z m578 2 l-3 -45 -274 -3 c-301
-3 -291 -5 -291 58 l0 35 285 0 286 0 -3 -45z m582 12 c0 -22 -6 -34 -17 -38
-10 -3 -27 -10 -38 -15 -11 -5 -127 -8 -265 -7 l-245 3 -3 45 -3 45 286 0 285
0 0 -33z m-1160 -249 c0 -150 -2 -179 -17 -195 -15 -16 -37 -18 -264 -18 -272
0 -279 2 -279 60 0 24 5 29 28 32 l27 3 3 142 3 143 242 3 c133 1 245 3 250 5
4 1 7 -78 7 -175z m580 -2 c0 -148 -2 -177 -17 -193 -15 -16 -37 -18 -265 -18
-235 0 -249 1 -268 20 -18 18 -20 33 -20 193 l0 172 285 0 285 0 0 -174z m276
169 l234 0 0 -133 c0 -141 5 -157 47 -157 28 0 31 -33 7 -68 -15 -22 -18 -22
-265 -22 -236 0 -250 1 -269 20 -18 18 -20 33 -20 196 0 157 2 175 16 170 9
-3 121 -6 250 -6z"/>
</g>
</svg>
