<?xml version="1.0" standalone="no"?>
<!DOCTYPE svg PUBLIC "-//W3C//DTD SVG 20010904//EN"
 "http://www.w3.org/TR/2001/REC-SVG-20010904/DTD/svg10.dtd">
<svg version="1.0" xmlns="http://www.w3.org/2000/svg"
 width="99.000000pt" height="79.000000pt" viewBox="0 0 99.000000 79.000000"
 preserveAspectRatio="xMidYMid meet">
<metadata>
Created by potrace 1.10, written by Peter Selinger 2001-2011
</metadata>
<g transform="translate(0.000000,79.000000) scale(0.100000,-0.100000)"
fill="#000000" stroke="none">
<path d="M236 694 c-9 -8 -14 -20 -11 -25 4 -5 -11 -9 -32 -9 -22 0 -44 -5
-51 -12 -17 -17 -17 -449 0 -466 7 -7 27 -12 45 -12 28 0 33 -3 33 -24 0 -14
10 -36 23 -50 l22 -26 255 -1 255 0 22 26 c13 14 23 37 23 51 0 20 5 24 29 24
17 0 33 4 36 10 8 12 8 458 0 470 -3 6 -19 10 -36 10 -16 0 -29 4 -29 9 0 5
-7 17 -16 25 -13 14 -53 16 -284 16 -231 0 -271 -2 -284 -16z m562 -56 l-3
-53 -275 0 -275 0 -3 53 -3 52 281 0 281 0 -3 -52z m-576 -59 c3 -73 7 -79 51
-93 16 -5 17 -19 15 -153 l-3 -148 -67 -3 -68 -3 0 229 c0 126 3 232 7 235 3
4 19 7 34 7 28 0 28 -1 31 -71z m653 -164 l0 -230 -65 0 -65 0 0 150 0 150 25
3 c43 6 50 20 50 94 l0 69 28 -3 27 -3 0 -230z m-77 123 c-2 -27 -8 -34 -28
-36 -14 -2 -29 -8 -34 -13 -13 -12 -421 -12 -444 0 -9 5 -25 12 -34 15 -12 4
-18 16 -18 36 l0 30 281 0 280 0 -3 -32z m-68 -217 c0 -148 3 -158 48 -152 18
2 22 -2 22 -25 0 -15 -7 -36 -17 -46 -15 -16 -36 -18 -261 -18 -270 0 -282 3
-282 61 0 23 5 28 28 31 l27 3 3 143 3 142 214 0 215 0 0 -139z"/>
</g>
</svg>
