<?xml version="1.0" standalone="no"?>
<!DOCTYPE svg PUBLIC "-//W3C//DTD SVG 20010904//EN"
 "http://www.w3.org/TR/2001/REC-SVG-20010904/DTD/svg10.dtd">
<svg version="1.0" xmlns="http://www.w3.org/2000/svg"
 width="72.000000pt" height="185.000000pt" viewBox="0 0 72.000000 185.000000"
 preserveAspectRatio="xMidYMid meet">
<metadata>
Created by potrace 1.10, written by Peter Selinger 2001-2011
</metadata>
<g transform="translate(0.000000,185.000000) scale(0.100000,-0.100000)"
fill="#000000" stroke="none">
<path d="M5 925 c0 -512 1 -719 2 -462 2 258 2 676 0 930 -1 254 -2 44 -2
-468z"/>
<path d="M195 1766 c-134 -62 -189 -218 -120 -344 32 -60 73 -94 141 -119 26
-10 49 -24 51 -30 6 -18 -27 -29 -37 -13 -7 11 -11 11 -24 0 -15 -12 -15 -14
0 -31 22 -25 59 -24 84 1 23 23 24 33 10 60 -8 16 -5 20 27 31 85 28 183 165
183 256 0 28 3 32 26 30 34 -3 69 41 59 72 -9 29 -42 46 -61 30 -18 -15 -18
-29 1 -29 8 0 15 -9 15 -20 0 -29 -27 -24 -44 8 -55 104 -200 151 -311 98z
m203 -22 c29 -14 64 -41 77 -58 33 -44 32 -56 -1 -16 -74 87 -227 96 -313 17
-33 -30 -71 -115 -71 -158 0 -73 44 -153 104 -190 33 -20 76 -29 46 -9 -9 6
-10 10 -3 10 19 0 26 -20 10 -26 -19 -7 -73 20 -110 55 -118 108 -89 303 55
375 70 35 136 35 206 0z m-13 -53 c23 -10 53 -32 67 -50 15 -17 32 -31 38 -31
6 0 9 -8 6 -17 -2 -10 -8 -34 -11 -53 -16 -80 -80 -158 -162 -199 -33 -17 -43
-18 -43 -7 0 7 -13 16 -29 19 -66 14 -121 91 -121 171 0 135 134 222 255 167z"/>
<path d="M212 1160 c-51 -12 -109 -56 -135 -102 -35 -61 -41 -109 -22 -173 56
-196 331 -211 409 -23 21 48 20 130 0 171 -29 56 -85 107 -138 122 -54 16 -65
17 -114 5z m145 -37 c21 -11 52 -40 71 -67 32 -49 43 -106 20 -106 -9 0 -9 -3
1 -9 10 -6 12 -19 7 -41 -17 -87 -97 -151 -189 -152 -178 -2 -270 204 -149
334 64 68 155 84 239 41z"/>
<path d="M202 1129 c-47 -14 -109 -79 -122 -131 -23 -82 9 -165 79 -209 25
-16 54 -29 65 -29 13 1 6 6 -17 15 -50 17 -85 50 -108 100 -22 47 -23 73 -7
127 20 67 74 110 163 128 34 7 35 8 10 8 -16 0 -45 -4 -63 -9z"/>
<path d="M330 1114 c62 -27 109 -85 111 -136 0 -13 3 -17 6 -10 19 47 -81 163
-139 162 -7 -1 3 -8 22 -16z"/>
<path d="M436 895 c-9 -47 -71 -109 -122 -123 -27 -7 -32 -10 -16 -11 33 -1
74 22 110 63 28 32 50 91 39 102 -2 3 -8 -11 -11 -31z"/>
<path d="M213 665 c-13 -9 -20 -22 -17 -30 7 -17 34 -20 34 -4 0 6 8 9 18 7
34 -6 16 -31 -37 -50 -198 -74 -226 -325 -49 -444 108 -73 263 -42 334 66 27
41 54 53 54 24 0 -9 -7 -22 -15 -28 -10 -7 -12 -16 -6 -25 13 -20 57 0 66 30
10 31 -25 75 -59 72 -23 -2 -26 2 -26 30 0 91 -98 228 -183 256 -32 11 -35 15
-27 31 14 27 13 37 -10 60 -24 24 -48 25 -77 5z m47 -80 c0 -3 -18 -12 -40
-21 -74 -30 -130 -119 -130 -205 0 -42 39 -126 71 -156 37 -34 98 -55 156 -54
59 0 102 19 152 65 31 29 33 29 17 5 -34 -53 -122 -99 -191 -99 -97 0 -202 85
-225 181 -31 128 44 243 188 288 1 1 2 -1 2 -4z m153 -104 c45 -50 62 -82 76
-149 13 -64 13 -65 1 -57 -5 3 -23 -10 -40 -29 -112 -127 -320 -49 -320 120 0
80 55 157 121 171 16 3 29 12 29 19 0 23 91 -28 133 -75z"/>
</g>
</svg>
