<?xml version="1.0" standalone="no"?>
<!DOCTYPE svg PUBLIC "-//W3C//DTD SVG 20010904//EN"
 "http://www.w3.org/TR/2001/REC-SVG-20010904/DTD/svg10.dtd">
<svg version="1.0" xmlns="http://www.w3.org/2000/svg"
 width="300.000000pt" height="168.000000pt" viewBox="0 0 300.000000 168.000000"
 preserveAspectRatio="xMidYMid meet">
<metadata>
Created by potrace 1.10, written by Peter Selinger 2001-2011
</metadata>
<g transform="translate(0.000000,168.000000) scale(0.100000,-0.100000)"
fill="#000000" stroke="none">
<path d="M420 875 l0 -765 1085 0 1085 0 0 765 0 765 -1085 0 -1085 0 0 -765z
m2150 0 l0 -745 -1065 0 -1065 0 0 745 0 745 1065 0 1065 0 0 -745z"/>
<path d="M520 840 l0 -630 985 0 985 0 0 630 0 630 -985 0 -985 0 0 -630z
m1960 170 l0 -440 -972 0 -973 0 0 440 0 440 973 0 972 0 0 -440z m0 -620 l0
-160 -972 0 -973 0 0 160 0 160 973 0 972 0 0 -160z"/>
<path d="M805 1261 c-59 -30 -60 -30 -81 -10 -21 19 -21 19 -39 -1 -18 -20
-18 -21 2 -42 l21 -20 -24 -47 c-46 -88 -41 -202 11 -283 l25 -37 -27 -21 -27
-21 22 -21 21 -22 21 27 20 26 56 -30 c44 -23 69 -29 118 -29 72 0 126 13 158
40 23 18 23 18 50 -7 27 -26 28 -26 48 -8 l20 18 -25 27 -26 27 25 37 c53 79
55 197 4 288 l-22 38 21 21 21 21 -21 21 -20 20 -19 -23 c-16 -20 -22 -22 -36
-12 -51 36 -82 46 -157 50 -74 3 -85 1 -140 -27z m241 -11 c54 -23 59 -33 32
-63 l-22 -24 -32 19 c-46 27 -132 27 -177 0 l-35 -20 -27 28 -27 28 41 21 c85
44 165 47 247 11z m-195 -163 c-11 -11 -163 142 -154 156 3 5 41 -26 84 -69
46 -46 75 -82 70 -87z m319 145 c0 -14 -146 -153 -153 -145 -4 4 25 40 65 80
68 69 88 83 88 65z m-190 -52 c63 -18 69 -27 35 -54 -30 -24 -30 -24 -11 -45
l19 -21 27 25 c14 14 29 25 32 25 3 0 11 -20 18 -45 13 -46 10 -88 -9 -139
l-12 -29 -28 27 -28 26 -18 -20 c-18 -20 -18 -21 5 -45 l23 -25 -39 -16 c-41
-17 -107 -14 -146 7 -22 12 -22 12 7 36 l28 25 -21 20 -20 21 -25 -29 -24 -28
-17 31 c-19 37 -21 121 -4 158 l11 25 29 -26 c27 -27 28 -27 48 -9 l20 18 -27
29 c-29 31 -27 37 20 55 41 15 63 15 107 3z m-225 -93 c-21 -50 -19 -115 5
-162 l20 -39 -22 -23 c-12 -13 -24 -23 -28 -23 -3 0 -16 18 -29 40 -40 72 -40
193 0 259 l21 34 24 -25 c24 -23 24 -25 9 -61z m416 42 c40 -79 36 -181 -12
-258 l-21 -34 -25 25 c-25 25 -25 26 -7 59 23 43 24 133 2 175 -16 29 -16 32
5 52 12 12 25 22 29 22 4 0 17 -19 29 -41z m-387 -290 c-43 -43 -82 -75 -87
-72 -5 3 26 41 69 84 43 43 82 75 87 72 5 -3 -26 -41 -69 -84z m386 -66 c0
-24 -15 -13 -89 61 -46 46 -71 78 -66 86 8 14 155 -126 155 -147z m-319 61
c39 -20 128 -20 167 0 28 14 30 14 53 -10 24 -25 24 -26 4 -40 -37 -27 -124
-46 -173 -39 -38 6 -113 35 -131 51 -4 4 39 54 46 54 2 0 18 -7 34 -16z"/>
<path d="M900 1077 c-52 -26 -51 -109 1 -134 49 -24 109 17 109 73 0 19 -54
74 -72 74 -7 0 -24 -6 -38 -13z m68 -23 c44 -30 16 -104 -39 -104 -16 0 -59
44 -59 60 0 16 43 60 59 60 9 0 27 -7 39 -16z"/>
<path d="M1884 1260 c-58 -29 -59 -29 -80 -9 -21 19 -21 19 -39 -1 -18 -20
-18 -21 2 -41 l21 -21 -27 -46 c-22 -41 -26 -59 -26 -132 0 -74 3 -91 28 -134
l27 -49 -22 -24 -22 -23 20 -20 c20 -20 20 -20 42 3 l22 24 57 -29 c86 -43
201 -38 274 13 25 18 26 17 51 -8 24 -24 28 -25 42 -10 21 20 20 26 -5 53 -21
23 -21 23 -2 51 58 82 58 223 2 304 -17 25 -17 26 3 47 21 21 21 22 3 42 l-18
20 -23 -21 c-23 -21 -23 -21 -51 -2 -76 53 -189 59 -279 13z m186 9 c24 -5 60
-19 78 -31 l34 -21 -25 -25 c-25 -25 -26 -25 -62 -8 -49 23 -115 24 -165 1
l-41 -19 -26 26 -26 26 44 23 c70 36 121 44 189 28z m-140 -176 c0 -24 -15
-13 -89 61 -46 46 -71 78 -66 86 8 14 155 -126 155 -147z m320 139 c0 -4 -33
-40 -74 -81 -49 -49 -76 -69 -81 -61 -5 8 18 38 61 81 62 62 94 83 94 61z
m-154 -65 l25 -13 -26 -24 c-29 -27 -31 -42 -10 -60 13 -11 20 -9 44 14 l29
28 13 -23 c17 -32 17 -116 0 -157 l-14 -33 -27 26 -27 25 -18 -20 c-18 -20
-18 -21 5 -45 l23 -25 -39 -16 c-41 -17 -107 -14 -145 7 -21 11 -21 11 5 38
l26 28 -20 18 c-20 18 -21 18 -44 -4 -31 -29 -41 -23 -55 34 -9 34 -9 57 0 88
16 60 18 62 50 31 28 -27 29 -27 49 -9 l20 18 -26 28 c-14 15 -23 32 -20 38
19 30 130 35 182 8z m-267 -21 c21 -23 22 -25 7 -54 -22 -43 -21 -129 3 -168
l19 -32 -27 -26 -28 -27 -15 23 c-45 69 -52 176 -18 257 13 28 26 51 29 51 4
0 18 -11 30 -24z m419 -18 c40 -85 36 -181 -10 -256 l-21 -34 -25 25 c-25 25
-25 26 -7 63 22 46 22 122 1 165 -16 31 -15 33 6 56 12 13 25 23 29 23 4 0 16
-19 27 -42z m-388 -293 c-46 -46 -78 -71 -84 -65 -5 5 19 37 65 84 47 47 78
71 84 65 6 -6 -18 -37 -65 -84z m384 -65 c-13 -13 -159 133 -149 150 5 8 32
-12 83 -64 52 -51 73 -79 66 -86z m-312 64 c40 -21 117 -21 159 0 32 16 34 16
59 -9 25 -26 25 -26 5 -41 -24 -18 -110 -44 -145 -44 -35 0 -120 27 -144 45
-19 15 -19 15 4 40 28 30 23 29 62 9z"/>
<path d="M1990 1083 c-52 -19 -69 -93 -30 -128 49 -44 140 3 125 64 -11 45
-59 77 -95 64z m60 -33 c11 -11 20 -29 20 -40 0 -11 -9 -29 -20 -40 -11 -11
-29 -20 -40 -20 -11 0 -29 9 -40 20 -11 11 -20 29 -20 40 0 11 9 29 20 40 11
11 29 20 40 20 11 0 29 -9 40 -20z"/>
<path d="M899 483 c-9 -9 -26 -24 -37 -34 -26 -22 -37 -60 -28 -95 6 -23 17
-36 77 -90 22 -19 30 -18 58 11 13 14 27 25 31 25 16 0 41 71 35 99 -7 33 -78
101 -103 100 -9 0 -24 -8 -33 -16z m38 -160 c-2 -32 -3 -6 -3 57 0 63 1 89 3
58 2 -32 2 -84 0 -115z m-27 57 c0 -44 -3 -80 -7 -80 -20 0 -53 46 -53 75 0
31 32 85 51 85 5 0 9 -36 9 -80z m89 54 c12 -15 21 -39 21 -54 0 -29 -34 -80
-53 -80 -8 0 -12 25 -12 80 0 88 9 99 44 54z"/>
<path d="M1948 462 c-46 -46 -55 -79 -33 -126 10 -20 21 -36 25 -36 4 0 18
-11 31 -25 28 -29 36 -30 58 -11 60 54 71 67 77 90 8 35 -2 73 -26 94 -11 9
-29 25 -40 35 -29 25 -50 20 -92 -21z m59 -139 c-2 -32 -3 -6 -3 57 0 63 1 89
3 58 2 -32 2 -84 0 -115z m-22 57 c0 -55 -4 -80 -12 -80 -19 0 -53 51 -53 80
0 29 34 80 53 80 8 0 12 -25 12 -80z m84 54 c27 -35 27 -81 -1 -111 -12 -13
-25 -23 -30 -23 -4 0 -8 36 -8 80 0 44 4 80 9 80 5 0 19 -12 30 -26z"/>
<path d="M1200 415 c0 -13 39 -15 312 -13 238 2 312 6 316 16 3 9 -64 12 -312
12 -276 0 -316 -2 -316 -15z"/>
<path d="M1200 325 c0 -13 39 -15 312 -13 238 2 312 6 316 16 3 9 -64 12 -312
12 -276 0 -316 -2 -316 -15z"/>
</g>
</svg>
