<?xml version="1.0" standalone="no"?>
<!DOCTYPE svg PUBLIC "-//W3C//DTD SVG 20010904//EN"
 "http://www.w3.org/TR/2001/REC-SVG-20010904/DTD/svg10.dtd">
<svg version="1.0" xmlns="http://www.w3.org/2000/svg"
 width="300.000000pt" height="340.000000pt" viewBox="0 0 300.000000 340.000000"
 preserveAspectRatio="xMidYMid meet">
<metadata>
Created by potrace 1.10, written by Peter Selinger 2001-2011
</metadata>
<g transform="translate(0.000000,340.000000) scale(0.100000,-0.100000)"
fill="#000000" stroke="none">
<path d="M240 1565 l0 -1485 665 0 665 0 0 870 0 870 543 0 542 0 -3 -870 -2
-870 60 0 60 0 0 1485 0 1485 -605 0 -605 0 0 -605 0 -605 -600 0 -600 0 0
605 0 605 -60 0 -60 0 0 -1485z m100 -3 l0 -1469 -38 2 -37 3 -3 1466 -2 1466
40 0 40 0 0 -1468z m2315 873 l0 -595 -542 0 -543 0 0 595 0 595 543 0 542 0
0 -595z m95 -872 l0 -1468 -37 1 -38 1 -3 1467 -2 1466 40 0 40 0 0 -1467z
m-1290 177 l0 -80 -550 0 -550 0 0 80 0 80 550 0 550 0 0 -80z m98 -781 l-3
-861 -37 -3 -38 -2 0 864 0 863 40 0 40 0 -2 -861z m-98 606 l0 -75 -550 0
-550 0 0 78 0 77 550 -3 550 -2 0 -75z m0 -172 l0 -78 -550 0 -550 0 0 78 0
77 550 0 550 0 0 -77z m0 -173 l0 -80 -550 0 -550 0 0 80 0 80 550 0 550 0 0
-80z m0 -175 l0 -75 -550 -2 -550 -3 0 78 0 77 550 0 550 0 0 -75z m0 -175 l0
-80 -550 0 -550 0 0 80 0 80 550 0 550 0 0 -80z m0 -175 l0 -75 -550 0 -550 0
0 75 0 75 550 0 550 0 0 -75z m0 -172 l0 -78 -550 0 -550 0 0 78 0 77 550 0
550 0 0 -77z m-2 -178 l3 -75 -551 0 -550 0 0 78 0 77 547 -2 548 -3 3 -75z
m2 -172 l0 -78 -550 0 -550 0 0 78 0 77 550 0 550 0 0 -77z"/>
</g>
</svg>
