<?xml version="1.0" standalone="no"?>
<!DOCTYPE svg PUBLIC "-//W3C//DTD SVG 20010904//EN"
 "http://www.w3.org/TR/2001/REC-SVG-20010904/DTD/svg10.dtd">
<svg version="1.0" xmlns="http://www.w3.org/2000/svg"
 width="54.000000pt" height="47.000000pt" viewBox="0 0 54.000000 47.000000"
 preserveAspectRatio="xMidYMid meet">
<metadata>
Created by potrace 1.10, written by Peter Selinger 2001-2011
</metadata>
<g transform="translate(0.000000,47.000000) scale(0.100000,-0.100000)"
fill="#000000" stroke="none">
<path d="M133 463 c75 -2 199 -2 275 0 75 1 13 3 -138 3 -151 0 -213 -2 -137
-3z"/>
<path d="M242 425 c-2 -28 -7 -32 -49 -43 -82 -22 -153 -114 -153 -199 0 -48
83 -113 162 -128 27 -5 38 -13 41 -29 4 -21 4 -21 6 0 1 17 12 23 57 33 78 18
144 80 144 136 0 50 -34 119 -74 150 -17 13 -52 29 -78 36 -41 11 -47 17 -51
43 l-4 31 -1 -30z m-2 -74 c0 -26 -4 -29 -42 -35 -105 -17 -160 -100 -114
-171 20 -31 86 -65 126 -65 16 0 30 -4 30 -10 0 -13 -56 -2 -107 22 -94 43
-104 136 -24 221 22 25 70 57 84 57 3 0 4 -8 3 -17 -1 -21 25 -24 32 -4 3 8 0
11 -5 8 -5 -3 -10 0 -10 8 0 8 6 15 14 15 8 0 13 -11 13 -29z m30 14 c-15 -18
1 -42 19 -31 15 10 14 29 -1 20 -10 -5 -10 -4 -1 6 18 19 81 -18 116 -67 58
-82 39 -166 -46 -203 -57 -25 -107 -34 -107 -21 0 6 14 11 30 11 36 0 97 29
123 58 24 27 26 82 3 117 -20 30 -87 64 -128 65 -24 0 -28 4 -28 30 0 21 5 30
16 30 14 0 14 -3 4 -15z m-30 -80 c0 -14 -7 -28 -16 -32 -15 -5 -15 -7 0 -15
12 -7 16 -25 16 -78 0 -61 -2 -70 -19 -70 -33 0 -85 22 -113 48 -57 53 -21
136 69 160 58 15 63 14 63 -13z m72 13 c93 -28 127 -106 71 -160 -31 -30 -72
-48 -109 -48 -23 0 -24 3 -24 69 0 40 5 73 11 77 8 4 8 9 0 17 -14 14 -14 57
0 57 7 0 29 -5 51 -12z"/>
</g>
</svg>
